<svg width="44" height="44" viewBox="0 0 44 44" fill="none" xmlns="http://www.w3.org/2000/svg">
<path id="Arrow 1" d="M42.6219 6.6219C44.0699 5.17386 44.0699 2.82614 42.6219 1.3781C41.1739 -0.0699297 38.8261 -0.0699297 37.3781 1.3781L42.6219 6.6219ZM0.292079 40C0.292077 42.0478 1.95217 43.7079 4 43.7079L37.3713 43.7079C39.4191 43.7079 41.0792 42.0478 41.0792 40C41.0792 37.9522 39.4191 36.2921 37.3713 36.2921L7.70792 36.2921L7.70792 6.62871C7.70792 4.58088 6.04783 2.92079 4 2.92079C1.95217 2.92079 0.292078 4.58088 0.292079 6.62871L0.292079 40ZM37.3781 1.3781L1.3781 37.3781L6.6219 42.6219L42.6219 6.6219L37.3781 1.3781Z" fill="#F28500"/>
</svg>
