<svg width="56" height="56" viewBox="0 0 56 56" fill="none" xmlns="http://www.w3.org/2000/svg">
<path d="M24.2921 51.8645C24.2858 53.9123 25.9407 55.5775 27.9885 55.5839C30.0363 55.5902 31.7016 53.9353 31.7079 51.8875L24.2921 51.8645ZM30.7782 1.38625C29.3346 -0.0662603 26.9869 -0.0735274 25.5344 1.37002L1.86443 24.8939C0.411922 26.3375 0.404655 28.6852 1.8482 30.1377C3.29174 31.5902 5.63946 31.5975 7.09197 30.1539L28.132 9.24379L49.0421 30.2838C50.4857 31.7363 52.8334 31.7436 54.2859 30.3C55.7384 28.8565 55.7457 26.5088 54.3021 25.0562L30.7782 1.38625ZM31.7079 51.8875L31.8561 4.01149L24.4403 3.98854L24.2921 51.8645L31.7079 51.8875Z" fill="#F28500"/>
</svg>
