<svg width="45" height="45" viewBox="0 0 45 45" fill="none" xmlns="http://www.w3.org/2000/svg">
<path id="Arrow 1" d="M1.77483 37.6882C0.326799 39.1362 0.326799 41.4839 1.77483 42.932C3.22287 44.38 5.57059 44.38 7.01863 42.932L1.77483 37.6882ZM44.1046 4.31005C44.1046 2.26222 42.4446 0.602129 40.3967 0.602132L7.02543 0.602137C4.9776 0.602136 3.31751 2.26223 3.31751 4.31006C3.31751 6.35789 4.9776 8.01798 7.02543 8.01798L36.6888 8.01797L36.6888 37.6813C36.6888 39.7292 38.3489 41.3893 40.3967 41.3893C42.4446 41.3893 44.1047 39.7292 44.1046 37.6813L44.1046 4.31005ZM7.01863 42.932L43.0186 6.93195L37.7748 1.68816L1.77483 37.6882L7.01863 42.932Z" fill="#FDFDFF"/>
</svg>
