<svg width="745" height="1010" viewBox="0 0 745 1010" fill="none" xmlns="http://www.w3.org/2000/svg">
<path d="M120 256.157L36 256.157L36 224.957L75.96 224.957L36 202.037L36 181.637L75.96 158.717L36 158.717L36 127.517L120 127.517L120 165.917L72 191.837L120 217.757L120 256.157ZM34.8 371.422C34.8 334.462 48.84 318.622 78.12 318.622C107.28 318.622 121.2 334.462 121.2 371.422C121.2 408.262 107.16 424.222 78.12 424.222C48.96 424.222 34.8 408.262 34.8 371.422ZM61.2 371.422C61.2 389.782 69.24 393.022 78.12 393.022C86.88 393.022 94.8 389.902 94.8 371.422C94.8 352.942 87 349.822 78.12 349.822C69.12 349.822 61.2 353.062 61.2 371.422ZM120 557.488L120 591.808L36 557.008L36 510.687L120 475.887L120 510.207L57.6 533.847L120 557.488ZM120 685.475L36 685.475L36 654.275L120 654.275L120 685.475ZM96 839.052L96 781.452L88.2 781.452L88.2 839.052L67.8 839.052L67.8 781.452L60 781.452L60 839.052L36 839.052L36 750.252L120 750.252L120 839.052L96 839.052ZM65.64 901.395L65.64 932.595C61.56 932.595 58.8 936.435 58.8 956.235C58.8 974.715 60 977.475 63.12 977.475C66.72 977.475 67.2 974.715 67.8 955.035C69 917.115 75.24 902.595 94.8 902.595C113.28 902.595 121.2 920.715 121.2 953.835C121.2 986.595 113.28 1005.08 91.8 1005.08L91.8 973.875C96.24 973.875 97.2 966.675 97.2 951.435C97.2 936.795 96.48 933.795 93.24 933.795C90 933.795 90.12 936.795 89.4 955.035C88.08 988.155 85.8 1008.68 63.84 1008.68C40.68 1008.68 34.8 989.475 34.8 955.035C34.8 920.595 40.68 901.395 65.64 901.395Z" fill="black" fill-opacity="0.1"/>
<path d="M237 81.1572L153 81.1572L153 49.9572L192.96 49.9572L153 27.0372L153 6.63718L192.96 -16.2828L153 -16.2828L153 -47.4828L237 -47.4828L237 -9.08281L189 16.8372L237 42.7572L237 81.1572ZM151.8 196.422C151.8 159.462 165.84 143.622 195.12 143.622C224.28 143.622 238.2 159.462 238.2 196.422C238.2 233.262 224.16 249.222 195.12 249.222C165.96 249.222 151.8 233.262 151.8 196.422ZM178.2 196.422C178.2 214.782 186.24 218.022 195.12 218.022C203.88 218.022 211.8 214.902 211.8 196.422C211.8 177.942 204 174.822 195.12 174.822C186.12 174.822 178.2 178.062 178.2 196.422ZM237 382.488L237 416.808L153 382.008L153 335.687L237 300.887L237 335.207L174.6 358.847L237 382.488ZM237 510.475L153 510.475L153 479.275L237 479.275L237 510.475ZM213 664.052L213 606.452L205.2 606.452L205.2 664.052L184.8 664.052L184.8 606.452L177 606.452L177 664.052L153 664.052L153 575.252L237 575.252L237 664.052L213 664.052ZM182.64 726.395L182.64 757.595C178.56 757.595 175.8 761.435 175.8 781.235C175.8 799.715 177 802.475 180.12 802.475C183.72 802.475 184.2 799.715 184.8 780.035C186 742.115 192.24 727.595 211.8 727.595C230.28 727.595 238.2 745.715 238.2 778.835C238.2 811.595 230.28 830.075 208.8 830.075L208.8 798.875C213.24 798.875 214.2 791.675 214.2 776.435C214.2 761.795 213.48 758.795 210.24 758.795C207 758.795 207.12 761.795 206.4 780.035C205.08 813.155 202.8 833.675 180.84 833.675C157.68 833.675 151.8 814.475 151.8 780.035C151.8 745.595 157.68 726.395 182.64 726.395Z" fill="black" fill-opacity="0.1"/>
<path d="M358 -82.8428L274 -82.8428L274 -114.043L313.96 -114.043L274 -136.963L274 -157.363L313.96 -180.283L274 -180.283L274 -211.483L358 -211.483L358 -173.083L310 -147.163L358 -121.243L358 -82.8428ZM272.8 32.4219C272.8 -4.53813 286.84 -20.3781 316.12 -20.3781C345.28 -20.3781 359.2 -4.53813 359.2 32.4219C359.2 69.2619 345.16 85.2219 316.12 85.2219C286.96 85.2219 272.8 69.2619 272.8 32.4219ZM299.2 32.4219C299.2 50.7819 307.24 54.0219 316.12 54.0219C324.88 54.0219 332.8 50.9019 332.8 32.4219C332.8 13.9419 325 10.8219 316.12 10.8219C307.12 10.8219 299.2 14.0619 299.2 32.4219ZM358 218.488L358 252.808L274 218.008L274 171.687L358 136.887L358 171.207L295.6 194.847L358 218.488ZM358 346.475L274 346.475L274 315.275L358 315.275L358 346.475ZM334 500.052L334 442.452L326.2 442.452L326.2 500.052L305.8 500.052L305.8 442.452L298 442.452L298 500.052L274 500.052L274 411.252L358 411.252L358 500.052L334 500.052ZM303.64 562.395L303.64 593.595C299.56 593.595 296.8 597.435 296.8 617.235C296.8 635.715 298 638.475 301.12 638.475C304.72 638.475 305.2 635.715 305.8 616.035C307 578.115 313.24 563.595 332.8 563.595C351.28 563.595 359.2 581.715 359.2 614.835C359.2 647.595 351.28 666.075 329.8 666.075L329.8 634.875C334.24 634.875 335.2 627.675 335.2 612.435C335.2 597.795 334.48 594.795 331.24 594.795C328 594.795 328.12 597.795 327.4 616.035C326.08 649.155 323.8 669.675 301.84 669.675C278.68 669.675 272.8 650.475 272.8 616.035C272.8 581.595 278.68 562.395 303.64 562.395Z" fill="black" fill-opacity="0.1"/>
<path d="M475 -220.843L391 -220.843L391 -252.043L430.96 -252.043L391 -274.963L391 -295.363L430.96 -318.283L391 -318.283L391 -349.483L475 -349.483L475 -311.083L427 -285.163L475 -259.243L475 -220.843ZM389.8 -105.578C389.8 -142.538 403.84 -158.378 433.12 -158.378C462.28 -158.378 476.2 -142.538 476.2 -105.578C476.2 -68.7381 462.16 -52.7781 433.12 -52.7781C403.96 -52.7781 389.8 -68.7381 389.8 -105.578ZM416.2 -105.578C416.2 -87.2181 424.24 -83.9781 433.12 -83.9781C441.88 -83.9781 449.8 -87.0981 449.8 -105.578C449.8 -124.058 442 -127.178 433.12 -127.178C424.12 -127.178 416.2 -123.938 416.2 -105.578ZM475 80.4875L475 114.808L391 80.0075L391 33.6875L475 -1.1125L475 33.2075L412.6 56.8475L475 80.4875ZM475 208.475L391 208.475L391 177.275L475 177.275L475 208.475ZM451 362.052L451 304.452L443.2 304.452L443.2 362.052L422.8 362.052L422.8 304.452L415 304.452L415 362.052L391 362.052L391 273.252L475 273.252L475 362.052L451 362.052ZM420.64 424.395L420.64 455.595C416.56 455.595 413.8 459.435 413.8 479.235C413.8 497.715 415 500.475 418.12 500.475C421.72 500.475 422.2 497.715 422.8 478.035C424 440.115 430.24 425.595 449.8 425.595C468.28 425.595 476.2 443.715 476.2 476.835C476.2 509.595 468.28 528.075 446.8 528.075L446.8 496.875C451.24 496.875 452.2 489.675 452.2 474.435C452.2 459.795 451.48 456.795 448.24 456.795C445 456.795 445.12 459.795 444.4 478.035C443.08 511.155 440.8 531.675 418.84 531.675C395.68 531.675 389.8 512.475 389.8 478.035C389.8 443.595 395.68 424.395 420.64 424.395Z" fill="black" fill-opacity="0.1"/>
<path d="M596 -342.843L512 -342.843L512 -374.043L551.96 -374.043L512 -396.963L512 -417.363L551.96 -440.283L512 -440.283L512 -471.483L596 -471.483L596 -433.083L548 -407.163L596 -381.243L596 -342.843ZM510.8 -227.578C510.8 -264.538 524.84 -280.378 554.12 -280.378C583.28 -280.378 597.2 -264.538 597.2 -227.578C597.2 -190.738 583.16 -174.778 554.12 -174.778C524.96 -174.778 510.8 -190.738 510.8 -227.578ZM537.2 -227.578C537.2 -209.218 545.24 -205.978 554.12 -205.978C562.88 -205.978 570.8 -209.098 570.8 -227.578C570.8 -246.058 563 -249.178 554.12 -249.178C545.12 -249.178 537.2 -245.938 537.2 -227.578ZM596 -41.5125L596 -7.19249L512 -41.9925L512 -88.3125L596 -123.113L596 -88.7925L533.6 -65.1525L596 -41.5125ZM596 86.475L512 86.475L512 55.275L596 55.275L596 86.475ZM572 240.052L572 182.452L564.2 182.452L564.2 240.052L543.8 240.052L543.8 182.452L536 182.452L536 240.052L512 240.052L512 151.252L596 151.252L596 240.052L572 240.052ZM541.64 302.395L541.64 333.595C537.56 333.595 534.8 337.435 534.8 357.235C534.8 375.715 536 378.475 539.12 378.475C542.72 378.475 543.2 375.715 543.8 356.035C545 318.115 551.24 303.595 570.8 303.595C589.28 303.595 597.2 321.715 597.2 354.835C597.2 387.595 589.28 406.075 567.8 406.075L567.8 374.875C572.24 374.875 573.2 367.675 573.2 352.435C573.2 337.795 572.48 334.795 569.24 334.795C566 334.795 566.12 337.795 565.4 356.035C564.08 389.155 561.8 409.675 539.84 409.675C516.68 409.675 510.8 390.475 510.8 356.035C510.8 321.595 516.68 302.395 541.64 302.395Z" fill="black" fill-opacity="0.1"/>
<path d="M721 -501.843L637 -501.843L637 -533.043L676.96 -533.043L637 -555.963L637 -576.363L676.96 -599.283L637 -599.283L637 -630.483L721 -630.483L721 -592.083L673 -566.163L721 -540.243L721 -501.843ZM635.8 -386.578C635.8 -423.538 649.84 -439.378 679.12 -439.378C708.28 -439.378 722.2 -423.538 722.2 -386.578C722.2 -349.738 708.16 -333.778 679.12 -333.778C649.96 -333.778 635.8 -349.738 635.8 -386.578ZM662.2 -386.578C662.2 -368.218 670.24 -364.978 679.12 -364.978C687.88 -364.978 695.8 -368.098 695.8 -386.578C695.8 -405.058 688 -408.178 679.12 -408.178C670.12 -408.178 662.2 -404.938 662.2 -386.578ZM721 -200.512L721 -166.192L637 -200.992L637 -247.313L721 -282.113L721 -247.793L658.6 -224.153L721 -200.512ZM721 -72.525L637 -72.525L637 -103.725L721 -103.725L721 -72.525ZM697 81.0516L697 23.4516L689.2 23.4516L689.2 81.0516L668.8 81.0516L668.8 23.4516L661 23.4516L661 81.0516L637 81.0516L637 -7.74844L721 -7.74844L721 81.0516L697 81.0516ZM666.64 143.395L666.64 174.595C662.56 174.595 659.8 178.435 659.8 198.235C659.8 216.715 661 219.475 664.12 219.475C667.72 219.475 668.2 216.715 668.8 197.035C670 159.115 676.24 144.595 695.8 144.595C714.28 144.595 722.2 162.715 722.2 195.835C722.2 228.595 714.28 247.075 692.8 247.075L692.8 215.875C697.24 215.875 698.2 208.675 698.2 193.435C698.2 178.795 697.48 175.795 694.24 175.795C691 175.795 691.12 178.795 690.4 197.035C689.08 230.155 686.8 250.675 664.84 250.675C641.68 250.675 635.8 231.475 635.8 197.035C635.8 162.595 641.68 143.395 666.64 143.395Z" fill="black" fill-opacity="0.1"/>
</svg>
