<svg width="767" height="846" viewBox="0 0 767 846" fill="none" xmlns="http://www.w3.org/2000/svg">
<path d="M630.385 504.498L651.824 526.272C657.534 523.924 658.003 527.396 658.102 531.709C658.188 539.976 658.436 548.231 658.609 556.498C665.862 556.794 673.116 557.153 680.37 557.375C703.515 558.079 725.202 562.318 740.389 582.164C742.057 575.985 739.536 570.091 738.844 564.073C736.768 559.97 732.579 558.734 728.897 556.881C708.816 546.735 692.097 531.561 673.165 519.71C668.383 516.72 669.458 511.801 669.792 507.353C669.94 505.573 672.164 502.669 673.079 503.856C676.477 508.329 683.298 502.188 685.56 508.28C693.505 529.645 714.476 531.462 731.652 538.987L763.596 527.31C762.644 523.603 761.693 519.759 760.754 515.991L746.901 481.39L729.601 472.283C728.291 482.712 721.766 489.583 712.98 493.797C692.974 503.497 676.564 492.351 673.437 467.476C662.242 466.364 659.177 478.313 650.712 481.588L630.484 500.297L630.385 504.498Z" fill="#19151A"/>
<path d="M630.385 504.498L630.496 500.309C626.356 494.316 629.025 487.717 628.766 481.378C628.543 469.799 625.627 457.578 635.933 448.359C641.296 443.565 636.563 438.473 636.551 433.617C636.551 431.146 633.029 430.997 630.854 431.776C625.911 433.555 622.352 436.781 621.772 442.366C620.458 455.585 617.934 468.656 614.234 481.415C613.566 492.734 612.8 504.029 612.294 515.348C612.078 518.754 612.344 522.174 613.085 525.506C616.087 537.739 623.613 540.174 633.437 532.339C635.513 530.696 637.626 529.089 639.714 527.396C636.267 519.92 623.119 516.324 630.385 504.498Z" fill="#19151A"/>
<path d="M673.413 467.427C676.514 492.302 692.925 503.448 712.956 493.748C721.742 489.497 728.266 482.626 729.576 472.234L713.178 466.586C712.227 470.701 715.192 476.695 709.286 478.425C703.379 480.155 696.372 480.896 690.515 477.745C684.336 474.433 692.443 467.612 687.895 463.435L683.397 463.732C682.524 463.356 681.551 463.283 680.631 463.522C679.711 463.761 678.898 464.301 678.318 465.054L673.413 467.427Z" fill="#19151A"/>
<path d="M685.671 403.651C685.872 403.885 686.087 404.108 686.314 404.318C686.534 404.537 686.769 404.739 687.018 404.924C687.253 405.109 687.5 405.282 687.747 405.455C688.812 406.129 689.913 406.744 691.046 407.296L691.887 407.741C692.577 408.107 693.242 408.52 693.876 408.977C694.123 409.15 694.37 409.348 694.605 409.545C694.955 409.85 695.281 410.18 695.581 410.534L695.878 410.83C696.416 411.517 696.834 412.29 697.114 413.117C698.939 414.008 700.548 415.287 701.828 416.865C703.109 418.442 704.03 420.279 704.528 422.249C707.173 424.72 709.693 427.191 710.558 430.899C712.931 433.37 713.252 436.645 713.821 439.783C717.466 436.151 719.689 431.333 720.086 426.202C720.482 421.071 719.027 415.968 715.983 411.819C708.235 401.575 695.211 398.053 685.671 403.651Z" fill="#19151A"/>
<path d="M577.409 783.772C591.919 787.573 607.171 787.509 621.648 783.587C625.973 780.176 625.751 775.307 625.85 770.537C625.228 770.123 624.524 769.849 623.786 769.734L610.341 770.043C608.834 774.986 606.56 779.224 601.617 773.293C598.664 769.746 595.364 770.055 591.731 769.969L588.939 770.772C586.418 776.259 574.678 773.627 577.409 783.772Z" fill="#19151A"/>
<path d="M672.053 417.256C672.708 417.046 673.375 416.873 674.043 416.712C675.686 410.843 680.679 413.586 684.299 412.622C684.755 412.501 685.224 412.439 685.696 412.437H686.202C686.373 412.445 686.542 412.465 686.709 412.499C687.126 412.559 687.539 412.646 687.945 412.758H688.031L688.748 412.981L690.725 413.673L691.096 413.796L691.479 413.907L691.85 414.006L692.233 414.105L692.727 414.192H694.37C694.566 414.167 694.76 414.129 694.951 414.08L695.371 413.957C695.662 413.86 695.944 413.736 696.212 413.586C696.508 413.427 696.79 413.241 697.052 413.03C696.783 412.238 696.386 411.495 695.878 410.83L695.631 410.522C695.331 410.168 695.004 409.837 694.655 409.533C694.42 409.335 694.173 409.15 693.926 408.965C693.291 408.508 692.627 408.095 691.936 407.729L691.096 407.284C689.963 406.731 688.861 406.117 687.796 405.443C687.549 405.27 687.302 405.097 687.067 404.911C686.818 404.727 686.583 404.524 686.363 404.306C686.136 404.096 685.922 403.873 685.72 403.639L678.615 402.403L677.626 402.823L676.613 402.415C665.343 404.899 664.738 406.876 672.053 417.256Z" fill="#19151A"/>
<path d="M678.294 447.655C680.147 453.747 692.517 453.401 687.945 463.398C692.492 467.575 684.411 474.396 690.565 477.708C696.422 480.884 703.243 480.179 709.335 478.387C715.427 476.596 712.276 470.701 713.178 466.586C705.208 462.348 708.804 455.23 708.779 449.014C712.375 447.568 713.648 444.998 712.622 441.279C713.071 440.837 713.465 440.343 713.796 439.808C713.228 436.669 712.906 433.419 710.534 430.923L709.706 431.059C709.162 431.133 708.631 431.183 708.124 431.207C707.713 431.231 707.3 431.231 706.888 431.207H706.073L705.43 431.133L704.812 431.022C704.516 431.022 704.219 430.899 703.923 430.824L703.231 430.614C702.616 430.406 702.021 430.145 701.451 429.836C701.285 429.755 701.124 429.664 700.969 429.564C700.748 429.44 700.533 429.304 700.327 429.156C700.045 428.977 699.773 428.783 699.511 428.575C699.201 428.341 698.903 428.09 698.621 427.822C698.485 427.698 698.337 427.562 698.201 427.414C698.065 427.266 697.67 426.882 697.423 426.611C697.176 426.339 696.916 426.042 696.681 425.746L696.212 425.14C695.965 424.819 695.717 424.485 695.483 424.139C694.828 423.188 694.247 422.174 693.617 421.136L693.135 420.271C693.024 420.074 692.912 419.888 692.814 419.691C692.678 419.519 692.529 419.358 692.369 419.209C692.283 419.124 692.187 419.049 692.084 418.986C690.564 417.96 689.23 419.752 687.796 420.024L687.488 419.765C685.535 417.404 683.607 417.133 681.667 419.765L678.751 420.407L678.578 424.535C678.677 424.772 678.759 425.015 678.825 425.264C678.752 425.016 678.665 424.773 678.566 424.535C677.678 424.376 676.763 424.47 675.926 424.806C675.089 425.143 674.364 425.708 673.833 426.438C676.514 433.259 670.2 442.008 678.294 447.655Z" fill="#19151A"/>
<path d="M676.564 402.403L677.565 402.811L678.578 402.403H676.564Z" fill="#19151A"/>
<path d="M650.539 606.408C641.958 602.885 632.485 602.155 623.465 604.32C604.719 609.003 596.279 624.858 594.932 627.416C593.284 630.711 591.637 634.006 589.989 637.301C584.243 695.677 581.191 738.445 582.191 745.909C582.439 747.664 583.094 752.187 586.529 754.794C588.1 755.905 589.968 756.521 591.892 756.561C598.948 754.646 605.386 758.501 612.22 758.748L623.848 758.316C631.176 754.238 632.337 746.972 633.079 739.78C634.747 723.481 636.959 707.441 644.027 692.279C647.22 684.938 649.053 677.08 649.44 669.084C650.008 661.052 653.27 653.687 660.919 649.313L671.559 648.917L685.881 649.078L714.636 647.694C725.758 637.067 736.521 626.291 736.014 609.251C721.606 616.541 705.554 614.403 690.836 613.773C678.084 613.217 663.218 616.245 651.713 606.359L650.539 606.408Z" fill="#19151A"/>
<path d="M610.341 770.043L623.786 769.734C623.786 765.928 623.786 762.11 623.786 758.304L612.158 758.736C611.046 762.419 607.45 765.693 610.341 770.043Z" fill="#19151A"/>
<path d="M651.713 606.334C663.218 616.22 678.084 613.168 690.836 613.749C705.554 614.379 721.606 616.517 736.027 609.226C740.043 600.638 736.62 590.838 740.389 582.213C725.214 562.318 703.527 558.116 680.37 557.412C673.116 557.19 665.862 556.844 658.621 556.547L650.947 603.616C651.207 604.505 651.466 605.42 651.713 606.334Z" fill="#19151A"/>
<path d="M630.385 504.498C623.131 516.324 636.279 519.92 639.677 527.458C644.237 532.216 648.426 533.291 651.837 526.222L630.385 504.498Z" fill="#19151A"/>
<path d="M738.857 564.085C739.224 564.015 739.595 563.97 739.969 563.949C762.434 564.097 762.434 564.097 760.642 541.249C750.695 544.177 740.636 548.663 731.652 539C714.488 531.474 693.505 529.658 685.572 508.28C683.298 502.188 676.49 508.28 673.079 503.868C672.177 502.632 669.953 505.573 669.804 507.365C669.421 511.826 668.396 516.744 673.165 519.722C692.109 531.573 708.816 546.748 728.909 556.881C732.591 558.759 736.768 559.995 738.857 564.085Z" fill="#19151A"/>
<path d="M731.652 539C740.636 548.614 750.695 544.177 760.642 541.249C766.821 537.702 767.451 532.982 763.583 527.322L731.652 539Z" fill="#19151A"/>
<path d="M591.744 769.969C595.364 770.055 598.664 769.747 601.629 773.293C603.483 775.517 604.953 776.321 606.164 776.185C608.166 775.95 609.402 773.132 610.354 770.006C607.462 765.656 611.058 762.382 612.232 758.699C605.411 758.452 598.96 754.609 591.904 756.524L591.744 769.969Z" fill="#19151A"/>
<path d="M696.187 413.685C696.484 413.526 696.765 413.34 697.027 413.129C696.76 413.332 696.479 413.518 696.187 413.685Z" fill="#19151A"/>
<path d="M695.347 414.056C695.638 413.958 695.919 413.834 696.187 413.685C695.915 413.827 695.635 413.951 695.347 414.056Z" fill="#19151A"/>
<path d="M673.783 426.438C674.314 425.708 675.04 425.143 675.877 424.806C676.713 424.47 677.628 424.376 678.516 424.535L678.739 420.37L681.667 419.728C683.607 417.071 685.535 417.343 687.488 419.728L687.796 419.987C689.23 419.715 690.564 417.923 692.084 418.949C692.187 419.012 692.283 419.087 692.369 419.172C692.529 419.321 692.678 419.482 692.813 419.653C692.912 419.851 693.024 420.037 693.135 420.234L693.617 421.099C694.21 422.137 694.852 423.151 695.483 424.102C695.717 424.448 695.965 424.782 696.212 425.103L696.681 425.708C696.916 426.005 697.163 426.289 697.423 426.573L698.201 427.377C698.337 427.525 698.485 427.661 698.621 427.785C698.757 427.908 699.215 428.304 699.511 428.538C699.771 428.736 700.043 428.934 700.327 429.119C700.533 429.267 700.748 429.403 700.969 429.527C701.124 429.627 701.285 429.718 701.451 429.799C702.021 430.108 702.616 430.369 703.231 430.577L703.923 430.787C704.219 430.861 704.516 430.936 704.812 430.985L705.43 431.096L706.073 431.17H706.888C707.3 431.194 707.713 431.194 708.124 431.17C708.631 431.17 709.162 431.096 709.706 431.022L710.534 430.886C709.669 427.179 707.148 424.708 704.503 422.236C703.993 420.256 703.055 418.412 701.755 416.834C700.455 415.256 698.824 413.983 696.978 413.104C696.715 413.315 696.434 413.501 696.138 413.66C695.87 413.81 695.588 413.934 695.297 414.031L694.877 414.154C694.686 414.203 694.492 414.241 694.296 414.266H692.653L692.159 414.179L691.776 414.08L691.405 413.981L691.022 413.87L690.651 413.747L688.674 413.055L687.957 412.832H687.871C687.465 412.72 687.052 412.633 686.635 412.573C686.468 412.539 686.298 412.519 686.128 412.511H685.622C685.15 412.513 684.681 412.575 684.225 412.696C680.605 413.66 675.575 410.917 673.969 416.787C673.301 416.947 672.634 417.12 671.979 417.33C672.226 420.395 671.164 423.768 673.783 426.438Z" fill="#19151A"/>
<path d="M599.492 786.577C614.258 782.722 614.048 782.03 610.391 770.142L599.492 786.577Z" fill="#19151A"/>
<path d="M610.306 167.94C609.881 168.512 609.493 169.11 609.143 169.73C592.056 196.523 582.165 226.222 573.784 256.443C573.679 256.839 573.563 257.234 573.458 257.606L589.464 257.757C589.581 257.269 589.685 256.78 589.801 256.292C595.999 228.484 605.18 201.426 617.187 175.589C618.268 173.264 618.349 168.963 622.546 170.718C625.731 172.067 629.008 174.38 627.799 178.936C627.056 181.703 626.161 184.423 625.335 187.166C618.361 210.471 611.991 233.917 609.248 258.175L613.095 259.082H616.966L628.137 258.036C627.96 257.675 627.911 257.266 627.997 256.873C627.125 234.521 630.915 212.703 634.658 190.781C636.006 182.877 639.005 179.262 647.025 183.807C652.651 172.183 652.837 159.129 655.79 146.808C656.755 141.976 658.452 137.319 660.823 132.999C662.101 125.095 663.229 117.109 664.717 109.205C665.623 104.381 664.461 100.964 659.683 99.1507L640.667 96.3029C632.867 99.9295 634.32 108.054 632.298 114.285C630.403 120.097 628.264 123.781 621.499 121.794C622.662 125.63 625.405 129.442 619.396 132.255C609.678 136.707 602.413 132.557 602.053 121.864L591.591 123.677L570.099 148.889C569.983 154.786 569.863 160.679 569.739 166.568C575.783 157.641 581.595 148.645 587.791 139.88C589.488 137.486 591.092 132.36 594.416 134.464C595.327 135.063 596.107 135.84 596.712 136.747C597.316 137.655 597.732 138.674 597.935 139.745C598.138 140.817 598.123 141.918 597.892 142.983C597.661 144.049 597.218 145.057 596.59 145.948C587.066 161.067 577.565 176.201 568.088 191.35C563.66 200.649 565.764 210.611 565.496 220.317C577.027 200.649 588.465 180.889 600.193 161.361C601.623 159.036 602.088 152.945 607.33 156.467C611.201 159.06 614.618 162.756 610.306 167.94Z" fill="#19151A"/>
<path d="M623.382 98.7554C631.077 95.8843 643.492 81.1803 642.992 75.5079C642.143 65.8485 625.916 51.8768 614.781 51.2142C596.706 50.1565 587.767 57.4097 585.338 75.0197C584.989 77.5769 586.233 79.0415 588.511 79.8552C595.206 76.6354 601.646 74.9848 606.633 82.6798L611.038 87.8988C615.49 91.1651 623.441 90.3747 623.382 98.7554Z" fill="#19151A"/>
<path d="M640.667 96.3029L659.683 99.1507C666.251 72.1254 664.554 44.6004 664.716 17.1799C664.751 11.0077 663.891 5.78863 657.649 3.04542C655.941 2.3015 652.86 2.31312 653 3.69635C653.511 9.50823 644.863 14.0531 651.268 20.6438C655.638 25.1306 654.743 31.326 653.86 36.9752C650.71 57.0262 647.2 76.9958 640.667 96.3029Z" fill="#19151A"/>
<path d="M518.129 48.529C527.544 68.8706 535.565 89.9328 549.909 107.671C551.687 109.879 553.396 112.181 555.081 114.436C560.556 112.227 564.38 108.194 567.553 103.382C557.185 87.6313 544.689 73.4852 535.1 57.1771C530.59 49.4822 525.592 42.0662 522.86 33.5227C522.186 31.4072 522.267 28.0363 518.28 29.4312C518.249 35.7932 518.199 42.1592 518.129 48.529Z" fill="#19151A"/>
<path d="M588.988 94.5478C589.081 102.15 590.743 108.822 599.031 111.716C604.482 113.657 602.018 118.156 602.099 121.805C602.46 132.499 609.724 136.649 619.442 132.197C625.451 129.442 622.755 125.63 621.546 121.736C619.663 113.855 617.164 105.916 623.441 98.6974C623.441 90.3748 615.49 91.1651 611.038 87.8988C607.551 91.5254 603.436 93.0715 599.472 92.5485C599.254 92.526 599.036 92.491 598.821 92.4439C598.271 92.3386 597.727 92.1989 597.194 92.0254L596.52 91.7581C596.276 91.6651 596.032 91.5605 595.799 91.4442C595.567 91.328 595.323 91.2118 595.09 91.0723C594.437 90.7248 593.812 90.3284 593.219 89.8866C592.396 89.2357 591.637 88.5078 590.952 87.713C590.806 87.821 590.67 87.9416 590.545 88.0733C590.178 88.4001 589.879 88.7948 589.662 89.2357L589.522 89.5612C589.485 89.6597 589.454 89.7607 589.429 89.8634C589.429 89.9796 589.36 90.1075 589.336 90.2237C589.302 90.3734 589.275 90.5247 589.255 90.677C589.255 90.8049 589.255 90.9444 589.255 91.0839V91.5256C589.255 91.6651 589.255 91.8046 589.255 91.944V92.9088C589.255 93.0251 589.255 93.1297 589.255 93.2343C589.198 93.678 589.109 94.117 588.988 94.5478Z" fill="#19151A"/>
<path d="M488.047 8.4389C488.047 4.04512 489.674 2.35967 494.266 1.87147C516.049 -0.441654 517.246 0.488245 517.664 21.9922C517.664 24.4797 518.059 26.9672 518.269 29.4314C518.199 35.7935 518.137 42.1594 518.083 48.5293C510.434 55.5035 501.705 53.6437 492.871 51.7839C488.814 50.9237 487.977 48.3898 488 44.8097C488.128 32.6861 488.163 20.5625 488.047 8.4389ZM496.439 45.1351C499.164 46.1474 502.153 46.2006 504.913 45.2862L508.877 45.9836C512.248 47.3785 513.666 45.6117 513.526 42.6128C513.119 33.9066 515.061 25.0725 512.271 16.4709C506.18 12.7746 500.147 11.3332 494.335 17.0405C494.219 18.3772 494.103 19.7256 493.975 21.0739C493.894 21.7597 493.801 22.4572 493.719 23.143C493.092 27.9668 492.336 32.7907 492.115 37.6378C491.976 40.6832 490.569 45.2165 496.439 45.1351Z" fill="#19151A"/>
<path d="M576.469 400.392C576.655 403.089 574.818 404.158 572.738 405.042C578.189 412.283 569.065 407.785 568.007 410.563C567.135 412.888 561.102 412.469 561.765 416.596C562.428 420.722 566.845 420.966 570.39 421.303C582.479 422.466 587.547 418.711 592.58 405.111C589.987 404.449 586.837 404.519 586.768 400.601L576.469 400.392Z" fill="#19151A"/>
<path d="M528.637 408.575C522.628 410.528 512.213 409.296 512.922 417.258C513.515 423.884 523.593 419.583 529.253 421.268C532.264 422.152 536.39 422.756 539.366 419.746C543.864 416.096 542.853 412.365 539.529 408.61L528.637 408.575Z" fill="#19151A"/>
<path d="M556.72 132.72L560.672 135.231C566.414 125.932 574.144 118.539 582.595 111.786C582.188 107.799 578.991 105.73 576.539 103.161C572.296 113.692 560.358 116.645 554.454 125.513L556.72 132.72Z" fill="#19151A"/>
<path d="M582.607 111.786C574.156 118.539 566.426 125.967 560.684 135.231C561.277 138.602 562.823 141.17 566.496 141.938C572.947 133.569 578.259 124.188 587.419 118.132C587.093 115.029 585.164 113.18 582.607 111.786Z" fill="#19151A"/>
<path d="M566.484 141.949C566.564 143.291 566.931 144.6 567.561 145.787C568.191 146.974 569.068 148.012 570.134 148.831L591.603 123.619C591.395 122.425 590.899 121.3 590.158 120.342C589.416 119.384 588.452 118.622 587.349 118.121C578.236 124.188 572.924 133.569 566.484 141.949Z" fill="#19151A"/>
<path d="M554.442 125.513C560.37 116.644 572.308 113.692 576.527 103.161C573.482 100.929 570.541 103.486 567.53 103.382C564.38 108.194 560.556 112.227 555.058 114.436C553.965 118.121 548.026 121.445 554.442 125.513Z" fill="#19151A"/>
<path d="M539.529 408.61L539.808 404.635L539.459 400.776L526.928 400.276C526.801 401.752 526.673 403.24 526.533 404.728C527.242 406.006 527.94 407.297 528.637 408.575L539.529 408.61Z" fill="#19151A"/>
<path d="M606.633 82.6798C601.646 74.9848 595.206 76.6354 588.511 79.8552C588.407 81.9126 588.302 83.9701 588.209 86.0159L591.092 85.8997C595.764 82.4125 601.53 84.1211 606.633 82.6798Z" fill="#19151A"/>
<path d="M591.092 85.8997L588.209 86.0159C586.558 89.0381 586.523 91.8978 588.976 94.548C589.429 92.2232 588.627 89.4916 590.987 87.7016C591.219 87.1288 591.256 86.4954 591.092 85.8997Z" fill="#19151A"/>
<path d="M627.997 256.908C631.903 254.502 632.019 250.399 632.542 246.563C635.39 225.199 642.643 204.846 647.025 183.795C639.005 179.262 636.006 182.877 634.657 190.769C630.915 212.703 627.125 234.556 627.997 256.908Z" fill="#19151A"/>
<path d="M554.093 253.84C554.301 255.066 554.82 256.218 555.602 257.185C556.384 258.152 557.401 258.901 558.557 259.361L573.458 257.664C573.563 257.269 573.679 256.873 573.784 256.502C582.165 226.222 592.056 196.523 609.12 169.73C609.47 169.11 609.858 168.512 610.283 167.94C614.595 162.756 611.178 159.06 607.319 156.467C602.076 152.98 601.611 158.978 600.182 161.361C588.465 180.889 577.027 200.649 565.496 220.34C565.204 223.941 563.812 227.366 561.509 230.15C559.44 238.159 554.582 245.319 554.093 253.84Z" fill="#19151A"/>
<path d="M589.464 257.815L608.736 259.024L609.201 258.234C611.945 233.975 618.28 210.576 625.289 187.224C626.114 184.481 627.009 181.761 627.753 178.994C628.915 174.438 625.684 172.125 622.499 170.776C618.338 169.021 618.221 173.345 617.14 175.647C605.134 201.484 595.952 228.542 589.755 256.35C589.732 256.839 589.58 257.327 589.464 257.815Z" fill="#19151A"/>
<path d="M568.088 191.35C577.581 176.224 587.081 161.09 596.59 145.948C597.216 145.055 597.657 144.045 597.886 142.978C598.114 141.911 598.126 140.809 597.919 139.738C597.713 138.666 597.294 137.647 596.686 136.741C596.078 135.835 595.294 135.061 594.381 134.464C591.057 132.36 589.453 137.486 587.756 139.88C581.595 148.645 575.783 157.641 569.75 166.51C566.31 174.6 567.368 182.993 568.088 191.35Z" fill="#19151A"/>
<path d="M561.532 230.139C563.835 227.354 565.227 223.93 565.519 220.328C560.544 222.13 561.521 226.338 561.532 230.139Z" fill="#19151A"/>
<path d="M591.092 85.8997C591.256 86.4954 591.219 87.1288 590.987 87.7016C596.706 94.2574 604.843 94.3384 611.038 87.8988L606.633 82.6566C601.53 84.1211 595.764 82.4125 591.092 85.8997Z" fill="#19151A"/>
<path d="M496.439 45.1351C499.164 46.1474 502.153 46.2006 504.913 45.2862L508.877 45.9836C512.248 47.3785 513.666 45.6117 513.526 42.6128C513.119 33.9066 515.061 25.0725 512.271 16.4709C506.18 12.7746 500.147 11.3332 494.335 17.0405L493.987 21.074C493.905 21.7598 493.812 22.4572 493.719 23.143C493.092 27.9668 492.336 32.7907 492.115 37.6378C491.976 40.6832 490.569 45.2165 496.439 45.1351Z" fill="#19151A"/>
<path d="M616.966 259.152L628.09 258.117C632.519 261.604 628.927 265.185 627.939 268.579C625.173 278.145 625.242 283.539 610.085 289.211L606.005 290.025C592.58 291.082 581.677 299.975 568.414 301.985C563.369 302.753 562.916 307.681 565.333 312.389C569.111 319.758 572.203 327.5 571.482 335.962C571.116 339.892 571.564 343.856 572.798 347.606C574.032 351.356 576.025 354.811 578.654 357.756C587.756 368.508 585.082 383.143 590.894 394.987C592.057 397.312 589.151 399.369 586.849 400.59L576.492 400.392C571.924 399.555 569.123 396.8 566.798 392.802C556.906 375.796 547.142 358.779 541.354 339.821C537.75 327.999 533.938 316.248 530.055 303.985C525.499 313.737 526.94 322.42 529.718 331.673C535.658 351.433 532.624 372.751 540.18 392.349C541.098 394.731 539.808 397.951 539.54 400.776L527.01 400.276C522.116 399.683 521.419 395.731 519.78 392.058C506.994 363.394 498.427 333.66 496.323 302.23C496.323 302.23 496.939 283.969 505.355 275.088C512.329 267.707 532.09 261.14 535.577 258.815L546.329 254.502C551.292 254.13 549.211 254.212 554.175 253.84" fill="#19151A"/>
<path d="M603.68 258.698C605.273 258.849 607.005 258.954 608.818 259.024L603.68 258.698Z" fill="#19151A"/>
<path d="M48.787 531.086C37.9202 532.079 27.0424 529.306 17.9776 523.231C12.2965 519.286 4.17722 515.054 2.22217 508.556C1.13438 504.999 0.767333 501.261 1.14253 497.56C1.51774 493.86 2.62764 490.271 4.40723 487.005C7.30531 481.807 9.37537 476.493 13.7225 471.951C21.9452 463.36 42.5883 458.219 53.4906 462.222C59.7353 464.522 60.5403 471.732 67.222 474.297C71.5921 475.987 67.567 486.269 68.671 488.684C72.6616 497.344 64.9794 504.14 67.6015 511.822C69.3381 516.871 63.8179 517.929 61.5178 520.689C59.7238 522.851 54.7786 521.816 55.3767 526.589C51.8576 526.163 51.133 529.866 48.787 531.086Z" fill="#19151A"/>
<path d="M219.728 526.278C210.263 535.168 207.077 546.036 207.514 558.479C206.364 565.793 204.605 572.97 204.363 580.479C204.179 586.011 201.695 590.933 194.622 590.692L166.332 562.665C164.722 556.915 171.472 551.303 166.401 545.587C166.401 542.873 166.343 540.148 166.32 537.422C173.646 541.447 178.005 548.347 182.996 554.673C185.296 557.582 186.825 561.964 191.897 560.423C196.187 559.1 197.279 555.282 198.349 551.464C201.201 541.309 202.788 530.878 206.18 520.793C207.721 516.193 210.263 514.145 213.081 513.628C213.774 513.495 214.481 513.449 215.185 513.49C216.959 513.632 218.691 514.104 220.291 514.881C225.961 517.458 222.833 523.369 219.728 526.278Z" fill="#19151A"/>
<path d="M166.332 545.587C153.198 557.456 138.869 567.265 122.746 573.97C120.158 575.04 117.536 576.029 114.856 576.937L112.844 577.604C111.498 578.041 110.141 578.455 108.761 578.846C108.531 572.038 108.297 565.23 108.06 558.422C108.06 556.375 108.06 554.328 108.06 552.281C112.556 551.418 117.11 550.786 121.538 549.659C130.738 547.358 133.337 539.412 127.288 531.937C126 530.326 123.93 529.349 123.838 526.922L136.419 523.472C136.316 527.198 128.726 531.235 136.27 534.467C138.517 535.435 140.949 535.899 143.394 535.828C145.84 535.756 148.24 535.15 150.427 534.053C155.475 531.442 150.427 527.152 151.508 523.783C158.845 525.738 162.031 532.132 166.24 537.445C166.332 540.148 166.332 542.873 166.332 545.587Z" fill="#19151A"/>
<path d="M69.5681 557.467C63.8179 548.451 54.5026 540.102 48.787 531.016C51.087 529.74 51.8576 526.094 55.3767 526.52C56.2967 527.014 57.6767 527.267 58.0677 528.026C67.981 545.622 81.1489 544.196 96.8123 535.939C105.127 531.557 114.81 529.786 123.884 526.83C123.884 529.268 125.989 530.28 127.334 531.856C133.36 539.32 130.784 547.232 121.584 549.578C117.156 550.728 112.602 551.337 108.106 552.188L69.5681 557.467Z" fill="#19151A"/>
<path d="M108.29 472.365C112.188 462.578 121.664 458.898 129.933 459.059C135.235 459.163 142.975 462.141 147.747 465.085C154.509 469.26 164.365 470.835 167.482 480.036C153.083 480.358 145.378 489.144 140.341 501.346C129.68 504.945 126.978 503.347 128.116 492.79C128.783 486.625 127.392 482.439 121.032 482.669C113.246 482.934 110.728 478 108.29 472.365Z" fill="#19151A"/>
<path d="M140.341 501.369C145.378 489.167 153.083 480.415 167.482 480.059C170.184 487.522 168.632 495.193 168.126 502.691C167.975 505.002 167.085 507.202 165.588 508.969C164.091 510.735 162.066 511.973 159.811 512.501C153.52 513.996 151.301 517.814 151.542 523.76C150.507 527.141 155.521 531.419 150.461 534.018C148.278 535.117 145.88 535.725 143.436 535.799C140.992 535.872 138.562 535.41 136.316 534.444C128.76 531.212 136.316 527.175 136.465 523.449L137.949 514.364C139.34 510.143 141.698 506.095 140.341 501.369Z" fill="#19151A"/>
<path d="M140.341 501.369C141.698 506.095 139.34 510.143 137.949 514.364C129.956 518.458 121.561 513.329 113.154 515.181C110.854 515.675 105.035 508.28 103.954 503.795C101.719 494.167 102.06 484.12 104.943 474.665C105.254 473.653 107.14 473.101 108.29 472.365C110.728 478 113.246 482.934 121.032 482.715C127.392 482.508 128.783 486.671 128.116 492.835C126.978 503.416 129.68 504.968 140.341 501.369Z" fill="#19151A"/>
<path d="M147.057 439.244C144.113 432.712 142.285 427.019 153.417 428.813C158.926 429.71 163.56 427.226 168.068 424.144C172.956 420.786 177.97 417.186 183.467 415.22C192.932 411.827 205.318 415.07 201.27 430.55C193.059 421.936 184.79 425.639 176.889 430.814C167.758 436.794 159.213 444.178 147.057 439.244Z" fill="#19151A"/>
<path d="M147.057 439.244C159.213 444.178 167.758 436.794 176.889 430.814C184.79 425.639 193.059 421.936 201.27 430.55C201.051 431.24 200.844 431.93 200.626 432.608C200.384 436.116 198.682 437.53 195.071 436.944C189.505 436.058 184.56 437.898 180.121 441.061C171.495 447.168 162.698 452.849 151.634 453.286C146.54 449.755 147.736 444.201 147.057 439.244Z" fill="#19151A"/>
<path d="M151.611 453.286C162.675 452.849 171.473 447.168 180.098 441.061C184.56 437.898 189.505 436.058 195.048 436.944C198.659 437.53 200.361 436.116 200.603 432.608C205.605 437.036 201.477 443.027 204.191 448.341C193.082 444.292 185.031 448.858 177.119 454.482C171.369 458.587 164.906 461.566 157.672 460.692C154.084 460.266 147.563 460.657 151.611 453.286Z" fill="#19151A"/>
<path d="M203.064 820.825H215.139C215.358 822.998 215.588 825.183 215.806 827.368C214.656 832.463 220.165 832.29 221.936 835.085C216.749 841.33 210.964 833.256 205.617 835.752L203.064 820.825Z" fill="#19151A"/>
<path d="M131.371 838.075L132.728 821.054C136.178 822.032 140.18 821.894 142.917 824.907C145.459 828.944 145.459 830.094 149.219 835.648C152.623 840.639 131.371 838.075 131.371 838.075Z" fill="#19151A"/>
<path d="M142.917 824.861C140.18 821.848 136.235 821.986 132.728 821.008C132.728 821.008 140.387 820.824 142.917 824.861Z" fill="#19151A"/>
<path d="M205.617 835.775C210.964 833.279 216.749 841.353 221.936 835.108C223.346 835.14 224.75 835.321 226.122 835.648C228.698 836.545 232.332 837.028 231.976 840.617C231.596 844.423 227.95 843.871 225.248 843.848C219.245 843.848 213.253 843.561 207.261 843.4L205.536 839.49C205.559 838.247 205.594 837.005 205.617 835.775Z" fill="#19151A"/>
<path d="M160.122 842.583C151.013 846.746 141.595 843.733 132.314 843.733L131.428 841.249C131.428 840.168 131.428 839.099 131.371 838.029C131.371 838.029 152.623 840.64 149.219 835.603C151.499 835.665 153.719 836.348 155.64 837.578C157.561 838.808 159.111 840.539 160.122 842.583Z" fill="#19151A"/>
<path d="M215.139 820.825H203.052C197.302 818.72 196.854 813.51 196.152 808.623C193.174 787.6 190.402 766.555 187.412 745.52C186.066 735.929 183.157 726.878 177.453 718.909C175.578 716.287 172.945 713.492 169.713 714.631C164.687 716.413 168.643 720.093 169.299 722.577C172.749 735.711 171.748 748.465 167.551 761.276C161.801 778.779 156.235 796.329 153.601 814.66C152.738 820.698 150.691 825.862 142.906 824.815C140.169 821.802 136.224 821.94 132.716 820.963C128.277 809.761 132.291 798.583 133.153 787.485C134.119 775.168 136.707 762.989 138.179 750.684C139.732 737.746 138.179 725.257 131.279 713.78C122.907 699.841 115.063 685.569 104.472 673.091C102.172 666.732 97.9049 661.591 93.6613 656.427C92.0857 653.805 88.6472 645.629 89.0612 642.524C90.0962 642.972 91.1082 643.398 92.1203 643.8C95.8234 645.974 99.4 648.481 104.127 648.009C108.485 651.988 114.316 651.08 119.422 652.609H130.094C138.306 651.77 145.7 648.17 153.451 645.709L157.408 643.03C160.099 645.686 165.32 650.723 167.539 653.15C184.502 671.688 198.59 692.251 211.241 713.941C211.159 714.261 211.148 714.596 211.207 714.921C211.267 715.247 211.396 715.556 211.586 715.827C216.485 728.132 218.049 740.897 217.842 754.123C217.543 772.454 216.818 790.82 219.371 809.106C220.038 813.625 221.05 818.594 215.139 820.825Z" fill="#19151A"/>
<path d="M166.332 562.665C159.593 579.145 154.417 596.016 153.681 613.968C138.535 627.263 120.94 637.049 104.23 648.067C99.5034 648.538 95.9268 646.031 92.2237 643.858C91.3727 643.363 90.5216 642.892 89.6361 642.466C87.7616 638.015 87.5661 633.542 89.9006 629.229C98.5202 613.396 104.891 596.438 108.83 578.846C110.21 578.455 111.567 578.041 112.913 577.604L114.925 576.937C117.605 576.029 120.227 575.04 122.815 573.97C138.915 567.265 153.267 557.456 166.401 545.587C171.426 551.303 164.676 556.961 166.332 562.665Z" fill="#19151A"/>
<path d="M108.83 578.835C110.21 578.444 111.567 578.03 112.913 577.604C111.567 578.041 110.21 578.455 108.83 578.846L108.83 578.835Z" fill="#19151A"/>
<path d="M157.707 642.938L157.465 643.099L153.509 645.778C145.758 648.182 138.363 651.781 130.152 652.678H119.48C114.373 651.206 108.543 652.115 104.184 648.078C120.917 637.061 138.513 627.274 153.635 613.98C154.141 615.245 155.395 616.774 155.05 617.717C151.772 626.607 154.038 634.818 157.707 642.938Z" fill="#19151A"/>
<path d="M215.139 513.421C214.435 513.38 213.728 513.426 213.035 513.559L199.556 447.064L199.476 446.685H200.246L215.139 513.421Z" fill="#19151A"/>
<path d="M630.385 504.498L651.824 526.272C657.534 523.924 658.003 527.396 658.102 531.709C658.188 539.976 658.436 548.231 658.609 556.498C665.862 556.794 673.116 557.153 680.37 557.375C703.515 558.079 725.202 562.318 740.389 582.164C742.057 575.985 739.536 570.091 738.844 564.073C736.768 559.97 732.579 558.734 728.897 556.881C708.816 546.735 692.097 531.561 673.165 519.71C668.383 516.72 669.458 511.801 669.792 507.353C669.94 505.573 672.164 502.669 673.079 503.856C676.477 508.329 683.298 502.188 685.56 508.28C693.505 529.645 714.476 531.462 731.652 538.987L763.596 527.31C762.644 523.603 761.693 519.759 760.754 515.991L746.901 481.39L729.601 472.283C728.291 482.712 721.766 489.583 712.98 493.797C692.974 503.497 676.564 492.351 673.437 467.476C662.242 466.364 659.177 478.313 650.712 481.588L630.484 500.297L630.385 504.498ZM630.385 504.498L630.496 500.309C626.356 494.316 629.025 487.717 628.766 481.378C628.543 469.799 625.627 457.578 635.933 448.359C641.296 443.565 636.563 438.473 636.551 433.617C636.551 431.146 633.029 430.997 630.854 431.776C625.911 433.555 622.352 436.781 621.772 442.366C620.458 455.585 617.934 468.656 614.234 481.415C613.566 492.734 612.8 504.029 612.294 515.348C612.078 518.754 612.344 522.174 613.085 525.506C616.087 537.739 623.613 540.174 633.437 532.339C635.513 530.696 637.626 529.089 639.714 527.396C636.267 519.92 623.119 516.324 630.385 504.498ZM630.385 504.498C623.131 516.324 636.279 519.92 639.677 527.458C644.237 532.216 648.426 533.291 651.837 526.222L630.385 504.498ZM713.178 466.586L729.576 472.234C728.266 482.626 721.742 489.497 712.956 493.748C692.925 503.448 676.514 492.302 673.413 467.427L678.318 465.054C678.898 464.301 679.711 463.761 680.631 463.522C681.551 463.283 682.524 463.356 683.397 463.732L687.895 463.435C692.443 467.612 684.336 474.433 690.515 477.745C696.372 480.896 703.379 480.155 709.286 478.425C715.192 476.695 712.227 470.701 713.178 466.586ZM713.178 466.586C712.276 470.701 715.427 476.596 709.335 478.387C703.243 480.179 696.422 480.884 690.565 477.708C684.411 474.396 692.492 467.575 687.945 463.398C692.517 453.401 680.147 453.747 678.294 447.655C670.2 442.008 676.514 433.259 673.833 426.438C674.364 425.708 675.089 425.143 675.926 424.806C676.763 424.47 677.678 424.376 678.566 424.535C678.665 424.773 678.752 425.016 678.825 425.264C678.759 425.015 678.677 424.772 678.578 424.535L678.751 420.407L681.667 419.765C683.607 417.133 685.535 417.404 687.488 419.765L687.796 420.024C689.23 419.752 690.564 417.96 692.084 418.986C692.187 419.049 692.283 419.124 692.369 419.209C692.529 419.358 692.678 419.519 692.814 419.691C692.912 419.888 693.024 420.074 693.135 420.271L693.617 421.136C694.247 422.174 694.828 423.188 695.483 424.139C695.717 424.485 695.965 424.819 696.212 425.14L696.681 425.746C696.916 426.042 697.176 426.339 697.423 426.611C697.67 426.882 698.065 427.266 698.201 427.414C698.337 427.562 698.485 427.698 698.621 427.822C698.903 428.09 699.201 428.341 699.511 428.575C699.773 428.783 700.045 428.977 700.327 429.156C700.533 429.304 700.748 429.44 700.969 429.564C701.124 429.664 701.285 429.755 701.451 429.836C702.021 430.145 702.616 430.406 703.231 430.614L703.923 430.824C704.219 430.899 704.516 431.022 704.812 431.022L705.43 431.133L706.073 431.207H706.888C707.3 431.231 707.713 431.231 708.124 431.207C708.631 431.183 709.162 431.133 709.706 431.059L710.534 430.923C712.906 433.419 713.228 436.669 713.796 439.808C713.465 440.343 713.071 440.837 712.622 441.279C713.648 444.998 712.375 447.568 708.779 449.014C708.804 455.23 705.208 462.348 713.178 466.586ZM695.878 410.83L695.581 410.534C695.281 410.18 694.955 409.85 694.605 409.545C694.37 409.348 694.123 409.15 693.876 408.977C693.242 408.52 692.577 408.107 691.887 407.741L691.046 407.296C689.913 406.744 688.812 406.129 687.747 405.455C687.5 405.282 687.253 405.109 687.018 404.924C686.769 404.739 686.534 404.537 686.314 404.318C686.087 404.108 685.872 403.885 685.671 403.651C695.211 398.053 708.235 401.575 715.983 411.819C719.027 415.968 720.482 421.071 720.086 426.202C719.689 431.333 717.466 436.151 713.821 439.783C713.252 436.645 712.931 433.37 710.558 430.899C709.693 427.191 707.173 424.72 704.528 422.249C704.03 420.279 703.109 418.442 701.828 416.865C700.548 415.287 698.939 414.008 697.114 413.117C696.834 412.29 696.416 411.517 695.878 410.83ZM695.878 410.83C696.386 411.495 696.783 412.238 697.052 413.03C696.79 413.241 696.508 413.427 696.212 413.586C695.944 413.736 695.662 413.86 695.371 413.957L694.951 414.08C694.76 414.129 694.566 414.167 694.37 414.192H692.727L692.233 414.105L691.85 414.006L691.479 413.907L691.096 413.796L690.725 413.673L688.748 412.981L688.031 412.758H687.945C687.539 412.646 687.126 412.559 686.709 412.499C686.542 412.465 686.373 412.445 686.202 412.437H685.696C685.224 412.439 684.755 412.501 684.299 412.622C680.679 413.586 675.686 410.843 674.043 416.712C673.375 416.873 672.708 417.046 672.053 417.256C664.738 406.876 665.343 404.899 676.613 402.415L677.626 402.823L678.615 402.403L685.72 403.639C685.922 403.873 686.136 404.096 686.363 404.306C686.583 404.524 686.818 404.727 687.067 404.911C687.302 405.097 687.549 405.27 687.796 405.443C688.861 406.117 689.963 406.731 691.096 407.284L691.936 407.729C692.627 408.095 693.291 408.508 693.926 408.965C694.173 409.15 694.42 409.335 694.655 409.533C695.004 409.837 695.331 410.168 695.631 410.522L695.878 410.83ZM623.786 769.734C624.524 769.849 625.228 770.123 625.85 770.537C625.751 775.307 625.973 780.176 621.648 783.587C607.171 787.509 591.919 787.573 577.409 783.772C574.678 773.627 586.418 776.259 588.939 770.772L591.731 769.969C595.364 770.055 598.664 769.746 601.617 773.293C606.56 779.224 608.834 774.986 610.341 770.043M623.786 769.734L610.341 770.043M623.786 769.734C623.786 765.928 623.786 762.11 623.786 758.304L612.158 758.736C611.046 762.419 607.45 765.693 610.341 770.043M671.559 648.893L660.919 649.288M760.642 541.249C762.434 564.097 762.434 564.097 739.969 563.949C739.595 563.97 739.224 564.015 738.857 564.085C736.768 559.995 732.591 558.759 728.909 556.881C708.816 546.748 692.109 531.573 673.165 519.722C668.396 516.744 669.421 511.826 669.804 507.365C669.953 505.573 672.177 502.632 673.079 503.868C676.49 508.28 683.298 502.188 685.572 508.28C693.505 529.658 714.488 531.474 731.652 539M760.642 541.249C750.695 544.177 740.636 548.663 731.652 539M760.642 541.249C750.695 544.177 740.636 548.614 731.652 539M760.642 541.249C766.821 537.702 767.451 532.982 763.583 527.322L731.652 539M696.187 413.685C696.484 413.526 696.765 413.34 697.027 413.129C696.76 413.332 696.479 413.518 696.187 413.685ZM696.187 413.685C695.919 413.834 695.638 413.958 695.347 414.056C695.635 413.951 695.915 413.827 696.187 413.685ZM659.683 99.1507C664.461 100.964 665.623 104.381 664.717 109.205C663.229 117.109 662.101 125.095 660.823 132.999C658.452 137.319 656.755 141.976 655.79 146.808C652.837 159.129 652.651 172.183 647.025 183.807C639.005 179.262 636.006 182.877 634.658 190.781C630.915 212.703 627.125 234.521 627.997 256.873C627.911 257.266 627.96 257.675 628.137 258.036L616.966 259.082H613.095L609.248 258.175C611.991 233.917 618.361 210.471 625.335 187.166C626.161 184.423 627.056 181.703 627.799 178.936C629.008 174.38 625.731 172.067 622.546 170.718C618.349 168.963 618.268 173.264 617.187 175.589C605.18 201.426 595.999 228.484 589.801 256.292C589.685 256.78 589.581 257.269 589.464 257.757L573.458 257.606C573.563 257.234 573.679 256.839 573.784 256.443C582.165 226.222 592.056 196.523 609.143 169.73C609.493 169.11 609.881 168.512 610.306 167.94C614.618 162.756 611.201 159.06 607.33 156.467C602.088 152.945 601.623 159.036 600.193 161.361C588.465 180.889 577.027 200.649 565.496 220.317C565.764 210.611 563.66 200.649 568.088 191.35M659.683 99.1507L640.667 96.3029M659.683 99.1507C666.251 72.1254 664.554 44.6004 664.716 17.1799C664.751 11.0077 663.891 5.78863 657.649 3.04542C655.941 2.3015 652.86 2.31312 653 3.69635C653.511 9.50823 644.863 14.0531 651.268 20.6438C655.638 25.1306 654.743 31.326 653.86 36.9752C650.71 57.0262 647.2 76.9958 640.667 96.3029M640.667 96.3029C632.867 99.9295 634.32 108.054 632.298 114.285C630.403 120.097 628.264 123.781 621.499 121.794C622.662 125.63 625.405 129.442 619.396 132.255C609.678 136.707 602.413 132.557 602.053 121.864L591.591 123.677L570.099 148.889C569.983 154.786 569.863 160.679 569.739 166.568C575.783 157.641 581.595 148.645 587.791 139.88C589.488 137.486 591.092 132.36 594.416 134.464C595.327 135.063 596.107 135.84 596.712 136.747C597.316 137.655 597.732 138.674 597.935 139.745C598.138 140.817 598.123 141.918 597.892 142.983C597.661 144.049 597.218 145.057 596.59 145.948M596.59 145.948C587.066 161.067 577.565 176.201 568.088 191.35M596.59 145.948C587.081 161.09 577.581 176.224 568.088 191.35M596.59 145.948C597.216 145.055 597.657 144.045 597.886 142.978C598.114 141.911 598.126 140.809 597.919 139.738C597.713 138.666 597.294 137.647 596.686 136.741C596.078 135.835 595.294 135.061 594.381 134.464C591.057 132.36 589.453 137.486 587.756 139.88C581.595 148.645 575.783 157.641 569.75 166.51C566.31 174.6 567.368 182.993 568.088 191.35M588.511 79.8552C586.233 79.0415 584.989 77.5769 585.338 75.0197C587.767 57.4097 596.706 50.1565 614.781 51.2142C625.916 51.8768 642.143 65.8485 642.992 75.5079C643.492 81.1803 631.077 95.8843 623.382 98.7554C623.441 90.3747 615.49 91.1651 611.038 87.8988M588.511 79.8552C595.206 76.6354 601.646 74.9848 606.633 82.6798M588.511 79.8552C588.407 81.9126 588.302 83.9701 588.209 86.0159M606.633 82.6798L611.038 87.8988M606.633 82.6798C601.53 84.1211 595.764 82.4125 591.092 85.8997M611.038 87.8988C615.49 91.1651 623.441 90.3748 623.441 98.6974C617.164 105.916 619.663 113.855 621.546 121.736C622.755 125.63 625.451 129.442 619.442 132.197C609.724 136.649 602.46 132.499 602.099 121.805C602.018 118.156 604.482 113.657 599.031 111.716C590.743 108.822 589.081 102.15 588.988 94.5478C589.109 94.117 589.198 93.678 589.255 93.2343C589.255 93.1297 589.255 93.0251 589.255 92.9088V91.944C589.255 91.8046 589.255 91.6651 589.255 91.5256V91.0839C589.255 90.9444 589.255 90.8049 589.255 90.677C589.275 90.5247 589.302 90.3734 589.336 90.2237C589.36 90.1075 589.429 89.9796 589.429 89.8634C589.454 89.7607 589.485 89.6597 589.522 89.5612L589.662 89.2357C589.879 88.7948 590.178 88.4001 590.545 88.0733C590.67 87.9416 590.806 87.821 590.952 87.713C591.637 88.5078 592.396 89.2357 593.219 89.8866C593.812 90.3284 594.437 90.7248 595.09 91.0723C595.323 91.2118 595.567 91.328 595.799 91.4442C596.032 91.5605 596.276 91.6651 596.52 91.7581L597.194 92.0254C597.727 92.1989 598.271 92.3386 598.821 92.4439C599.036 92.491 599.254 92.526 599.472 92.5485C603.436 93.0715 607.551 91.5254 611.038 87.8988ZM611.038 87.8988C604.843 94.3384 596.706 94.2574 590.987 87.7016M611.038 87.8988L606.633 82.6566C601.53 84.1211 595.764 82.4125 591.092 85.8997M494.335 17.0405C500.147 11.3332 506.18 12.7746 512.271 16.4709C515.061 25.0725 513.119 33.9066 513.526 42.6128C513.666 45.6117 512.248 47.3785 508.877 45.9836L504.913 45.2862C502.153 46.2006 499.164 46.1474 496.439 45.1351C490.569 45.2165 491.976 40.6832 492.115 37.6378C492.336 32.7907 493.092 27.9668 493.719 23.143M494.335 17.0405C494.219 18.3772 494.103 19.7256 493.975 21.0739C493.894 21.7597 493.801 22.4572 493.719 23.143M494.335 17.0405L493.987 21.074C493.905 21.7598 493.812 22.4572 493.719 23.143M528.637 408.575C522.628 410.528 512.213 409.296 512.922 417.258C513.515 423.884 523.593 419.583 529.253 421.268C532.264 422.152 536.39 422.756 539.366 419.746C543.864 416.096 542.853 412.365 539.529 408.61M528.637 408.575L539.529 408.61M528.637 408.575C527.94 407.297 527.242 406.006 526.533 404.728C526.673 403.24 526.801 401.752 526.928 400.276L539.459 400.776L539.808 404.635L539.529 408.61M588.209 86.0159L591.092 85.8997M588.209 86.0159C586.558 89.0381 586.523 91.8978 588.976 94.548C589.429 92.2232 588.627 89.4916 590.987 87.7016M591.092 85.8997C591.256 86.4954 591.219 87.1288 590.987 87.7016M610.132 289.234L606.052 290.048M616.966 259.152L628.09 258.117C632.519 261.604 628.927 265.185 627.939 268.579C625.173 278.145 625.242 283.539 610.085 289.211L606.005 290.025C592.58 291.082 581.677 299.975 568.414 301.985C563.369 302.753 562.916 307.681 565.333 312.389C569.111 319.758 572.203 327.5 571.482 335.962C571.116 339.892 571.564 343.856 572.798 347.606C574.032 351.356 576.025 354.811 578.654 357.756C587.756 368.508 585.082 383.143 590.894 394.987C592.057 397.312 589.151 399.369 586.849 400.59L576.492 400.392C571.924 399.555 569.123 396.8 566.798 392.802C556.906 375.796 547.142 358.779 541.354 339.821C537.75 327.999 533.938 316.248 530.055 303.985C525.499 313.737 526.94 322.42 529.718 331.673C535.658 351.433 532.624 372.751 540.18 392.349C541.098 394.731 539.808 397.951 539.54 400.776L527.01 400.276C522.116 399.683 521.419 395.731 519.78 392.058C506.994 363.394 498.427 333.66 496.323 302.23C496.323 302.23 496.939 283.969 505.355 275.088C512.329 267.707 532.09 261.14 535.577 258.815L546.329 254.502C551.292 254.13 549.211 254.212 554.175 253.84M166.332 562.665L194.622 590.692C201.695 590.933 204.179 586.011 204.363 580.479C204.605 572.97 206.364 565.793 207.514 558.479C207.077 546.036 210.263 535.168 219.728 526.278C222.833 523.369 225.961 517.458 220.291 514.881C218.691 514.104 216.959 513.632 215.185 513.49C214.481 513.449 213.774 513.495 213.081 513.628C210.263 514.145 207.721 516.193 206.18 520.793C202.788 530.878 201.201 541.309 198.349 551.464C197.279 555.282 196.187 559.1 191.897 560.423C186.825 561.964 185.296 557.582 182.996 554.673C178.005 548.347 173.646 541.447 166.32 537.422C166.343 540.148 166.401 542.873 166.401 545.587M166.332 562.665C164.722 556.915 171.472 551.303 166.401 545.587M166.332 562.665C159.593 579.145 154.417 596.016 153.681 613.968C138.535 627.263 120.94 637.049 104.23 648.067C99.5034 648.538 95.9268 646.031 92.2237 643.858C91.3727 643.363 90.5216 642.892 89.6361 642.466C87.7616 638.015 87.5661 633.542 89.9006 629.229C98.5202 613.396 104.891 596.438 108.83 578.846M166.332 562.665C164.676 556.961 171.426 551.303 166.401 545.587M166.401 545.587C153.267 557.456 138.915 567.265 122.815 573.97C120.227 575.04 117.605 576.029 114.925 576.937L112.913 577.604M108.29 472.365C112.188 462.578 121.664 458.898 129.933 459.059C135.235 459.163 142.975 462.141 147.747 465.085C154.509 469.26 164.365 470.835 167.482 480.036C153.083 480.358 145.378 489.144 140.341 501.346C129.68 504.945 126.978 503.347 128.116 492.79C128.783 486.625 127.392 482.439 121.032 482.669C113.246 482.934 110.728 478 108.29 472.365ZM108.29 472.365C107.14 473.101 105.254 473.653 104.943 474.665C102.06 484.12 101.719 494.167 103.954 503.795C105.035 508.28 110.854 515.675 113.154 515.181C121.561 513.329 129.956 518.458 137.949 514.364M108.29 472.365C110.728 478 113.246 482.934 121.032 482.715C127.392 482.508 128.783 486.671 128.116 492.835C126.978 503.416 129.68 504.968 140.341 501.369M140.341 501.369C145.378 489.167 153.083 480.415 167.482 480.059C170.184 487.522 168.632 495.193 168.126 502.691C167.975 505.002 167.085 507.202 165.588 508.969C164.091 510.735 162.066 511.973 159.811 512.501C153.52 513.996 151.301 517.814 151.542 523.76C150.507 527.141 155.521 531.419 150.461 534.018C148.278 535.117 145.88 535.725 143.436 535.799C140.992 535.872 138.562 535.41 136.316 534.444C128.76 531.212 136.316 527.175 136.465 523.449L137.949 514.364M140.341 501.369C141.698 506.095 139.34 510.143 137.949 514.364M147.057 439.244C144.113 432.712 142.285 427.019 153.417 428.813C158.926 429.71 163.56 427.226 168.068 424.144C172.956 420.786 177.97 417.186 183.467 415.22C192.932 411.827 205.318 415.07 201.27 430.55M147.057 439.244C159.213 444.178 167.758 436.794 176.889 430.814C184.79 425.639 193.059 421.936 201.27 430.55M147.057 439.244C147.736 444.201 146.54 449.755 151.634 453.286C162.698 452.849 171.495 447.168 180.121 441.061C184.56 437.898 189.505 436.058 195.071 436.944C198.682 437.53 200.384 436.116 200.626 432.608C200.844 431.93 201.051 431.24 201.27 430.55M215.139 820.825H203.064L205.617 835.752C210.964 833.256 216.749 841.33 221.936 835.085C220.165 832.29 214.656 832.463 215.806 827.368C215.588 825.183 215.358 822.998 215.139 820.825ZM215.139 820.825H203.052C197.302 818.72 196.854 813.51 196.152 808.623C193.174 787.6 190.402 766.555 187.412 745.52C186.066 735.929 183.157 726.878 177.453 718.909C175.578 716.287 172.945 713.492 169.713 714.631C164.687 716.413 168.643 720.093 169.299 722.577C172.749 735.711 171.748 748.465 167.551 761.276C161.801 778.779 156.235 796.329 153.601 814.66C152.738 820.698 150.691 825.862 142.906 824.815C140.169 821.802 136.224 821.94 132.716 820.963C128.277 809.761 132.291 798.583 133.153 787.485C134.119 775.168 136.707 762.989 138.179 750.684C139.732 737.746 138.179 725.257 131.279 713.78C122.907 699.841 115.063 685.569 104.472 673.091C102.172 666.732 97.9049 661.591 93.6613 656.427C92.0857 653.805 88.6472 645.629 89.0612 642.524C90.0962 642.972 91.1082 643.398 92.1203 643.8C95.8234 645.974 99.4 648.481 104.127 648.009C108.485 651.988 114.316 651.08 119.422 652.609H130.094C138.306 651.77 145.7 648.17 153.451 645.709L157.408 643.03C160.099 645.686 165.32 650.723 167.539 653.15C184.502 671.688 198.59 692.251 211.241 713.941C211.159 714.261 211.148 714.596 211.207 714.921C211.267 715.247 211.396 715.556 211.586 715.827C216.485 728.132 218.049 740.897 217.842 754.123C217.543 772.454 216.818 790.82 219.371 809.106C220.038 813.625 221.05 818.594 215.139 820.825ZM108.83 578.846C110.21 578.455 111.567 578.041 112.913 577.604M108.83 578.846L108.83 578.835C110.21 578.444 111.567 578.03 112.913 577.604M676.564 402.403L677.565 402.811L678.578 402.403H676.564ZM650.539 606.408C641.958 602.885 632.485 602.155 623.465 604.32C604.719 609.003 596.279 624.858 594.932 627.416C593.284 630.711 591.637 634.006 589.989 637.301C584.243 695.677 581.191 738.445 582.191 745.909C582.439 747.664 583.094 752.187 586.529 754.794C588.1 755.905 589.968 756.521 591.892 756.561C598.948 754.646 605.386 758.501 612.22 758.748L623.848 758.316C631.176 754.238 632.337 746.972 633.079 739.78C634.747 723.481 636.959 707.441 644.027 692.279C647.22 684.938 649.053 677.08 649.44 669.084C650.008 661.052 653.27 653.687 660.919 649.313L671.559 648.917L685.881 649.078L714.636 647.694C725.758 637.067 736.521 626.291 736.014 609.251C721.606 616.541 705.554 614.403 690.836 613.773C678.084 613.217 663.218 616.245 651.713 606.359L650.539 606.408ZM651.713 606.334C663.218 616.22 678.084 613.168 690.836 613.749C705.554 614.379 721.606 616.517 736.027 609.226C740.043 600.638 736.62 590.838 740.389 582.213C725.214 562.318 703.527 558.116 680.37 557.412C673.116 557.19 665.862 556.844 658.621 556.547L650.947 603.616C651.207 604.505 651.466 605.42 651.713 606.334ZM591.744 769.969C595.364 770.055 598.664 769.747 601.629 773.293C603.483 775.517 604.953 776.321 606.164 776.185C608.166 775.95 609.402 773.132 610.354 770.006C607.462 765.656 611.058 762.382 612.232 758.699C605.411 758.452 598.96 754.609 591.904 756.524L591.744 769.969ZM673.783 426.438C674.314 425.708 675.04 425.143 675.877 424.806C676.713 424.47 677.628 424.376 678.516 424.535L678.739 420.37L681.667 419.728C683.607 417.071 685.535 417.343 687.488 419.728L687.796 419.987C689.23 419.715 690.564 417.923 692.084 418.949C692.187 419.012 692.283 419.087 692.369 419.172C692.529 419.321 692.678 419.482 692.813 419.653C692.912 419.851 693.024 420.037 693.135 420.234L693.617 421.099C694.21 422.137 694.852 423.151 695.483 424.102C695.717 424.448 695.965 424.782 696.212 425.103L696.681 425.708C696.916 426.005 697.163 426.289 697.423 426.573L698.201 427.377C698.337 427.525 698.485 427.661 698.621 427.785C698.757 427.908 699.215 428.304 699.511 428.538C699.771 428.736 700.043 428.934 700.327 429.119C700.533 429.267 700.748 429.403 700.969 429.527C701.124 429.627 701.285 429.718 701.451 429.799C702.021 430.108 702.616 430.369 703.231 430.577L703.923 430.787C704.219 430.861 704.516 430.936 704.812 430.985L705.43 431.096L706.073 431.17H706.888C707.3 431.194 707.713 431.194 708.124 431.17C708.631 431.17 709.162 431.096 709.706 431.022L710.534 430.886C709.669 427.179 707.148 424.708 704.503 422.236C703.993 420.256 703.055 418.412 701.755 416.834C700.455 415.256 698.824 413.983 696.978 413.104C696.715 413.315 696.434 413.501 696.138 413.66C695.87 413.81 695.588 413.934 695.297 414.031L694.877 414.154C694.686 414.203 694.492 414.241 694.296 414.266H692.653L692.159 414.179L691.776 414.08L691.405 413.981L691.022 413.87L690.651 413.747L688.674 413.055L687.957 412.832H687.871C687.465 412.72 687.052 412.633 686.635 412.573C686.468 412.539 686.298 412.519 686.128 412.511H685.622C685.15 412.513 684.681 412.575 684.225 412.696C680.605 413.66 675.575 410.917 673.969 416.787C673.301 416.947 672.634 417.12 671.979 417.33C672.226 420.395 671.164 423.768 673.783 426.438ZM599.492 786.577C614.258 782.722 614.048 782.03 610.391 770.142L599.492 786.577ZM518.129 48.529C527.544 68.8706 535.565 89.9328 549.909 107.671C551.687 109.879 553.396 112.181 555.081 114.436C560.556 112.227 564.38 108.194 567.553 103.382C557.185 87.6313 544.689 73.4852 535.1 57.1771C530.59 49.4822 525.592 42.0662 522.86 33.5227C522.186 31.4072 522.267 28.0363 518.28 29.4312C518.249 35.7932 518.199 42.1592 518.129 48.529ZM488.047 8.4389C488.047 4.04512 489.674 2.35967 494.266 1.87147C516.049 -0.441654 517.246 0.488245 517.664 21.9922C517.664 24.4797 518.059 26.9672 518.269 29.4314C518.199 35.7935 518.137 42.1594 518.083 48.5293C510.434 55.5035 501.705 53.6437 492.871 51.7839C488.814 50.9237 487.977 48.3898 488 44.8097C488.128 32.6861 488.163 20.5625 488.047 8.4389ZM576.469 400.392C576.655 403.089 574.818 404.158 572.738 405.042C578.189 412.283 569.065 407.785 568.007 410.563C567.135 412.888 561.102 412.469 561.765 416.596C562.428 420.722 566.845 420.966 570.39 421.303C582.479 422.466 587.547 418.711 592.58 405.111C589.987 404.449 586.837 404.519 586.768 400.601L576.469 400.392ZM556.72 132.72L560.672 135.231C566.414 125.932 574.144 118.539 582.595 111.786C582.188 107.799 578.991 105.73 576.539 103.161C572.296 113.692 560.358 116.645 554.454 125.513L556.72 132.72ZM582.607 111.786C574.156 118.539 566.426 125.967 560.684 135.231C561.277 138.602 562.823 141.17 566.496 141.938C572.947 133.569 578.259 124.188 587.419 118.132C587.093 115.029 585.164 113.18 582.607 111.786ZM566.484 141.949C566.564 143.291 566.931 144.6 567.561 145.787C568.191 146.974 569.068 148.012 570.134 148.831L591.603 123.619C591.395 122.425 590.899 121.3 590.158 120.342C589.416 119.384 588.452 118.622 587.349 118.121C578.236 124.188 572.924 133.569 566.484 141.949ZM554.442 125.513C560.37 116.644 572.308 113.692 576.527 103.161C573.482 100.929 570.541 103.486 567.53 103.382C564.38 108.194 560.556 112.227 555.058 114.436C553.965 118.121 548.026 121.445 554.442 125.513ZM627.997 256.908C631.903 254.502 632.019 250.399 632.542 246.563C635.39 225.199 642.643 204.846 647.025 183.795C639.005 179.262 636.006 182.877 634.657 190.769C630.915 212.703 627.125 234.556 627.997 256.908ZM554.093 253.84C554.301 255.066 554.82 256.218 555.602 257.185C556.384 258.152 557.401 258.901 558.557 259.361L573.458 257.664C573.563 257.269 573.679 256.873 573.784 256.502C582.165 226.222 592.056 196.523 609.12 169.73C609.47 169.11 609.858 168.512 610.283 167.94C614.595 162.756 611.178 159.06 607.319 156.467C602.076 152.98 601.611 158.978 600.182 161.361C588.465 180.889 577.027 200.649 565.496 220.34C565.204 223.941 563.812 227.366 561.509 230.15C559.44 238.159 554.582 245.319 554.093 253.84ZM589.464 257.815C589.58 257.327 589.732 256.839 589.755 256.35C595.952 228.542 605.134 201.484 617.14 175.647C618.221 173.345 618.338 169.021 622.499 170.776C625.684 172.125 628.915 174.438 627.753 178.994C627.009 181.761 626.114 184.481 625.289 187.224C618.28 210.576 611.945 233.975 609.201 258.234L608.736 259.024L589.464 257.815ZM561.532 230.139C563.835 227.354 565.227 223.93 565.519 220.328C560.544 222.13 561.521 226.338 561.532 230.139ZM603.68 258.698C605.273 258.849 607.005 258.954 608.818 259.024L603.68 258.698ZM48.787 531.086C37.9202 532.079 27.0424 529.306 17.9776 523.231C12.2965 519.286 4.17722 515.054 2.22217 508.556C1.13438 504.999 0.767333 501.261 1.14253 497.56C1.51774 493.86 2.62764 490.271 4.40723 487.005C7.30531 481.807 9.37537 476.493 13.7225 471.951C21.9452 463.36 42.5883 458.219 53.4906 462.222C59.7353 464.522 60.5403 471.732 67.222 474.297C71.5921 475.987 67.567 486.269 68.671 488.684C72.6616 497.344 64.9794 504.14 67.6015 511.822C69.3381 516.871 63.8179 517.929 61.5178 520.689C59.7238 522.851 54.7786 521.816 55.3767 526.589C51.8576 526.163 51.133 529.866 48.787 531.086ZM166.332 545.587C153.198 557.456 138.869 567.265 122.746 573.97C120.158 575.04 117.536 576.029 114.856 576.937L112.844 577.604C111.498 578.041 110.141 578.455 108.761 578.846C108.531 572.038 108.297 565.23 108.06 558.422C108.06 556.375 108.06 554.328 108.06 552.281C112.556 551.418 117.11 550.786 121.538 549.659C130.738 547.358 133.337 539.412 127.288 531.937C126 530.326 123.93 529.349 123.838 526.922L136.419 523.472C136.316 527.198 128.726 531.235 136.27 534.467C138.517 535.435 140.949 535.899 143.394 535.828C145.84 535.756 148.24 535.15 150.427 534.053C155.475 531.442 150.427 527.152 151.508 523.783C158.845 525.738 162.031 532.132 166.24 537.445C166.332 540.148 166.332 542.873 166.332 545.587ZM69.5681 557.467C63.8179 548.451 54.5026 540.102 48.787 531.016C51.087 529.74 51.8576 526.094 55.3767 526.52C56.2967 527.014 57.6767 527.267 58.0677 528.026C67.981 545.622 81.1489 544.196 96.8123 535.939C105.127 531.557 114.81 529.786 123.884 526.83C123.884 529.268 125.989 530.28 127.334 531.856C133.36 539.32 130.784 547.232 121.584 549.578C117.156 550.728 112.602 551.337 108.106 552.188L69.5681 557.467ZM151.611 453.286C162.675 452.849 171.473 447.168 180.098 441.061C184.56 437.898 189.505 436.058 195.048 436.944C198.659 437.53 200.361 436.116 200.603 432.608C205.605 437.036 201.477 443.027 204.191 448.341C193.082 444.292 185.031 448.858 177.119 454.482C171.369 458.587 164.906 461.566 157.672 460.692C154.084 460.266 147.563 460.657 151.611 453.286ZM131.371 838.075L132.728 821.054C136.178 822.032 140.18 821.894 142.917 824.907C145.459 828.944 145.459 830.094 149.219 835.648C152.623 840.639 131.371 838.075 131.371 838.075ZM142.917 824.861C140.18 821.848 136.235 821.986 132.728 821.008C132.728 821.008 140.387 820.824 142.917 824.861ZM205.617 835.775C210.964 833.279 216.749 841.353 221.936 835.108C223.346 835.14 224.75 835.321 226.122 835.648C228.698 836.545 232.332 837.028 231.976 840.617C231.596 844.423 227.95 843.871 225.248 843.848C219.245 843.848 213.253 843.561 207.261 843.4L205.536 839.49C205.559 838.247 205.594 837.005 205.617 835.775ZM160.122 842.583C151.013 846.746 141.595 843.733 132.314 843.733L131.428 841.249C131.428 840.168 131.428 839.099 131.371 838.029C131.371 838.029 152.623 840.64 149.219 835.603C151.499 835.665 153.719 836.348 155.64 837.578C157.561 838.808 159.111 840.539 160.122 842.583ZM157.707 642.938L157.465 643.099L153.509 645.778C145.758 648.182 138.363 651.781 130.152 652.678H119.48C114.373 651.206 108.543 652.115 104.184 648.078C120.917 637.061 138.513 627.274 153.635 613.98C154.141 615.245 155.395 616.774 155.05 617.717C151.772 626.607 154.038 634.818 157.707 642.938ZM215.139 513.421C214.435 513.38 213.728 513.426 213.035 513.559L199.556 447.064L199.476 446.685H200.246L215.139 513.421Z" stroke="#C03516" stroke-width="0.5" stroke-miterlimit="10"/>
</svg>
