<svg width="181" height="225" viewBox="0 0 181 225" fill="none" xmlns="http://www.w3.org/2000/svg">
<g id="Group 2">
<path id="Vector 4" d="M142.962 0.546387C141.29 9.4046 138.249 14.7829 130.344 19.3435C119.386 25.6658 107.6 29.8288 95.6684 33.8061C71.6888 41.7993 48.0041 46.1616 27.0033 61.0575C19.0069 66.7294 12.6475 74.1091 7.77705 82.6012C1.84147 92.9504 0.824707 102.917 0.824707 114.702C0.824707 143.016 31.9257 151.71 54.7268 155.043C72.7413 157.676 90.1796 156.237 107.942 152.725C123.145 149.72 137.523 145.766 151.03 138.048C164.494 130.354 180.041 117.11 180.041 100.197C180.041 92.4804 174.841 80.6876 167.638 76.6359C158.403 71.4411 148.731 67.7524 137.897 67.7524C132.144 67.7524 126.306 67.4651 120.56 67.7524C114.851 68.0378 109.842 71.7032 104.724 73.5889C90.7706 78.7295 84.2528 95.1625 84.2528 109.037C84.2528 121.089 85.8097 132.722 90.6043 143.971C93.2003 150.061 95.4164 156.405 98.3292 162.339C101.571 168.943 106.639 175.036 108.972 182.037C110.831 187.614 113.673 193.025 116.311 198.302C118.316 202.313 119.154 207.587 121.332 211.262C122.879 213.873 122.897 216.717 123.692 219.502C124.047 220.745 126.105 225.684 124.422 221.476" stroke="#F9F9F9" stroke-width="0.5" stroke-linecap="round" stroke-dasharray="2 4 6 8"/>
<path id="Vector 5" d="M124.422 223.794C120.677 223.378 106.264 216.077 106.655 215.297" stroke="#F9F9F9" stroke-width="0.5" stroke-linecap="round" stroke-dasharray="2 4 6 8"/>
<path id="Vector 6" d="M125.194 223.021C125.194 225.915 127.254 217.614 128.284 214.91C129.374 212.05 130.032 208.712 131.374 206.027" stroke="#F9F9F9" stroke-width="0.5" stroke-linecap="round" stroke-dasharray="2 4 6 8"/>
</g>
</svg>
