<svg width="647" height="478" viewBox="0 0 647 478" fill="none" xmlns="http://www.w3.org/2000/svg">
<path d="M644.603 3.00844C643.206 1.79143 641.439 1.08357 639.589 1H7.86786C6.03535 1.09393 4.28736 1.80119 2.90403 3.00844C1.68806 4.40706 0.981109 6.17695 0.898438 8.02954V359.506C0.995892 361.365 1.72071 363.135 2.95417 364.527C4.34785 365.75 6.117 366.459 7.96814 366.536H286.745V442.857H226.577V477H411.092V442.857H360.952V366.536H639.729C641.591 366.536 643.376 365.795 644.693 364.477C646.009 363.159 646.749 361.371 646.749 359.506V7.97932C646.621 6.12554 645.864 4.3713 644.603 3.00844ZM406.94 446.873V472.983H230.448V446.873H406.94ZM290.616 442.857V366.536H356.8V442.857H290.616ZM642.597 359.506C642.597 360.305 642.28 361.072 641.716 361.637C641.152 362.202 640.387 362.519 639.589 362.519H7.86786C7.46252 362.568 7.05158 362.507 6.67773 362.342C6.30388 362.178 5.98077 361.917 5.74194 361.585C5.42051 361.339 5.16899 361.013 5.0124 360.64C4.85582 360.266 4.79964 359.858 4.84945 359.456V7.97932C4.79964 7.57732 4.85582 7.16926 5.0124 6.79576C5.16899 6.42225 5.42051 6.09631 5.74194 5.85038C5.98662 5.53008 6.31046 5.27918 6.68151 5.12245C7.05256 4.96572 7.458 4.90857 7.85784 4.95662H639.619C640.02 4.90675 640.428 4.96301 640.801 5.11981C641.174 5.27661 641.499 5.52849 641.745 5.85038C642.065 6.09451 642.315 6.41901 642.47 6.79107C642.625 7.16313 642.679 7.56956 642.627 7.96928L642.597 359.506Z" fill="#19151A" stroke="#C03516" stroke-width="0.5" stroke-miterlimit="10"/>
<path d="M289.136 128.504L289.136 128.504L367.614 176.737V176.748L367.734 176.821C368.96 177.572 369.974 178.627 370.677 179.886C371.38 181.144 371.75 182.563 371.75 184.007C371.75 185.45 371.38 186.869 370.677 188.128C369.974 189.386 368.96 190.441 367.734 191.192L367.733 191.193L289.158 239.499C287.824 240.316 286.291 240.749 284.728 240.75H284.727C282.489 240.758 280.338 239.873 278.748 238.289C277.159 236.705 276.26 234.552 276.25 232.302V135.701C276.252 134.201 276.652 132.729 277.408 131.436C278.164 130.143 279.249 129.076 280.552 128.344L280.553 128.344C281.868 127.6 283.357 127.223 284.866 127.251C286.375 127.28 287.849 127.712 289.136 128.504ZM284.478 232.198V232.645L284.859 232.411L363.32 184.214L363.667 184.001L363.32 183.788L284.859 135.559L284.478 135.325V135.772V232.198Z" stroke="#C03516" stroke-width="0.5"/>
</svg>
