<svg width="72" height="72" viewBox="0 0 72 72" fill="none" xmlns="http://www.w3.org/2000/svg">
<g id="Group">
<path id="Vector" d="M71.712 35.6037H0V36.1097H71.712V35.6037Z" fill="#F9F9F9"/>
<path id="Vector_2" d="M36.109 0H35.603V71.712H36.109V0Z" fill="#F9F9F9"/>
<g id="Group_2">
<path id="Vector_3" d="M15.8632 15.5054L15.5054 15.8632L16.937 17.295L17.2948 16.9372L15.8632 15.5054Z" fill="#F9F9F9"/>
<path id="Vector_4" d="M51.6183 51.9758L48.7846 49.1421L49.1428 48.7851L51.9766 51.6189L51.6183 51.9758ZM45.9468 46.3023L42.7501 43.1056L42.4802 42.8357L42.8378 42.4774L43.6508 43.2911L46.3017 45.9467L45.9468 46.3023ZM40.2719 40.6281L37.4308 37.7896L36.7993 37.1588L37.1575 36.8005L40.2692 39.9122L40.6262 40.2698L40.2719 40.6281ZM34.5924 34.9492L31.1244 31.4812L31.482 31.123L34.9493 34.5936L34.5924 34.9492ZM28.9141 29.2709L28.2867 28.6435L25.4489 25.8071L25.8065 25.4501L27.6794 27.3251L29.2717 28.9187L28.9141 29.2709ZM22.6118 22.9679L19.7781 20.1342L20.1316 19.7733L22.9694 22.607L22.6118 22.9679Z" fill="#F9F9F9"/>
<path id="Vector_5" d="M54.7742 54.417L54.4165 54.775L55.8487 56.2062L56.2064 55.8483L54.7742 54.417Z" fill="#F9F9F9"/>
<path id="Vector_6" d="M51.5804 51.938L48.7426 49.1043L49.1002 48.746L51.9339 51.5797L51.5804 51.938ZM45.9055 46.2618L44.0326 44.3895L42.7844 43.1413L42.4403 42.7972L42.7986 42.4396L43.4254 43.0671L46.2631 45.9055L45.9055 46.2618ZM40.23 40.5883L39.9487 40.3069L37.1149 37.4732L36.7634 37.1217L37.121 36.7641L39.9601 39.6032L40.5896 40.2327L40.23 40.5883ZM34.5538 34.9121L31.4408 31.7997L31.0852 31.4441L31.4428 31.0852L34.9114 34.5545L34.5538 34.9121ZM28.8769 29.2338L25.411 25.7686L25.7686 25.4103L28.6064 28.244L29.2345 28.8729L28.8769 29.2338ZM22.5739 22.9301L19.7368 20.0964L20.0951 19.7382L22.9288 22.5719L22.5739 22.9301Z" fill="#F9F9F9"/>
</g>
<g id="Group_3">
<path id="Vector_7" d="M55.849 15.5065L54.416 16.937L54.7735 17.2951L56.2065 15.8646L55.849 15.5065Z" fill="#F9F9F9"/>
<path id="Vector_8" d="M20.0939 51.9759L19.7356 51.6176L22.5727 48.7839L22.9303 49.1408L20.0939 51.9759ZM25.768 46.3024L25.4105 45.9441L28.0634 43.2912L28.873 42.4775L29.2306 42.8358L28.9607 43.1057L25.768 46.3024ZM31.4436 40.6282L31.0853 40.2699L31.4422 39.9123L34.5539 36.8006L34.9122 37.1589L34.2813 37.7897L31.4436 40.6282ZM37.1198 34.9493L36.7615 34.5924L40.2301 31.1231L40.5877 31.4813L37.1198 34.9493ZM42.798 29.271L42.4404 28.9141L44.0327 27.3205L45.9057 25.4482L46.2633 25.8051L43.4255 28.6436L42.798 29.271ZM49.1004 22.968L48.7428 22.6098L51.5765 19.7761L51.9341 20.133L49.1004 22.968Z" fill="#F9F9F9"/>
<path id="Vector_9" d="M16.9372 54.4163L15.5068 55.8494L15.865 56.2068L17.2954 54.7738L16.9372 54.4163Z" fill="#F9F9F9"/>
<path id="Vector_10" d="M20.1357 51.9341L19.7781 51.5765L22.6118 48.7427L22.9694 49.101L20.1357 51.9341ZM25.8065 46.2619L25.4489 45.905L28.2867 43.0665L28.9141 42.4391L29.2717 42.7967L28.9276 43.1408L27.6788 44.3889L25.8065 46.2619ZM31.482 40.5884L31.1244 40.2301L31.7539 39.6006L34.5924 36.7615L34.9499 37.1191L34.5984 37.4706L31.7647 40.3043L31.482 40.5884ZM37.1582 34.9122L36.8 34.5539L40.2686 31.0846L40.6262 31.4436L40.2706 31.7991L37.1582 34.9122ZM42.8358 29.2339L42.4782 28.877L43.1063 28.2482L45.9441 25.4145L46.3017 25.7727L42.8358 29.2339ZM49.1395 22.9303L48.7812 22.5733L51.6149 19.7396L51.9732 20.0979L49.1395 22.9303Z" fill="#F9F9F9"/>
</g>
</g>
</svg>
