<svg width="798" height="752" viewBox="0 0 798 752" fill="none" xmlns="http://www.w3.org/2000/svg">
<path d="M646.774 84.9462L608.914 162.023H664.187L700.855 84.9462H646.774ZM663.591 154.95L616.085 154.816L647.839 90.1463L694.743 90.2193L663.591 154.95Z" fill="#19151A"/>
<path d="M700.855 84.9462L664.187 162.023H555.144V167.661H667.216L705.976 87.379L700.855 84.9462ZM578.225 166.536H572.568V162.85H578.225V166.536ZM589.306 166.536H581.089V162.85H589.306V166.536Z" fill="#19151A"/>
<path d="M647.839 90.1341L616.085 154.816L663.591 154.962L694.743 90.2193L647.839 90.1341ZM641.045 138.109H637.348V134.423H641.045V138.109ZM645.041 133.821H641.343V130.135H645.041V133.821ZM674.235 100.887V104.196H667.368V97.3534H674.229V99.0077H675.36V100.887H674.235Z" fill="#19151A"/>
<path d="M675.36 99.0138V100.893H674.228V104.202H667.362V97.3595H674.228V99.0138H675.36Z" fill="#19151A"/>
<path d="M645.041 130.135H641.343V133.821H645.041V130.135Z" fill="#19151A"/>
<path d="M578.225 162.85H572.568L572.568 166.53H578.224L578.225 162.85Z" fill="#19151A"/>
<path d="M589.306 162.85H581.089L581.089 166.53H589.306L589.306 162.85Z" fill="#19151A"/>
<path d="M641.045 134.423H637.348V138.109H641.045V134.423Z" fill="#19151A"/>
<path d="M744.402 98.9834L743.186 101.781C742.645 101.598 742.092 101.45 741.532 101.337L727.872 97.6332L728.693 94.7078L742.681 98.5151C743.263 98.6399 743.838 98.7962 744.402 98.9834Z" fill="#19151A"/>
<path d="M751.007 116.548H747.966L746.045 104.895C746.04 104.825 746.026 104.755 746.002 104.688L748.788 103.405C748.868 103.674 748.931 103.949 748.976 104.226C748.982 104.271 748.982 104.316 748.976 104.36C748.976 104.36 748.976 104.39 748.976 104.403L751.007 116.548Z" fill="#19151A"/>
<path d="M746.044 99.7801L744.25 102.249C744.128 102.175 744.002 102.108 743.873 102.049L745.089 99.2692C745.423 99.4092 745.743 99.5802 746.044 99.7801Z" fill="#19151A"/>
<path d="M747.547 101.009L745.199 102.943C745.108 102.837 745.006 102.741 744.895 102.657L746.72 100.224C747.017 100.462 747.294 100.724 747.547 101.009Z" fill="#19151A"/>
<path d="M748.568 102.681L745.825 103.94C745.775 103.809 745.716 103.681 745.649 103.557L748.003 101.617C748.227 101.952 748.416 102.308 748.568 102.681Z" fill="#19151A"/>
<path d="M749.262 103.198L746.032 104.682L745.765 104.81L745.455 104.11L745.82 103.94L748.562 102.681L748.952 102.511L749.262 103.198Z" fill="#19151A"/>
<path d="M748.374 101.313L748.009 101.617L745.655 103.557L745.418 103.752L744.931 103.162L745.205 102.949L747.547 101.009L747.893 100.723L748.374 101.313Z" fill="#19151A"/>
<path d="M747.036 99.7193L746.695 100.206L744.901 102.663L744.731 102.894L744.123 102.45L744.269 102.243L746.063 99.774L746.428 99.2753L747.036 99.7193Z" fill="#19151A"/>
<path d="M745.278 98.88L745.108 99.2753L743.891 102.055L743.757 102.359L743.07 102.055L743.18 101.787L744.402 98.9895L744.591 98.5637L745.278 98.88Z" fill="#19151A"/>
<path d="M734.282 122.958L739.342 167.661H761.723L766.778 122.958H734.282ZM756.712 148.126L756.627 148.053L758.451 145.115L755.946 142.968L757.77 140.535L755.514 137.652L755.088 137.993L757.089 140.548L755.264 142.98L755.301 143.175L757.734 145.255L756.073 147.919L755.885 148.205L756.152 148.424L756.262 148.509C756.232 148.524 756.205 148.545 756.183 148.57C755.987 148.71 755.784 148.84 755.575 148.959L754.559 148.034L755.812 146.04L756.42 145.097L755.556 144.355L753.908 142.95L755.07 141.375L755.733 140.493L754.723 139.209L753.47 137.61L753.051 137.951L754.875 140.316L755.021 140.505L754.918 140.633L753.136 143.065L755.666 145.212L753.841 148.138L755.125 149.184C754.571 149.474 753.988 149.702 753.385 149.865C752.684 150.046 751.962 150.138 751.238 150.139C749.952 150.139 748.682 149.844 747.528 149.275L748.927 148.138L747.102 145.188L749.645 143.023L747.771 140.487L749.772 137.932L749.353 137.592L747.09 140.475L748.915 142.907L746.367 145.085L748.191 148.022L746.975 149.001C746.741 148.869 746.516 148.723 746.3 148.564L746.804 148.144L744.98 145.194L747.516 143.029L745.631 140.493L747.644 137.938L747.218 137.598L744.949 140.481L746.774 142.913L744.28 145.085L746.105 148.022L745.856 148.223C744.547 147.137 743.591 145.685 743.112 144.053C742.632 142.421 742.649 140.683 743.161 139.061C743.674 137.439 744.658 136.006 745.988 134.946C747.318 133.886 748.935 133.247 750.63 133.109C750.818 133.109 751.007 133.109 751.202 133.109C752.061 133.109 752.915 133.244 753.732 133.511C755.173 133.979 756.463 134.821 757.472 135.952C758.48 137.083 759.17 138.461 759.47 139.946C759.771 141.431 759.672 142.969 759.183 144.403C758.694 145.837 757.833 147.116 756.688 148.107L756.712 148.126Z" fill="#19151A"/>
<path d="M764.108 119.936V120.921H767.009L766.778 122.958L767.94 122.959V119.918L764.108 119.936ZM736.964 119.936H733.139V122.977H734.282L734.051 120.939H736.964V119.936Z" fill="#19151A"/>
<path d="M764.108 116.548H736.964V121.852H764.108V116.548Z" fill="#19151A"/>
<path d="M767.015 120.927L766.784 122.965H734.282L734.051 120.927H736.964V121.846H764.108V120.927H767.015Z" fill="#19151A"/>
<path d="M753.756 133.529C752.939 133.262 752.085 133.127 751.226 133.128C751.031 133.128 750.843 133.128 750.654 133.128C748.959 133.265 747.343 133.905 746.013 134.965C744.682 136.025 743.698 137.457 743.186 139.079C742.673 140.701 742.656 142.439 743.136 144.071C743.616 145.703 744.571 147.155 745.88 148.241L746.129 148.041L744.305 145.103L746.817 142.956L744.992 140.523L747.261 137.64L747.686 137.981L745.673 140.535L747.559 143.072L745.022 145.237L746.847 148.187L746.342 148.606C746.558 148.765 746.784 148.912 747.017 149.044L748.234 148.065L746.409 145.127L748.921 142.98L747.096 140.548L749.359 137.665L749.779 138.005L747.778 140.56L749.651 143.096L747.109 145.261L748.933 148.211L747.534 149.348C748.688 149.917 749.958 150.212 751.244 150.212C751.969 150.211 752.69 150.119 753.391 149.938C753.994 149.775 754.577 149.547 755.131 149.257L753.847 148.211L755.672 145.285V145.243L753.142 143.096L754.924 140.663L755.027 140.535L754.881 140.347L753.057 137.981L753.476 137.64L754.729 139.24L755.739 140.523L755.076 141.405L753.914 142.98L756.384 145.085L755.775 146.027L754.559 148.034L755.635 148.91C755.845 148.792 756.048 148.662 756.244 148.521C756.266 148.496 756.293 148.475 756.323 148.46L756.213 148.375L755.946 148.156L756.134 147.87L757.795 145.206L755.362 143.126L755.252 143.041L755.325 142.932L757.15 140.499L755.149 137.944L755.575 137.604L757.831 140.487L756.006 142.92L758.512 145.066L756.688 148.004L756.773 148.077C757.918 147.085 758.779 145.807 759.268 144.373C759.757 142.939 759.856 141.401 759.556 139.916C759.255 138.431 758.565 137.053 757.557 135.922C756.548 134.791 755.258 133.948 753.817 133.48L753.756 133.529ZM751.518 135.208H752.917V136.619H751.518V135.208ZM747.911 136.619H746.525V135.208H747.911V136.619ZM749.018 136.619V135.208H750.411V136.619H749.018ZM751.019 142.883L750.971 142.044C750.965 141.492 750.845 140.947 750.618 140.444C750.517 140.232 750.352 140.057 750.148 139.941C749.943 139.826 749.708 139.776 749.474 139.799L749.347 139.27C749.694 139.218 750.05 139.277 750.362 139.44C750.673 139.603 750.925 139.861 751.08 140.177C751.357 140.745 751.504 141.369 751.512 142.001L751.579 142.822L751.019 142.883ZM753.385 139.07L753.349 139.617C753.217 139.61 753.086 139.634 752.966 139.686C752.845 139.739 752.739 139.82 752.655 139.921L752.242 139.568C752.385 139.402 752.565 139.27 752.768 139.183C752.97 139.097 753.19 139.058 753.409 139.07H753.385ZM755.423 136.637H754.024V135.226H755.423V136.637Z" fill="#19151A"/>
<path d="M747.942 135.208H746.549V136.619H747.942V135.208Z" fill="#19151A"/>
<path d="M750.436 135.208H749.043V136.619H750.436V135.208Z" fill="#19151A"/>
<path d="M752.941 135.208H751.542V136.619H752.941V135.208Z" fill="#19151A"/>
<path d="M751.579 142.834L751.044 142.883L750.971 142.044C750.965 141.492 750.845 140.947 750.618 140.444C750.517 140.232 750.352 140.057 750.148 139.941C749.943 139.826 749.708 139.776 749.474 139.799L749.347 139.27C749.694 139.218 750.05 139.277 750.362 139.44C750.673 139.603 750.925 139.861 751.08 140.177C751.357 140.745 751.504 141.369 751.512 142.001L751.579 142.834Z" fill="#19151A"/>
<path d="M753.409 139.07L753.373 139.617C753.242 139.61 753.11 139.634 752.99 139.686C752.87 139.739 752.763 139.82 752.68 139.921L752.266 139.568C752.407 139.405 752.583 139.275 752.781 139.189C752.979 139.103 753.194 139.062 753.409 139.07Z" fill="#19151A"/>
<path d="M755.447 135.208H754.048V136.619H755.447V135.208Z" fill="#19151A"/>
<path d="M750.119 143.503C750.631 143.425 751.153 143.456 751.652 143.595L750.119 143.503Z" fill="#19151A"/>
<path d="M471.662 212.668H337.573C336.981 212.645 336.39 212.743 335.836 212.955C335.282 213.166 334.777 213.487 334.35 213.899C333.923 214.31 333.583 214.803 333.352 215.349C333.12 215.894 333 216.481 333 217.074C333 217.667 333.12 218.253 333.352 218.799C333.583 219.345 333.923 219.838 334.35 220.249C334.777 220.661 335.282 220.982 335.836 221.193C336.39 221.405 336.981 221.502 337.573 221.48H352.723C352.865 221.897 353.07 222.288 353.332 222.642L398.478 283.145L353.35 343.673C352.861 344.328 352.564 345.106 352.493 345.92C352.421 346.734 352.577 347.552 352.944 348.283C353.311 349.013 353.873 349.627 354.569 350.055C355.265 350.484 356.066 350.711 356.883 350.71C357.573 350.714 358.255 350.558 358.873 350.253C359.492 349.948 360.031 349.502 360.447 348.952L404 290.565L447.541 348.952C447.877 349.441 448.309 349.858 448.809 350.177C449.31 350.495 449.87 350.71 450.455 350.808C451.041 350.905 451.64 350.884 452.217 350.745C452.794 350.605 453.337 350.351 453.813 349.997C454.29 349.643 454.69 349.197 454.99 348.685C455.29 348.173 455.484 347.606 455.56 347.017C455.636 346.429 455.592 345.831 455.432 345.259C455.272 344.688 454.998 344.154 454.627 343.691L409.474 283.145L454.608 222.624C454.868 222.269 455.073 221.878 455.217 221.462H471.638C472.23 221.484 472.821 221.386 473.375 221.175C473.929 220.963 474.434 220.642 474.861 220.231C475.288 219.82 475.628 219.326 475.86 218.781C476.092 218.235 476.211 217.648 476.211 217.056C476.211 216.463 476.092 215.876 475.86 215.33C475.628 214.785 475.288 214.292 474.861 213.88C474.434 213.469 473.929 213.148 473.375 212.936C472.821 212.725 472.23 212.627 471.638 212.649L471.662 212.668ZM403.982 275.786L363.488 221.48H444.464L403.982 275.786Z" fill="#19151A"/>
<path d="M797.206 185.171V167.661H541.763V185.171H691.86V334.812H627.999V350.728H797.206V334.842H774.848V185.201L797.206 185.171ZM760.501 334.842H706.201V185.201H760.495L760.501 334.842Z" fill="#19151A"/>
<path d="M568.092 146.611C562.874 148.15 556.39 151.228 551.525 152.973C546.908 154.633 528.772 155.826 514.218 156.537L515.38 149.999C515.38 149.999 530.584 152.827 538.594 149.956C546.604 147.086 558.166 139.696 562.107 142.415C563.445 143.345 565.696 144.921 568.092 146.611Z" fill="#19151A"/>
<path d="M515.38 149.999L514.218 156.537C511.974 156.653 509.808 156.744 507.795 156.835C502.68 157.054 498.532 157.2 496.367 157.273V156.951C496.367 156.951 493.326 157.03 481.521 153.301C479.657 152.727 477.829 152.041 476.047 151.246C469.643 148.345 465.884 144.355 464.151 137.738C463.201 134.111 462.864 130.351 463.154 126.614C464.978 104.111 489.215 88.8326 489.215 88.8326C489.215 88.8326 477.27 111.689 475.834 138.547C484.428 144.069 496.89 148.624 515.38 149.999Z" fill="#19151A"/>
<path d="M588.229 350.12H541.562C541.429 349.871 537.262 342.159 523.882 336.417C520.876 335.11 517.978 333.566 515.215 331.801L519.923 318.688H544.251C544.251 318.688 556.944 330.609 570.549 336.442C584.154 342.274 588.229 350.12 588.229 350.12Z" fill="#19151A"/>
<path d="M541.562 350.114H462.016L473.28 318.658H499.25C504.053 323.633 509.41 328.043 515.215 331.801C517.977 333.575 520.875 335.126 523.882 336.442C537.262 342.14 541.428 349.864 541.562 350.114Z" fill="#19151A"/>
<path d="M561.262 202.997C560.775 218.099 545.479 311.7 544.232 318.658H519.904C516.073 311.731 512.776 301.939 510.842 291.052C522.355 263.72 538.758 224.625 542.432 215.338C550.637 194.659 532.841 184.849 509.814 180.093C512.679 178.621 515.635 177.094 518.433 175.628C535.055 177.362 562.034 179.338 561.262 202.997Z" fill="#19151A"/>
<path d="M542.432 215.35C538.783 224.637 522.361 263.732 510.842 291.064C504.231 306.804 499.226 318.652 499.226 318.652H473.256C464.4 299.323 467.216 271.51 483.771 246.009C493.423 231.132 493.934 228.949 495.12 224.777C495.295 224.184 495.326 223.559 495.211 222.952C495.019 221.909 494.422 220.985 493.55 220.381C492.678 219.777 491.603 219.542 490.559 219.729C478.808 221.809 434.416 222.204 413.737 216.353C383.613 207.838 383.236 185.128 385.821 172.046C387.585 173.003 389.32 173.909 391.027 174.765C395.856 177.197 400.448 179.334 404.803 181.175C413.089 184.744 421.687 187.541 430.487 189.532C437.01 191.018 443.679 191.769 450.369 191.77H450.527C453.063 193.887 455.44 196.188 457.637 198.655C468.457 210.66 493.131 210.162 493.131 210.162L494.5 187.841C497.468 186.357 503.434 183.352 509.814 180.086C532.841 184.861 550.636 194.659 542.432 215.35Z" fill="#19151A"/>
<path d="M593.46 160.849C593.46 160.849 590.133 164.498 582.871 159.943C575.609 155.388 575.451 154.031 571.51 156.902C567.569 159.773 556.372 167.965 549.262 165.538C542.152 163.112 538.357 163.872 532.002 168.117C529.812 169.565 524.49 172.454 518.433 175.628C515.635 177.094 512.679 178.621 509.814 180.093C503.434 183.359 497.468 186.363 494.5 187.847L495.157 176.972L495.358 173.792L496.367 157.261C498.532 157.188 502.68 157.042 507.795 156.823C509.808 156.732 511.974 156.64 514.218 156.525C528.772 155.813 546.908 154.621 551.525 152.961C556.39 151.215 562.874 148.138 568.092 146.599C571.486 145.583 574.35 145.231 575.895 146.301C579.836 149.032 593.46 160.849 593.46 160.849Z" fill="#19151A"/>
<path d="M428.352 178.317C434.221 182.495 441.635 184.399 450.552 191.806H450.393C443.703 191.805 437.034 191.054 430.511 189.568C421.718 187.577 413.126 184.779 404.846 181.212C400.491 179.383 395.899 177.246 391.07 174.801C389.359 173.942 387.623 173.035 385.864 172.083C382.738 170.412 379.51 168.587 376.181 166.609C371.036 145.322 386.399 134.374 398.076 125.166L398.155 125.099C409.863 115.849 409.912 106.853 430.737 91.606C435.258 88.2833 440.021 85.3029 444.987 82.6898C454.045 77.9784 463.864 74.9025 473.991 73.6034C437.737 83.4197 416.298 112.06 414.936 141.369C414.577 149.664 415.185 157.34 417.618 163.939C419.437 169.2 422.707 173.838 427.051 177.319C427.47 177.672 427.902 177.994 428.352 178.317Z" fill="#19151A"/>
<path d="M496.391 156.951V157.273L495.382 173.804L495.181 176.985L494.524 187.859L493.131 210.162C493.131 210.162 468.457 210.642 457.661 198.673C455.464 196.206 453.087 193.905 450.551 191.788C441.635 184.38 434.221 182.477 428.352 178.298C427.902 177.976 427.47 177.654 427.051 177.313C422.708 173.834 419.438 169.197 417.618 163.939C415.234 157.37 414.577 149.695 414.978 141.399C416.34 112.09 437.779 83.4501 474.034 73.6338C476.746 91.7763 489.239 88.8752 489.239 88.8752C489.239 88.8752 464.984 104.147 463.178 126.656C462.888 130.396 463.225 134.158 464.175 137.786C465.908 144.404 469.649 148.393 476.071 151.294C477.853 152.09 479.681 152.776 481.545 153.35C493.32 157.03 496.391 156.951 496.391 156.951Z" fill="#19151A"/>
<path d="M522.982 62.1693C522.714 63.635 519.692 64.0973 518.293 63.9939C516.894 63.8905 514.035 70.3799 507.771 73.3054C504.572 74.6843 501.013 74.9895 497.626 74.1751C494.523 78.8887 491.721 83.7945 489.239 88.863C489.239 88.863 476.723 91.7641 474.034 73.6216C474.034 73.6216 475.518 72.9465 477.501 71.797C483.13 73.1827 488.88 74.0238 494.67 74.3089C494.81 74.017 494.938 73.7007 495.054 73.4209C496.208 70.7304 496.947 67.8798 497.243 64.967C497.967 58.2403 496.538 54.0924 504.213 50.4919C515.994 44.9756 517.885 39.4714 517.983 39.1369C518.281 39.7086 518.548 40.2985 518.804 40.8885C518.956 41.2838 519.108 41.6913 519.254 42.1049C519.327 42.3056 519.388 42.5063 519.454 42.7131C519.521 42.9199 519.576 43.1267 519.643 43.3213C519.758 43.7349 519.862 44.1545 519.947 44.5377C519.996 44.7445 520.044 44.9573 520.075 45.1459C520.166 45.5716 520.227 45.9913 520.288 46.4231C520.318 46.6299 520.336 46.8427 520.367 47.0313C520.397 47.2198 520.403 47.457 520.415 47.6699C520.428 47.8828 520.446 48.0835 520.464 48.2781C520.482 48.4727 520.464 48.5822 520.464 48.7342V48.9471C520.464 49.4276 520.464 49.9141 520.428 50.4189C520.407 50.8241 520.407 51.2301 520.428 51.6353C519.272 51.5137 518.141 52.128 517.131 52.8517C517.131 52.6693 517.095 52.4929 517.058 52.3104C516.959 51.6018 516.705 50.9237 516.314 50.3244C515.923 49.7252 515.404 49.2196 514.796 48.8437C512.497 47.6273 509.602 49.4519 508.324 52.9186C507.721 54.5364 507.572 56.2884 507.893 57.9849C508.068 59.1491 508.616 60.2248 509.456 61.0502C509.666 61.2335 509.897 61.3926 510.143 61.5246C510.719 61.817 511.365 61.9439 512.01 61.8913C512.654 61.8387 513.271 61.6086 513.792 61.2266C515.115 60.3041 516.101 58.9762 516.602 57.4436C517.028 56.3005 517.235 55.0871 517.21 53.8674C518.153 53.1497 519.339 52.3895 520.476 52.5841C520.537 53.1923 520.622 53.8005 520.738 54.3601C520.801 54.9989 520.955 55.6255 521.194 56.2211C522.015 59.0736 523.152 61.2631 522.982 62.1693Z" fill="#19151A"/>
<path d="M526.783 47.2319C526.381 47.0157 525.931 46.9048 525.475 46.9096C523.809 46.9096 522.069 48.3875 521.218 50.7473C521.085 51.0933 520.979 51.4492 520.902 51.8116C520.745 51.771 520.587 51.7386 520.427 51.7143C519.272 51.5927 518.14 52.2069 517.131 52.9307C517.131 52.7482 517.094 52.5719 517.058 52.3894C516.959 51.6807 516.705 51.0027 516.314 50.4034C515.923 49.8042 515.404 49.2986 514.795 48.9227C512.496 47.7063 509.601 49.5309 508.324 52.9976C507.721 54.6153 507.571 56.3673 507.892 58.0639C508.083 59.1999 508.631 60.2457 509.456 61.0502C509.666 61.2335 509.897 61.3926 510.143 61.5246C510.719 61.817 511.365 61.9439 512.01 61.8913C512.654 61.8387 513.271 61.6086 513.792 61.2266C515.115 60.3041 516.101 58.9762 516.602 57.4436C517.028 56.3005 517.235 55.0871 517.21 53.8674C518.153 53.1497 519.339 52.3895 520.476 52.5841C520.573 52.6006 520.668 52.6229 520.762 52.6509C520.704 53.2192 520.704 53.7917 520.762 54.36C520.825 54.9988 520.979 55.6254 521.218 56.221C521.441 56.7841 521.786 57.2909 522.228 57.705C522.412 57.8651 522.616 58 522.836 58.1065C524.818 59.1708 527.324 57.5956 528.413 54.5972C529.502 51.5988 528.772 48.2962 526.783 47.2319Z" fill="#19151A"/>
<path d="M515.976 57.0969C515.524 58.4568 514.648 59.6357 513.476 60.4602C513.046 60.787 512.532 60.9855 511.994 61.0329C511.456 61.0802 510.915 60.9745 510.435 60.7278C509.929 60.4135 509.498 59.9918 509.174 59.4925C508.849 58.9933 508.638 58.4288 508.556 57.8389C508.271 56.3329 508.408 54.7777 508.951 53.3443C510.064 50.3034 512.533 48.6795 514.467 49.6952C514.666 49.7971 514.851 49.926 515.015 50.0783C515.737 50.7565 516.208 51.6588 516.353 52.6388C516.637 54.1314 516.507 55.6733 515.976 57.0969Z" fill="#19151A"/>
<path d="M527.732 54.2445C526.801 56.805 524.691 58.1856 523.091 57.322C521.492 56.4583 520.914 53.6728 521.875 51.1001C522.836 48.5275 524.916 47.1712 526.515 48.0592C528.115 48.9471 528.668 51.6962 527.732 54.2445Z" fill="#19151A"/>
<path d="M515.976 57.0969C515.524 58.4568 514.648 59.6357 513.476 60.4602C513.046 60.787 512.532 60.9855 511.994 61.0329C511.456 61.0802 510.915 60.9745 510.435 60.7278C509.929 60.4135 509.498 59.9918 509.174 59.4925C508.849 58.9933 508.638 58.4288 508.556 57.8389C508.271 56.3329 508.408 54.7777 508.951 53.3443C510.064 50.3034 512.533 48.6795 514.467 49.6952C514.666 49.7971 514.851 49.926 515.015 50.0783C515.737 50.7565 516.208 51.6588 516.353 52.6388C516.637 54.1314 516.507 55.6733 515.976 57.0969Z" fill="#19151A"/>
<path d="M520.458 49.0201V48.8072C520.458 48.6551 520.458 48.5031 520.458 48.351C520.458 48.199 520.458 47.9375 520.409 47.7428C520.361 47.5482 520.409 47.311 520.361 47.1042C520.312 46.8974 520.312 46.6724 520.282 46.496C520.221 46.0642 520.16 45.6446 520.069 45.2188C520.038 45.012 519.99 44.7992 519.941 44.6106C519.856 44.1971 519.752 43.7774 519.637 43.3942C519.576 43.1935 519.521 42.9807 519.448 42.786C519.375 42.5914 519.321 42.3725 519.248 42.1778C519.108 41.7643 518.956 41.3629 518.798 40.9615C518.542 40.3533 518.275 39.7815 517.977 39.2098C517.879 39.5443 515.988 45.0485 504.207 50.5649C496.532 54.1654 497.961 58.3133 497.237 65.04C496.94 67.9527 496.202 70.8034 495.048 73.4939C494.932 73.7858 494.804 74.1021 494.664 74.3819C488.874 74.0968 483.124 73.2556 477.495 71.87C468.865 69.7778 458.696 65.934 451.343 58.9276C451.343 58.9276 452.881 48.3571 461.791 45.2432C466.523 43.5889 469.296 39.3801 471.078 35.8222C469.939 37.5554 468.551 39.1126 466.961 40.4445C460.8 45.2006 448.989 46.5569 448.946 56.3306C448.934 56.4181 448.893 56.4989 448.828 56.5597C448.764 56.6205 448.682 56.6576 448.593 56.6651C448.545 56.6701 448.497 56.6653 448.451 56.6511C448.404 56.6368 448.361 56.6134 448.324 56.5821C448.288 56.5509 448.257 56.5125 448.236 56.4693C448.214 56.426 448.201 56.3789 448.198 56.3306C448.235 48.3085 456.105 45.4682 462.15 42.3968C466.706 40.0796 469.406 36.923 472.161 32.7386C472.465 32.2825 472.769 31.8324 473.092 31.4006C474.54 28.5175 476.701 26.0515 479.368 24.236C477.056 23.8871 474.916 22.8035 473.267 21.1454C471.618 19.4872 470.545 17.3424 470.209 15.0279C470.13 14.5596 470.853 14.3528 470.926 14.8272C471.239 17.1077 472.316 19.2145 473.983 20.8023C475.649 22.3902 477.805 23.365 480.098 23.567C477.67 22.8503 475.547 21.3539 474.055 19.3092C472.563 17.2645 471.786 14.7853 471.844 12.2548C471.902 9.72426 472.792 7.28333 474.376 5.30926C475.96 3.33519 478.151 1.9379 480.609 1.33336C483.067 0.72882 485.655 0.950688 487.974 1.96467C490.294 2.97865 492.214 4.72829 493.44 6.94316C494.665 9.15803 495.126 11.7148 494.753 14.2183C494.38 16.7218 493.192 19.0326 491.374 20.7936C493.254 20.8163 495.128 21.0199 496.969 21.4018C510.125 24.0962 525.67 31.5952 520.458 49.0201Z" fill="#19151A"/>
<path d="M489.707 21.9431C500.308 18.2088 509.498 26.9608 509.498 26.9608C511.736 28.0673 513.797 29.5023 515.611 31.2181C512.643 21.3471 499.846 15.6483 488.85 18.9569C480.907 21.3532 476.516 28.4448 477.391 37.4521C477.872 42.3177 479.216 46.0034 480.803 50.2608C481.095 51.0575 481.412 51.8664 481.698 52.6936C480.27 54.305 479.487 56.3857 479.496 58.5383C479.535 60.2133 480.068 61.8393 481.027 63.2129C481.987 64.5865 483.33 65.6466 484.889 66.2604C486.448 66.8742 488.153 67.0144 489.791 66.6636C491.43 66.3127 492.928 65.4863 494.099 64.2879C495.27 63.0895 496.061 61.5723 496.373 59.9263C496.686 58.2803 496.506 56.5787 495.856 55.0345C495.206 53.4903 494.115 52.1721 492.72 51.2451C491.324 50.3181 489.686 49.8233 488.011 49.8229C486.683 49.8487 485.38 50.1884 484.209 50.8142L483.601 49.2268C482.111 45.1641 480.822 41.6548 480.378 37.1967C479.654 29.6186 483.242 24.2239 489.707 21.9431ZM488.029 52.803C489.18 52.7764 490.312 53.0934 491.282 53.7135C492.252 54.3336 493.015 55.2287 493.473 56.2844C493.932 57.3402 494.065 58.5086 493.857 59.6406C493.648 60.7726 493.107 61.8168 492.302 62.6397C491.497 63.4627 490.466 64.0271 489.339 64.2609C488.212 64.4947 487.04 64.3872 485.975 63.9522C484.909 63.5173 483.997 62.7745 483.356 61.8189C482.714 60.8632 482.372 59.738 482.373 58.587C482.356 57.0701 482.943 55.6089 484.004 54.5243C485.064 53.4398 486.512 52.8207 488.029 52.803Z" fill="#19151A"/>
<path d="M493.685 58.5869C493.66 59.6998 493.307 60.7806 492.67 61.6938C492.034 62.607 491.142 63.3121 490.106 63.7207C489.071 64.1292 487.938 64.2232 486.849 63.9907C485.761 63.7583 484.765 63.2098 483.986 62.4139C483.208 61.618 482.682 60.6101 482.474 59.5166C482.266 58.423 482.385 57.2923 482.817 56.2662C483.248 55.2401 483.973 54.3641 484.9 53.7481C485.827 53.132 486.916 52.8033 488.029 52.803C489.546 52.8207 490.993 53.4397 492.054 54.5243C493.115 55.6088 493.701 57.0701 493.685 58.5869Z" fill="#19151A"/>
<path d="M138.833 616.855C137.505 618.004 136.482 618.847 135.666 619.512C135.701 619.641 135.719 619.775 135.719 619.91C135.752 621.663 132.996 622.5 131.07 623.071C130.851 623.257 130.612 623.469 130.347 623.735C133.109 624.439 135.991 625.727 131.562 627.5C129.358 628.423 127.05 629.072 124.689 629.433C120.525 633.842 116.567 637.787 117.231 629.665C116.451 629.64 115.681 629.483 114.954 629.2C112.623 639.062 109.276 650.364 102.469 648.266C104.328 641.512 106.938 634.446 108.612 627.719C110.717 619.253 110.039 613.548 116.189 608.07C123.088 601.927 130.745 601.741 138.767 602.478L138.807 616.849L138.833 616.855Z" fill="#19151A"/>
<path d="M186.606 741.155C179.62 740.385 171.439 735.989 165.19 732.735C160.322 730.205 155.893 727.163 151.245 724.308C147.998 722.45 144.62 720.832 141.138 719.467C151.656 719.334 162.222 718.896 172.415 718.876C177.619 718.958 182.815 719.32 187.981 719.958C195.319 730.105 202.232 742.868 186.606 741.155Z" fill="#19151A"/>
<path d="M104.601 717.302C70.8663 719.839 27.7353 720.303 23.027 691.676C19.4876 669.934 37.4173 662.709 54.9088 659.289H131.814C131.814 659.349 131.754 659.415 131.721 659.475C120.04 660.63 105.338 662.483 97.0769 667.039C73.3299 680.121 82.7198 711.75 104.601 717.302Z" fill="#19151A"/>
<path d="M133.634 659.289L131.715 659.475C131.748 659.415 131.781 659.349 131.807 659.289H133.634Z" fill="#19151A"/>
<path d="M172.535 657.064L169.493 657.011C166.345 657.29 163.151 657.463 159.964 657.602C160.017 657.343 160.077 657.084 160.137 656.825V656.726C162.248 656.221 164.347 655.736 166.319 655.139C166.751 655.012 167.182 654.873 167.601 654.733C168.544 654.415 169.473 654.069 170.39 653.671C170.715 654.209 171.054 654.747 171.386 655.278L172.302 656.732L172.535 657.064Z" fill="#19151A"/>
<path d="M235.973 711.099C223.223 724.314 205.28 721.831 187.948 719.958C182.782 719.32 177.586 718.958 172.382 718.876C162.188 718.876 151.623 719.334 141.104 719.467C129.656 719.613 118.254 719.394 107.456 717.866C106.493 717.731 105.537 717.542 104.594 717.302C82.7132 711.75 73.3233 680.114 97.0703 667.039C105.331 662.483 120.034 660.63 131.715 659.475C131.283 660.365 130.845 661.248 130.386 662.131C129.324 664.123 125.964 668.705 129.583 670.465C132.239 671.734 132.518 669.595 134.072 669.263C137.213 668.599 136.416 668.732 140.181 669.449C144.604 670.293 147.486 668.599 151.225 668.905C153.064 669.051 154.718 670.97 156.537 669.934C157.341 669.482 157.865 665.558 158.131 664.728C158.869 662.393 159.476 660.018 159.951 657.616C163.138 657.476 166.332 657.303 169.48 657.025L172.521 657.078C174.859 660.757 177.249 664.382 179.501 667.875L181.553 666.919C187.629 664.064 194.05 660.943 200.532 657.556C220.772 657.835 240.375 657.968 249.254 657.609C249.54 676.741 248.663 697.951 235.973 711.099Z" fill="#19151A"/>
<path d="M251.472 657.483C250.808 657.523 250.097 657.562 249.267 657.596C240.375 657.954 220.786 657.821 200.545 657.543C209.792 652.782 218.774 647.524 227.453 641.791C235.247 636.687 242.546 630.865 249.254 624.399C244.001 600.552 234.246 580.186 220.035 559.726C214.238 551.299 202.769 533.303 190.936 533.768C176.459 534.359 175.948 550.847 177.847 561.127C180.789 577.064 199.921 604.603 206.661 609.803C190.816 618.768 178.644 623.25 160.303 633.171C160.396 633.457 160.495 633.749 160.595 634.035C158.928 634.699 157.274 635.436 155.574 636.246C152.838 637.574 150.029 638.597 147.274 639.779C146.366 639.564 145.445 639.404 144.518 639.301C142.618 639.135 140.705 639.377 138.906 640.011L138.833 616.855L138.621 544.632C140.613 545.96 142.877 547.394 145.574 549.048C151.172 552.481 156.537 551.339 160.462 545.316C162.859 541.637 167.049 534.87 166.093 530.188C165.363 526.615 163.019 524.637 160.19 522.97C161.664 522.83 163.271 522.744 165.031 522.698C185.398 522.16 197.278 529.172 205.718 535.534C217.943 544.738 229.996 554.261 237.752 567.17C254.925 595.579 254.567 626.936 251.472 657.483Z" fill="#19151A"/>
<path d="M160.462 545.309C156.537 551.332 151.165 552.474 145.574 549.041C142.877 547.387 140.633 545.933 138.621 544.625C135.185 542.276 131.617 540.125 127.936 538.184C125.263 539.237 122.408 539.749 119.536 539.691C112.54 539.484 105.729 537.397 99.8195 533.648L100.098 533.429C101.599 532.147 102.257 530.108 101.958 527.671C101.569 525.129 100.453 522.753 98.7437 520.832C96.3265 517.996 93.0394 516.243 90.1706 516.243C88.8594 516.214 87.5801 516.649 86.5581 517.471C85.189 512.933 85.2331 508.085 86.6843 503.572C86.7308 503.685 86.7573 503.758 86.7839 503.812C86.7839 503.758 86.7507 503.679 86.7241 503.586L116.122 513.029C115.576 513.792 115.14 514.628 114.827 515.512C114.455 515.34 115.246 516.349 114.987 516.349C117.05 516.921 119.073 517.629 121.043 518.467C120.426 520.397 120.295 522.449 120.664 524.441C121.032 526.432 121.888 528.302 123.155 529.883C124.308 531.332 125.774 532.502 127.442 533.307C129.11 534.112 130.938 534.53 132.79 534.531C133.256 534.531 133.722 534.505 134.185 534.452C137.17 534.117 139.929 532.703 141.945 530.476C143.96 528.249 145.092 525.362 145.129 522.359L145.401 522.445C146.487 519.974 147.338 517.406 147.944 514.775C148.562 515.267 149.179 515.771 149.777 516.256C149.497 518.255 149.107 520.237 148.608 522.193C148.602 522.255 148.602 522.317 148.608 522.379C148.607 522.556 148.672 522.728 148.789 522.861C148.907 522.995 149.069 523.08 149.245 523.101C149.422 523.123 149.6 523.079 149.745 522.977C149.891 522.876 149.995 522.724 150.036 522.551C150.488 520.805 150.84 519.052 151.112 517.319C152.293 518.3 153.537 519.203 154.837 520.021C156.637 521.064 158.503 521.947 160.19 522.937C163.019 524.603 165.363 526.582 166.093 530.155C167.049 534.863 162.859 541.63 160.462 545.309Z" fill="#19151A"/>
<path d="M132.956 514.045C132.956 514.131 133.003 514.217 133.023 514.31L133.254 514.051L132.956 514.045Z" fill="#19151A"/>
<path d="M133.254 514.045L133.023 514.303C133.023 514.21 132.976 514.124 132.956 514.038L133.254 514.045Z" fill="#19151A"/>
<path d="M143.82 491.985C143.674 493.459 143.455 494.86 143.156 496.215C142.267 500.644 140.786 504.575 139.125 508.965L138.727 510.027C138.581 510.412 138.428 510.811 138.282 511.209C137.926 511.026 137.56 510.862 137.186 510.718C135.142 509.936 132.927 509.707 130.765 510.054C130.031 509.304 129.167 508.694 128.215 508.254C124.018 506.262 118.732 509.25 116.096 513.022L86.7175 503.586H86.6776L86.1265 503.406C85.5406 499.618 85.9267 495.743 87.2485 492.144C88.5703 488.546 90.7846 485.342 93.6835 482.834L94.2546 482.336C94.3476 482.249 94.4406 482.176 94.5335 482.103C95.0471 481.683 95.565 481.284 96.0874 480.908C96.7913 480.403 97.5085 479.932 98.2257 479.493C98.4183 479.381 98.6042 479.261 98.7968 479.155C108.094 473.743 118.779 471.538 129.344 476.027C134.86 477.374 139.815 480.419 143.508 484.733C143.673 485.517 143.788 486.311 143.854 487.11C143.854 487.256 143.887 487.402 143.893 487.555C143.996 489.031 143.971 490.513 143.82 491.985Z" fill="#19151A"/>
<path d="M147.938 514.755C147.332 517.386 146.48 519.954 145.394 522.425L145.122 522.339V522.206C145.121 521.185 144.996 520.169 144.75 519.178C144.251 517.233 143.285 515.438 141.934 513.952C142.293 512.989 142.638 512.059 142.984 511.149C143.063 510.93 143.15 510.711 143.229 510.485C144.259 507.763 145.222 505.213 146.032 502.596C146.81 500.138 147.404 497.625 147.811 495.079C150.01 502.244 149.193 509.516 147.938 514.755Z" fill="#19151A"/>
<path d="M98.2258 479.513C97.5086 479.952 96.7914 480.423 96.0875 480.928C96.7515 480.443 97.4621 479.972 98.2258 479.513Z" fill="#19151A"/>
<path d="M130.791 510.06C129.172 510.326 127.622 510.911 126.231 511.783C124.84 512.654 123.636 513.793 122.69 515.134C121.972 516.149 121.414 517.269 121.036 518.454C119.066 517.615 117.043 516.908 114.98 516.336C115.239 516.336 114.449 515.326 114.821 515.499C115.134 514.615 115.57 513.779 116.116 513.015C118.772 509.244 124.038 506.269 128.235 508.247C129.191 508.691 130.057 509.305 130.791 510.06Z" fill="#19151A"/>
<path d="M132.956 514.045C132.956 514.131 133.003 514.217 133.023 514.31L133.254 514.051L132.956 514.045Z" fill="#19151A"/>
<path d="M135.998 650.138C135.334 651.519 134.729 652.921 134.105 654.315C133.361 655.982 132.611 657.636 131.821 659.289H104.866L102.111 649.388H121.455C124.164 651.234 131.549 650.557 135.998 650.138Z" fill="#19151A"/>
<path d="M85.4026 589.416H1L20.4571 659.289L104.866 659.289L85.4026 589.416ZM50.4131 632.786C48.9833 632.784 47.5865 632.357 46.399 631.561C45.2115 630.765 44.2867 629.634 43.7414 628.313C43.196 626.991 43.0547 625.538 43.3353 624.136C43.6158 622.734 44.3056 621.446 45.3175 620.436C46.3294 619.426 47.6179 618.739 49.0204 618.461C50.4228 618.183 51.8762 618.327 53.1968 618.875C54.5175 619.422 55.6461 620.349 56.4402 621.538C57.2342 622.727 57.658 624.125 57.658 625.555C57.6545 627.474 56.8896 629.313 55.5313 630.669C54.173 632.025 52.3322 632.786 50.4131 632.786Z" fill="#19151A"/>
<path d="M57.658 625.555C57.658 626.989 57.2325 628.391 56.4354 629.584C55.6383 630.777 54.5054 631.706 53.1799 632.255C51.8545 632.803 50.3961 632.947 48.9893 632.666C47.5824 632.386 46.2903 631.695 45.2764 630.68C44.2625 629.665 43.5724 628.372 43.2934 626.965C43.0143 625.558 43.1588 624.1 43.7087 622.775C44.2586 621.45 45.1891 620.318 46.3825 619.522C47.5759 618.726 48.9785 618.302 50.4131 618.303C51.365 618.303 52.3077 618.491 53.1871 618.855C54.0665 619.22 54.8655 619.754 55.5383 620.427C56.2112 621.101 56.7447 621.9 57.1084 622.78C57.4721 623.66 57.6589 624.603 57.658 625.555Z" fill="#19151A"/>
<path d="M170.41 653.671C169.493 654.056 168.563 654.415 167.62 654.734C167.202 654.873 166.77 655.012 166.339 655.139C164.347 655.736 162.268 656.221 160.156 656.726V656.825C160.097 657.084 160.037 657.343 159.984 657.602C159.509 660.005 158.902 662.379 158.164 664.714C157.885 665.545 157.374 669.469 156.57 669.921C154.744 670.957 153.091 669.037 151.258 668.891C147.539 668.586 144.617 670.279 140.215 669.436C136.449 668.719 137.246 668.579 134.105 669.25C132.551 669.582 132.239 671.72 129.616 670.452C125.997 668.692 129.357 664.117 130.42 662.118C130.884 661.248 131.323 660.365 131.748 659.462L133.66 659.276H131.841C132.631 657.642 133.381 655.955 134.125 654.302C134.749 652.907 135.373 651.506 136.018 650.125C131.568 650.543 124.184 651.221 121.475 649.381C120.545 648.757 120.146 647.827 120.651 646.493C125.233 642.92 130.778 642.8 136.21 640.928C137.186 640.589 138.07 640.264 138.926 639.998C140.725 639.364 142.638 639.122 144.538 639.287C145.465 639.391 146.385 639.55 147.293 639.766C150.049 638.584 152.858 637.548 155.594 636.233C157.281 635.423 158.915 634.699 160.615 634.021C162.926 640.768 166.505 647.329 170.41 653.671Z" fill="#19151A"/>
<path d="M133.634 659.289L131.715 659.475C131.748 659.415 131.781 659.349 131.807 659.289H133.634Z" fill="#19151A"/>
<path d="M101.958 527.671C101.569 525.129 100.453 522.753 98.7437 520.832C96.3265 517.996 93.0394 516.243 90.1706 516.243C88.8594 516.214 87.5801 516.649 86.5581 517.471L86.505 517.511C85.0042 518.786 84.3401 520.831 84.6456 523.269C85.0313 525.809 86.1455 528.182 87.853 530.102C90.2769 532.937 93.5573 534.691 96.4327 534.691C97.6483 534.715 98.8399 534.35 99.8328 533.648L100.112 533.429C101.599 532.147 102.257 530.102 101.958 527.671ZM99.1554 532.32C98.9505 532.493 98.7279 532.645 98.4913 532.771C97.8497 533.096 97.1383 533.257 96.4195 533.243C93.9624 533.243 91.1069 531.676 88.9554 529.166C87.4316 527.459 86.4331 525.349 86.08 523.089C85.9423 522.373 85.9593 521.636 86.1299 520.927C86.3006 520.218 86.6209 519.554 87.0694 518.979C87.1793 518.846 87.3016 518.723 87.4347 518.614C88.2074 517.985 89.1816 517.657 90.1772 517.69C92.6343 517.69 95.4898 519.251 97.648 521.768C99.1645 523.476 100.156 525.586 100.503 527.844C100.756 529.783 100.271 531.37 99.1753 532.32H99.1554Z" fill="#19151A"/>
<path d="M99.1753 532.32C98.9704 532.493 98.7479 532.645 98.5113 532.771C93.3847 529.252 89.2144 524.537 87.0894 518.979C87.1992 518.846 87.3215 518.723 87.4546 518.614C88.2273 517.985 89.2015 517.657 90.1972 517.691C92.6542 517.691 95.5097 519.251 97.6679 521.768C99.1773 523.479 100.162 525.588 100.503 527.844C100.756 529.783 100.271 531.37 99.1753 532.32Z" fill="#19151A"/>
<path d="M249.254 624.399C242.546 630.862 235.247 636.683 227.453 641.784C218.774 647.517 209.792 652.775 200.545 657.536C194.064 660.923 187.642 664.044 181.566 666.899L179.527 667.862C177.276 664.343 174.879 660.743 172.548 657.064L172.335 656.732L171.419 655.278C171.08 654.747 170.755 654.209 170.423 653.671C166.518 647.329 162.932 640.768 160.608 634.035C160.508 633.749 160.409 633.457 160.316 633.171C178.657 623.25 190.83 618.768 206.674 609.803C199.934 604.603 180.776 577.058 177.86 561.127C175.961 550.847 176.472 534.359 190.949 533.768C202.789 533.283 214.251 551.299 220.095 559.726C234.266 580.186 244.021 600.552 249.254 624.399Z" fill="#19151A"/>
<path d="M151.085 517.299C150.813 519.032 150.461 520.785 150.009 522.532C149.968 522.704 149.865 522.856 149.719 522.957C149.573 523.059 149.395 523.103 149.219 523.082C149.042 523.06 148.88 522.975 148.763 522.842C148.645 522.708 148.581 522.536 148.582 522.359C148.575 522.297 148.575 522.235 148.582 522.173C149.08 520.217 149.471 518.235 149.751 516.236C150.813 508.633 150.136 501.308 147.798 495.033C147.931 494.189 148.044 493.326 148.13 492.429C148.13 492.33 148.13 492.224 148.13 492.124C151.49 499.342 152.506 508.161 151.085 517.299Z" fill="#19151A"/>
<path d="M131.582 466.325C115.684 461.677 97.1499 469.692 92.8534 483.591C93.1257 483.325 93.398 483.066 93.6835 482.827C93.9691 482.588 94.062 482.488 94.2546 482.329C94.3476 482.243 94.4406 482.17 94.5335 482.097C95.0471 481.676 95.565 481.278 96.0874 480.901C96.7515 480.417 97.4621 479.945 98.2257 479.487C98.4183 479.374 98.6042 479.254 98.7968 479.148C99.7929 478.55 100.789 478.019 101.712 477.548C101.712 477.548 114.993 465.203 130.347 470.469C137.432 472.899 142.12 477.847 143.515 484.726C143.679 485.511 143.795 486.305 143.86 487.104C143.86 487.25 143.893 487.396 143.9 487.549C143.999 489.016 143.972 490.489 143.82 491.951C143.674 493.426 143.455 494.827 143.156 496.181C142.267 500.611 140.786 504.542 139.125 508.931L138.727 509.994C138.581 510.379 138.428 510.778 138.282 511.176C137.926 510.993 137.56 510.829 137.186 510.685C134.619 509.7 131.797 509.6 129.167 510.4C126.537 511.2 124.248 512.854 122.663 515.101C121.132 517.277 120.349 519.892 120.431 522.551C120.514 525.211 121.458 527.772 123.122 529.849C124.275 531.299 125.74 532.469 127.409 533.274C129.077 534.078 130.905 534.497 132.757 534.498C133.223 534.498 133.689 534.472 134.152 534.418C137.136 534.083 139.896 532.669 141.911 530.442C143.927 528.215 145.059 525.329 145.095 522.326V522.193C145.094 521.172 144.97 520.155 144.724 519.165C144.225 517.219 143.258 515.425 141.908 513.939C142.267 512.976 142.612 512.046 142.957 511.136C143.037 510.917 143.123 510.698 143.203 510.472C144.232 507.749 145.195 505.199 146.005 502.583C146.783 500.125 147.378 497.612 147.785 495.066L147.606 494.515C147.672 494.674 147.732 494.833 147.792 494.999C147.924 494.156 148.037 493.293 148.124 492.396C148.124 492.297 148.124 492.19 148.124 492.091C149.319 479.513 143.004 469.679 131.582 466.325ZM132.784 530.374C131.178 530.375 129.608 529.905 128.267 529.02C126.927 528.136 125.877 526.877 125.247 525.4C124.812 524.394 124.586 523.309 124.582 522.213C124.58 521.525 124.667 520.84 124.841 520.174C125.296 518.415 126.324 516.858 127.762 515.748C129.2 514.638 130.967 514.039 132.784 514.045H133.254C135.127 514.151 136.908 514.898 138.296 516.16C139.683 517.422 140.595 519.123 140.879 520.978C140.94 521.384 140.971 521.795 140.972 522.206C140.968 524.375 140.104 526.453 138.568 527.985C137.033 529.517 134.952 530.376 132.784 530.374Z" fill="#19151A"/>
<path d="M96.0875 480.928C96.7515 480.443 97.4621 479.972 98.2258 479.513C97.5086 479.952 96.7914 480.423 96.0875 480.928Z" fill="#19151A"/>
<path d="M147.818 495.019C147.818 495.019 147.818 495.053 147.818 495.072L147.639 494.521C147.699 494.694 147.758 494.853 147.818 495.019Z" fill="#19151A"/>
<path d="M140.972 522.206C140.963 524.09 140.306 525.913 139.11 527.369C137.915 528.825 136.254 529.825 134.408 530.2C132.562 530.575 130.643 530.302 128.975 529.428C127.306 528.554 125.989 527.131 125.247 525.4C124.812 524.394 124.586 523.309 124.582 522.213C124.58 521.525 124.667 520.84 124.841 520.174C125.296 518.415 126.324 516.858 127.762 515.748C129.2 514.638 130.967 514.039 132.784 514.045L132.956 514.045C132.956 514.131 133.003 514.217 133.023 514.31L133.254 514.051C135.126 514.158 136.906 514.903 138.294 516.164C139.681 517.425 140.594 519.124 140.879 520.978C140.94 521.384 140.971 521.795 140.972 522.206Z" fill="#19151A"/>
<path d="M133.254 514.045L133.023 514.303C133.023 514.21 132.976 514.124 132.956 514.038L133.254 514.045Z" fill="#19151A"/>
<path d="M311.404 707.367H232.081V708.828H311.404V707.367Z" fill="#19151A"/>
<path d="M311.404 710.289H232.081V711.75H311.404V710.289Z" fill="#19151A"/>
<path d="M317.208 697.42V717.169H237.932V717.401H232.739V713.211H311.41V701.61H232.739V697.42H317.208Z" fill="#19151A"/>
<path d="M322.407 717.176H237.932V730.915H322.407V717.176Z" fill="#19151A"/>
<path d="M311.404 701.617H232.081V702.978H311.404V701.617Z" fill="#19151A"/>
<path d="M311.404 704.439H232.081V705.9H311.404V704.439Z" fill="#19151A"/>
<path d="M311.404 711.75H232.081V713.211H311.404V711.75Z" fill="#19151A"/>
<path d="M311.404 708.828H232.081V710.289H311.404V708.828Z" fill="#19151A"/>
<path d="M311.404 705.9H232.081V707.367H311.404V705.9Z" fill="#19151A"/>
<path d="M311.404 702.978H232.081V704.439H311.404V702.978Z" fill="#19151A"/>
<path d="M315.043 738.226H221.47V739.687H315.043V738.226Z" fill="#19151A"/>
<path d="M315.043 744.077H221.47V745.538H315.043V744.077Z" fill="#19151A"/>
<path d="M321.889 731.207V751.182H222.233V746.999H315.043V735.398H222.233V731.207H321.889Z" fill="#19151A"/>
<path d="M315.043 735.404H221.47V736.766H315.043V735.404Z" fill="#19151A"/>
<path d="M315.043 741.148H221.47V742.616H315.043V741.148Z" fill="#19151A"/>
<path d="M315.043 745.538H221.47V746.999L315.043 746.999L315.043 745.538Z" fill="#19151A"/>
<path d="M315.043 742.616H221.47V744.077H315.043V742.616Z" fill="#19151A"/>
<path d="M315.043 739.687H221.47V741.148H315.043V739.687Z" fill="#19151A"/>
<path d="M315.043 736.766H221.47V738.226H315.043V736.766Z" fill="#19151A"/>
<path d="M664.187 162.023H608.914L646.774 84.9462H700.855M664.187 162.023L700.855 84.9462M664.187 162.023H555.144V167.661H667.216L705.976 87.379L700.855 84.9462M616.085 154.816L663.591 154.95L694.743 90.2193M616.085 154.816L647.839 90.1463L694.743 90.2193M616.085 154.816L647.839 90.1341L694.743 90.2193M616.085 154.816L663.591 154.962L694.743 90.2193M572.568 162.85V166.536H578.225V162.85M572.568 162.85H578.225M572.568 162.85L572.568 166.53H578.224L578.225 162.85M581.089 162.85V166.536H589.306V162.85M581.089 162.85H589.306M581.089 162.85L581.089 166.53H589.306L589.306 162.85M747.547 101.009L745.199 102.943C745.108 102.837 745.006 102.741 744.895 102.657L746.72 100.224C747.017 100.462 747.294 100.724 747.547 101.009ZM747.547 101.009L745.205 102.949L744.931 103.162L745.418 103.752L745.655 103.557L748.009 101.617L748.374 101.313L747.893 100.723L747.547 101.009ZM766.778 122.958L761.723 167.661H739.342L734.282 122.958H766.778ZM766.778 122.958L767.009 120.921H764.108V119.936L767.94 119.918V122.959L766.778 122.958ZM754.559 148.034L755.575 148.959C755.784 148.84 755.987 148.71 756.183 148.57C756.205 148.545 756.232 148.524 756.262 148.509L756.152 148.424L755.885 148.205L756.073 147.919L757.734 145.255L755.301 143.175L755.264 142.98L757.089 140.548L755.088 137.993L755.514 137.652L757.77 140.535L755.946 142.968L758.451 145.115L756.627 148.053L756.712 148.126L756.688 148.107C757.833 147.116 758.694 145.837 759.183 144.403C759.672 142.969 759.771 141.431 759.47 139.946C759.17 138.461 758.48 137.083 757.472 135.952C756.463 134.821 755.173 133.979 753.732 133.511C752.915 133.244 752.061 133.109 751.202 133.109C751.007 133.109 750.818 133.109 750.63 133.109C748.935 133.247 747.318 133.886 745.988 134.946C744.658 136.006 743.674 137.439 743.161 139.061C742.649 140.683 742.632 142.421 743.112 144.053C743.591 145.685 744.547 147.137 745.856 148.223L746.105 148.022L744.28 145.085L746.774 142.913L744.949 140.481L747.218 137.598L747.644 137.938L745.631 140.493L747.516 143.029L744.98 145.194L746.804 148.144L746.3 148.564C746.516 148.723 746.741 148.869 746.975 149.001L748.191 148.022L746.367 145.085L748.915 142.907L747.09 140.475L749.353 137.592L749.772 137.932L747.771 140.487L749.645 143.023L747.102 145.188L748.927 148.138L747.528 149.275C748.682 149.844 749.952 150.139 751.238 150.139C751.962 150.138 752.684 150.046 753.385 149.865C753.988 149.702 754.571 149.474 755.125 149.184L753.841 148.138L755.666 145.212L753.136 143.065L754.918 140.633L755.021 140.505L754.875 140.316L753.051 137.951L753.47 137.61L754.723 139.209L755.733 140.493L755.07 141.375L753.908 142.95L755.556 144.355L756.42 145.097L755.812 146.04L754.559 148.034ZM754.559 148.034L755.775 146.027L756.384 145.085L753.914 142.98L755.076 141.405L755.739 140.523L754.729 139.24L753.476 137.64L753.057 137.981L754.881 140.347L755.027 140.535L754.924 140.663L753.142 143.096L755.672 145.243V145.285L753.847 148.211L755.131 149.257C754.577 149.547 753.994 149.775 753.391 149.938C752.69 150.119 751.969 150.211 751.244 150.212C749.958 150.212 748.688 149.917 747.534 149.348L748.933 148.211L747.109 145.261L749.651 143.096L747.778 140.56L749.779 138.005L749.359 137.665L747.096 140.548L748.921 142.98L746.409 145.127L748.234 148.065L747.017 149.044C746.784 148.912 746.558 148.765 746.342 148.606L746.847 148.187L745.022 145.237L747.559 143.072L745.673 140.535L747.686 137.981L747.261 137.64L744.992 140.523L746.817 142.956L744.305 145.103L746.129 148.041L745.88 148.241C744.571 147.155 743.616 145.703 743.136 144.071C742.656 142.439 742.673 140.701 743.186 139.079C743.698 137.457 744.682 136.025 746.013 134.965C747.343 133.905 748.959 133.265 750.654 133.128C750.843 133.128 751.031 133.128 751.226 133.128C752.085 133.127 752.939 133.262 753.756 133.529L753.817 133.48C755.258 133.948 756.548 134.791 757.557 135.922C758.565 137.053 759.255 138.431 759.556 139.916C759.856 141.401 759.757 142.939 759.268 144.373C758.779 145.807 757.918 147.085 756.773 148.077L756.688 148.004L758.512 145.066L756.006 142.92L757.831 140.487L755.575 137.604L755.149 137.944L757.15 140.499L755.325 142.932L755.252 143.041L755.362 143.126L757.795 145.206L756.134 147.87L755.946 148.156L756.213 148.375L756.323 148.46C756.293 148.475 756.266 148.496 756.244 148.521C756.048 148.662 755.845 148.792 755.635 148.91L754.559 148.034ZM750.971 142.044L751.019 142.883L751.579 142.822L751.512 142.001M750.971 142.044C750.965 141.492 750.845 140.947 750.618 140.444C750.517 140.232 750.352 140.057 750.148 139.941C749.943 139.826 749.708 139.776 749.474 139.799L749.347 139.27C749.694 139.218 750.05 139.277 750.362 139.44C750.673 139.603 750.925 139.861 751.08 140.177C751.357 140.745 751.504 141.369 751.512 142.001M750.971 142.044L751.044 142.883L751.579 142.834L751.512 142.001M753.409 139.07C753.19 139.058 752.97 139.097 752.768 139.183C752.565 139.27 752.385 139.402 752.242 139.568L752.655 139.921C752.739 139.82 752.845 139.739 752.966 139.686C753.086 139.634 753.217 139.61 753.349 139.617L753.385 139.07H753.409ZM753.409 139.07L753.373 139.617C753.242 139.61 753.11 139.634 752.99 139.686C752.87 139.739 752.763 139.82 752.68 139.921L752.266 139.568C752.407 139.405 752.583 139.275 752.781 139.189C752.979 139.103 753.194 139.062 753.409 139.07ZM514.218 156.537C528.772 155.826 546.908 154.633 551.525 152.973C556.39 151.228 562.874 148.15 568.092 146.611C565.696 144.921 563.445 143.345 562.107 142.415C558.166 139.696 546.604 147.086 538.594 149.956C530.584 152.827 515.38 149.999 515.38 149.999M514.218 156.537L515.38 149.999M514.218 156.537C511.974 156.653 509.808 156.744 507.795 156.835C502.68 157.054 498.532 157.2 496.367 157.273V156.951C496.367 156.951 493.326 157.03 481.521 153.301C479.657 152.727 477.829 152.041 476.047 151.246C469.643 148.345 465.884 144.355 464.151 137.738C463.201 134.111 462.864 130.351 463.154 126.614C464.978 104.111 489.215 88.8326 489.215 88.8326C489.215 88.8326 477.27 111.689 475.834 138.547C484.428 144.069 496.89 148.624 515.38 149.999M515.215 331.801C517.978 333.566 520.876 335.11 523.882 336.417C537.262 342.159 541.429 349.871 541.562 350.12H588.229C588.229 350.12 584.154 342.274 570.549 336.442C556.944 330.609 544.251 318.688 544.251 318.688H519.923L515.215 331.801ZM515.215 331.801C509.41 328.043 504.053 323.633 499.25 318.658H473.28L462.016 350.114H541.562C541.428 349.864 537.262 342.14 523.882 336.442C520.875 335.126 517.977 333.575 515.215 331.801ZM509.814 180.093C532.841 184.849 550.637 194.659 542.432 215.338C538.758 224.625 522.355 263.72 510.842 291.052C512.776 301.939 516.073 311.731 519.904 318.658H544.232C545.479 311.7 560.775 218.099 561.262 202.997C562.034 179.338 535.055 177.362 518.433 175.628M509.814 180.093C512.679 178.621 515.635 177.094 518.433 175.628M509.814 180.093C503.434 183.359 497.468 186.363 494.5 187.847L495.157 176.972L495.358 173.792L496.367 157.261C498.532 157.188 502.68 157.042 507.795 156.823C509.808 156.732 511.974 156.64 514.218 156.525C528.772 155.813 546.908 154.621 551.525 152.961C556.39 151.215 562.874 148.138 568.092 146.599C571.486 145.583 574.35 145.231 575.895 146.301C579.836 149.032 593.46 160.849 593.46 160.849C593.46 160.849 590.133 164.498 582.871 159.943C575.609 155.388 575.451 154.031 571.51 156.902C567.569 159.773 556.372 167.965 549.262 165.538C542.152 163.112 538.357 163.872 532.002 168.117C529.812 169.565 524.49 172.454 518.433 175.628M493.131 210.162C493.131 210.162 468.457 210.66 457.637 198.655C455.44 196.188 453.063 193.887 450.527 191.77H450.369C443.679 191.769 437.01 191.018 430.487 189.532C421.687 187.541 413.089 184.744 404.803 181.175C400.448 179.334 395.856 177.197 391.027 174.765C389.32 173.909 387.585 173.003 385.821 172.046C383.236 185.128 383.613 207.838 413.737 216.353C434.416 222.204 478.808 221.809 490.559 219.729C491.603 219.542 492.678 219.777 493.55 220.381C494.422 220.985 495.019 221.909 495.211 222.952C495.326 223.559 495.295 224.184 495.12 224.777C493.934 228.949 493.423 231.132 483.771 246.009C467.216 271.51 464.4 299.323 473.256 318.652H499.226C499.226 318.652 504.231 306.804 510.842 291.064C522.361 263.732 538.783 224.637 542.432 215.35C550.636 194.659 532.841 184.861 509.814 180.086C503.434 183.352 497.468 186.357 494.5 187.841L493.131 210.162ZM493.131 210.162L494.524 187.859L495.181 176.985L495.382 173.804L496.391 157.273V156.951C496.391 156.951 493.32 157.03 481.545 153.35C479.681 152.776 477.853 152.09 476.071 151.294C469.649 148.393 465.908 144.404 464.175 137.786C463.225 134.158 462.888 130.396 463.178 126.656C464.984 104.147 489.239 88.8752 489.239 88.8752C489.239 88.8752 476.746 91.7763 474.034 73.6338C437.779 83.4501 416.34 112.09 414.978 141.399C414.577 149.695 415.234 157.37 417.618 163.939M493.131 210.162C493.131 210.162 468.457 210.642 457.661 198.673C455.464 196.206 453.087 193.905 450.551 191.788C441.635 184.38 434.221 182.477 428.352 178.298C427.902 177.976 427.47 177.654 427.051 177.313C422.708 173.834 419.438 169.197 417.618 163.939M417.618 163.939C415.185 157.34 414.577 149.664 414.936 141.369C416.298 112.06 437.737 83.4197 473.991 73.6034C463.864 74.9025 454.045 77.9784 444.987 82.6898C440.021 85.3029 435.258 88.2833 430.737 91.606C409.912 106.853 409.863 115.849 398.155 125.099L398.076 125.166C386.399 134.374 371.036 145.322 376.181 166.609C379.51 168.587 382.738 170.412 385.864 172.083C387.623 173.035 389.359 173.942 391.07 174.801C395.899 177.246 400.491 179.383 404.846 181.212C413.126 184.779 421.718 187.577 430.511 189.568C437.034 191.054 443.703 191.805 450.393 191.806H450.552C441.635 184.399 434.221 182.495 428.352 178.317C427.902 177.994 427.47 177.672 427.051 177.319C422.707 173.838 419.437 169.2 417.618 163.939ZM509.456 61.0502C508.616 60.2248 508.068 59.1491 507.893 57.9849C507.572 56.2884 507.721 54.5364 508.324 52.9186C509.602 49.4519 512.497 47.6273 514.796 48.8437C515.404 49.2196 515.923 49.7252 516.314 50.3244C516.705 50.9237 516.959 51.6018 517.058 52.3104C517.095 52.4929 517.131 52.6693 517.131 52.8517C518.141 52.128 519.272 51.5137 520.428 51.6353C520.407 51.2301 520.407 50.8241 520.428 50.4189C520.464 49.9141 520.464 49.4276 520.464 48.9471V48.7342C520.464 48.5822 520.482 48.4727 520.464 48.2781C520.446 48.0835 520.428 47.8828 520.415 47.6699C520.403 47.457 520.397 47.2198 520.367 47.0313C520.336 46.8427 520.318 46.6299 520.288 46.4231C520.227 45.9913 520.166 45.5716 520.075 45.1459C520.044 44.9573 519.996 44.7445 519.947 44.5377C519.862 44.1545 519.758 43.7349 519.643 43.3213C519.576 43.1267 519.521 42.9199 519.454 42.7131C519.388 42.5063 519.327 42.3056 519.254 42.1049C519.108 41.6913 518.956 41.2838 518.804 40.8885C518.548 40.2985 518.281 39.7086 517.983 39.1369C517.885 39.4714 515.994 44.9756 504.213 50.4919C496.538 54.0924 497.967 58.2403 497.243 64.967C496.947 67.8798 496.208 70.7304 495.054 73.4209C494.938 73.7007 494.81 74.017 494.67 74.3089C488.88 74.0238 483.13 73.1827 477.501 71.797C475.518 72.9465 474.034 73.6216 474.034 73.6216C476.723 91.7641 489.239 88.863 489.239 88.863C491.721 83.7945 494.523 78.8887 497.626 74.1751C501.013 74.9895 504.572 74.6843 507.771 73.3054C514.035 70.3799 516.894 63.8905 518.293 63.9939C519.692 64.0973 522.714 63.635 522.982 62.1693C523.152 61.2631 522.015 59.0736 521.194 56.2211C520.955 55.6255 520.801 54.9989 520.738 54.3601C520.622 53.8005 520.537 53.1923 520.476 52.5841M509.456 61.0502C509.666 61.2335 509.897 61.3926 510.143 61.5246C510.719 61.817 511.365 61.9439 512.01 61.8913C512.654 61.8387 513.271 61.6086 513.792 61.2266C515.115 60.3041 516.101 58.9762 516.602 57.4436C517.028 56.3005 517.235 55.0871 517.21 53.8674C518.153 53.1497 519.339 52.3895 520.476 52.5841M509.456 61.0502C508.631 60.2457 508.083 59.1999 507.892 58.0639C507.571 56.3673 507.721 54.6153 508.324 52.9976C509.601 49.5309 512.496 47.7063 514.795 48.9227C515.404 49.2986 515.923 49.8042 516.314 50.4034C516.705 51.0027 516.959 51.6807 517.058 52.3894C517.094 52.5719 517.131 52.7482 517.131 52.9307C518.14 52.2069 519.272 51.5927 520.427 51.7143C520.587 51.7386 520.745 51.771 520.902 51.8116C520.979 51.4492 521.085 51.0933 521.218 50.7473C522.069 48.3875 523.809 46.9096 525.475 46.9096C525.931 46.9048 526.381 47.0157 526.783 47.2319C528.772 48.2962 529.502 51.5988 528.413 54.5972C527.324 57.5956 524.818 59.1708 522.836 58.1065C522.616 58 522.412 57.8651 522.228 57.705C521.786 57.2909 521.441 56.7841 521.218 56.221C520.979 55.6254 520.825 54.9988 520.762 54.36C520.704 53.7917 520.704 53.2192 520.762 52.6509C520.668 52.6229 520.573 52.6006 520.476 52.5841M488.029 52.803C489.18 52.7764 490.312 53.0934 491.282 53.7135C492.252 54.3336 493.015 55.2287 493.473 56.2844C493.932 57.3402 494.065 58.5086 493.857 59.6406C493.648 60.7726 493.107 61.8168 492.302 62.6397C491.497 63.4627 490.466 64.0271 489.339 64.2609C488.212 64.4947 487.04 64.3872 485.975 63.9522C484.909 63.5173 483.997 62.7745 483.356 61.8189C482.714 60.8632 482.372 59.738 482.373 58.587C482.356 57.0701 482.943 55.6089 484.004 54.5243C485.064 53.4398 486.512 52.8207 488.029 52.803ZM488.029 52.803C486.916 52.8033 485.827 53.132 484.9 53.7481C483.973 54.3641 483.248 55.2401 482.817 56.2662C482.385 57.2923 482.266 58.423 482.474 59.5166C482.682 60.6101 483.208 61.618 483.986 62.4139C484.765 63.2098 485.761 63.7583 486.849 63.9907C487.938 64.2232 489.071 64.1292 490.106 63.7207C491.142 63.3121 492.034 62.607 492.67 61.6938C493.307 60.7806 493.66 59.6998 493.685 58.5869C493.701 57.0701 493.115 55.6088 492.054 54.5243C490.993 53.4397 489.546 52.8207 488.029 52.803ZM138.833 616.855C137.505 618.004 136.482 618.847 135.666 619.512C135.701 619.641 135.719 619.775 135.719 619.91C135.752 621.663 132.996 622.5 131.07 623.071C130.851 623.257 130.612 623.469 130.347 623.735C133.109 624.439 135.991 625.727 131.562 627.5C129.358 628.423 127.05 629.072 124.689 629.433C120.525 633.842 116.567 637.787 117.231 629.665C116.451 629.64 115.681 629.483 114.954 629.2C112.623 639.062 109.276 650.364 102.469 648.266C104.328 641.512 106.938 634.446 108.612 627.719C110.717 619.253 110.039 613.548 116.189 608.07C123.088 601.927 130.745 601.741 138.767 602.478L138.807 616.849L138.833 616.855ZM138.833 616.855L138.906 640.011C140.705 639.377 142.618 639.135 144.518 639.301C145.445 639.404 146.366 639.564 147.274 639.779C150.029 638.597 152.838 637.574 155.574 636.246C157.274 635.436 158.928 634.699 160.595 634.035C160.495 633.749 160.396 633.457 160.303 633.171C178.644 623.25 190.816 618.768 206.661 609.803C199.921 604.603 180.789 577.064 177.847 561.127C175.948 550.847 176.459 534.359 190.936 533.768C202.769 533.303 214.238 551.299 220.035 559.726C234.246 580.186 244.001 600.552 249.254 624.399M138.833 616.855L138.621 544.632C140.613 545.96 142.877 547.394 145.574 549.048C151.172 552.481 156.537 551.339 160.462 545.316C162.859 541.637 167.049 534.87 166.093 530.188C165.363 526.615 163.019 524.637 160.19 522.97C161.664 522.83 163.271 522.744 165.031 522.698C185.398 522.16 197.278 529.172 205.718 535.534C217.943 544.738 229.996 554.261 237.752 567.17C254.925 595.579 254.567 626.936 251.472 657.483C250.808 657.523 250.097 657.562 249.267 657.596C240.375 657.954 220.786 657.821 200.545 657.543C209.792 652.782 218.774 647.524 227.453 641.791C235.247 636.687 242.546 630.865 249.254 624.399M131.715 659.475L133.634 659.289H131.807C131.781 659.349 131.748 659.415 131.715 659.475ZM131.715 659.475C120.034 660.63 105.331 662.483 97.0703 667.039C73.3233 680.114 82.7132 711.75 104.594 717.302C105.537 717.542 106.493 717.731 107.456 717.866C118.254 719.394 129.656 719.613 141.104 719.467C151.623 719.334 162.188 718.876 172.382 718.876C177.586 718.958 182.782 719.32 187.948 719.958C205.28 721.831 223.223 724.314 235.973 711.099C248.663 697.951 249.54 676.741 249.254 657.609C240.375 657.968 220.772 657.835 200.532 657.556C194.05 660.943 187.629 664.064 181.553 666.919L179.501 667.875C177.249 664.382 174.859 660.757 172.521 657.078L169.48 657.025C166.332 657.303 163.138 657.476 159.951 657.616C159.476 660.018 158.869 662.393 158.131 664.728C157.865 665.558 157.341 669.482 156.537 669.934C154.718 670.97 153.064 669.051 151.225 668.905C147.486 668.599 144.604 670.293 140.181 669.449C136.416 668.732 137.213 668.599 134.072 669.263C132.518 669.595 132.239 671.734 129.583 670.465C125.964 668.705 129.324 664.123 130.386 662.131C130.845 661.248 131.283 660.365 131.715 659.475ZM249.254 624.399C242.546 630.862 235.247 636.683 227.453 641.784C218.774 647.517 209.792 652.775 200.545 657.536C194.064 660.923 187.642 664.044 181.566 666.899L179.527 667.862C177.276 664.343 174.879 660.743 172.548 657.064L172.335 656.732L171.419 655.278C171.08 654.747 170.755 654.209 170.423 653.671C166.518 647.329 162.932 640.768 160.608 634.035C160.508 633.749 160.409 633.457 160.316 633.171C178.657 623.25 190.83 618.768 206.674 609.803C199.934 604.603 180.776 577.058 177.86 561.127C175.961 550.847 176.472 534.359 190.949 533.768C202.789 533.283 214.251 551.299 220.095 559.726C234.266 580.186 244.021 600.552 249.254 624.399ZM101.958 527.671C102.257 530.108 101.599 532.147 100.098 533.429L99.8195 533.648C105.729 537.397 112.54 539.484 119.536 539.691C122.408 539.749 125.263 539.237 127.936 538.184C131.617 540.125 135.185 542.276 138.621 544.625C140.633 545.933 142.877 547.387 145.574 549.041C151.165 552.474 156.537 551.332 160.462 545.309C162.859 541.63 167.049 534.863 166.093 530.155C165.363 526.582 163.019 524.603 160.19 522.937C158.503 521.947 156.637 521.064 154.837 520.021C153.537 519.203 152.293 518.3 151.112 517.319C150.84 519.052 150.488 520.805 150.036 522.551C149.995 522.724 149.891 522.876 149.745 522.977C149.6 523.079 149.422 523.123 149.245 523.101C149.069 523.08 148.907 522.995 148.789 522.861C148.672 522.728 148.607 522.556 148.608 522.379C148.602 522.317 148.602 522.255 148.608 522.193C149.107 520.237 149.497 518.255 149.777 516.256C149.179 515.771 148.562 515.267 147.944 514.775C147.338 517.406 146.487 519.974 145.401 522.445L145.129 522.359C145.092 525.362 143.96 528.249 141.945 530.476C139.929 532.703 137.17 534.117 134.185 534.452C133.722 534.505 133.256 534.531 132.79 534.531C130.938 534.53 129.11 534.112 127.442 533.307C125.774 532.502 124.308 531.332 123.155 529.883C121.888 528.302 121.032 526.432 120.664 524.441C120.295 522.449 120.426 520.397 121.043 518.467C119.073 517.629 117.05 516.921 114.987 516.349C115.246 516.349 114.455 515.34 114.827 515.512C115.14 514.628 115.576 513.792 116.122 513.029L86.7241 503.586C86.7507 503.679 86.7839 503.758 86.7839 503.812C86.7573 503.758 86.7308 503.685 86.6843 503.572C85.2331 508.085 85.189 512.933 86.5581 517.471M101.958 527.671C101.569 525.129 100.453 522.753 98.7437 520.832C96.3265 517.996 93.0394 516.243 90.1706 516.243C88.8594 516.214 87.5801 516.649 86.5581 517.471M101.958 527.671C102.257 530.102 101.599 532.147 100.112 533.429L99.8328 533.648C98.8399 534.35 97.6483 534.715 96.4327 534.691C93.5573 534.691 90.2769 532.937 87.853 530.102C86.1455 528.182 85.0313 525.809 84.6456 523.269C84.3401 520.831 85.0042 518.786 86.505 517.511L86.5581 517.471M132.956 514.045C132.956 514.131 133.003 514.217 133.023 514.31L133.254 514.051M132.956 514.045L133.254 514.051M132.956 514.045L132.784 514.045M133.254 514.051C135.126 514.158 136.906 514.903 138.294 516.164C139.681 517.425 140.594 519.124 140.879 520.978M133.254 514.045L133.023 514.303C133.023 514.21 132.976 514.124 132.956 514.038L133.254 514.045ZM133.254 514.045H132.784M133.254 514.045C135.127 514.151 136.908 514.898 138.296 516.16C139.683 517.422 140.595 519.123 140.879 520.978M104.866 659.289H131.821C132.611 657.636 133.361 655.982 134.105 654.315C134.729 652.921 135.334 651.519 135.998 650.138C131.549 650.557 124.164 651.234 121.455 649.388H102.111L104.866 659.289ZM104.866 659.289L20.4571 659.289L1 589.416H85.4026L104.866 659.289ZM57.658 625.555C57.658 624.125 57.2342 622.727 56.4402 621.538C55.6461 620.349 54.5175 619.422 53.1968 618.875C51.8762 618.327 50.4228 618.183 49.0204 618.461C47.6179 618.739 46.3294 619.426 45.3175 620.436C44.3056 621.446 43.6158 622.734 43.3353 624.136C43.0547 625.538 43.196 626.991 43.7414 628.313C44.2867 629.634 45.2115 630.765 46.399 631.561C47.5865 632.357 48.9833 632.784 50.4131 632.786C52.3322 632.786 54.173 632.025 55.5313 630.669C56.8896 629.313 57.6545 627.474 57.658 625.555ZM57.658 625.555C57.658 626.989 57.2325 628.391 56.4354 629.584C55.6383 630.777 54.5054 631.706 53.1799 632.255C51.8545 632.803 50.3961 632.947 48.9893 632.666C47.5824 632.386 46.2903 631.695 45.2764 630.68C44.2625 629.665 43.5724 628.372 43.2934 626.965C43.0143 625.558 43.1588 624.1 43.7087 622.775C44.2586 621.45 45.1891 620.318 46.3825 619.522C47.5759 618.726 48.9785 618.302 50.4131 618.303C51.365 618.303 52.3077 618.491 53.1871 618.855C54.0665 619.22 54.8655 619.754 55.5383 620.427C56.2112 621.101 56.7447 621.9 57.1084 622.78C57.4721 623.66 57.6589 624.603 57.658 625.555ZM100.503 527.844C100.156 525.586 99.1645 523.476 97.648 521.768C95.4898 519.251 92.6343 517.69 90.1772 517.69C89.1816 517.657 88.2074 517.985 87.4347 518.614C87.3016 518.723 87.1793 518.846 87.0694 518.979C86.6209 519.554 86.3006 520.218 86.1299 520.927C85.9593 521.636 85.9423 522.373 86.08 523.089C86.4331 525.349 87.4316 527.459 88.9554 529.166C91.1069 531.676 93.9624 533.243 96.4195 533.243C97.1383 533.257 97.8497 533.096 98.4913 532.771C98.7279 532.645 98.9505 532.493 99.1554 532.32H99.1753M100.503 527.844C100.756 529.783 100.271 531.37 99.1753 532.32M100.503 527.844C100.162 525.588 99.1773 523.479 97.6679 521.768C95.5097 519.251 92.6542 517.691 90.1972 517.691C89.2015 517.657 88.2273 517.985 87.4546 518.614C87.3215 518.723 87.1992 518.846 87.0894 518.979C89.2144 524.537 93.3847 529.252 98.5113 532.771C98.7479 532.645 98.9704 532.493 99.1753 532.32M125.247 525.4C125.877 526.877 126.927 528.136 128.267 529.02C129.608 529.905 131.178 530.375 132.784 530.374C134.952 530.376 137.033 529.517 138.568 527.985C140.104 526.453 140.968 524.375 140.972 522.206M125.247 525.4C124.812 524.394 124.586 523.309 124.582 522.213C124.58 521.525 124.667 520.84 124.841 520.174C125.296 518.415 126.324 516.858 127.762 515.748C129.2 514.638 130.967 514.039 132.784 514.045M125.247 525.4C125.989 527.131 127.306 528.554 128.975 529.428C130.643 530.302 132.562 530.575 134.408 530.2C136.254 529.825 137.915 528.825 139.11 527.369C140.306 525.913 140.963 524.09 140.972 522.206M140.879 520.978C140.94 521.384 140.971 521.795 140.972 522.206M311.404 707.367H232.081M311.404 707.367V708.828M311.404 707.367V705.9M232.081 707.367V708.828M232.081 707.367V705.9M232.081 708.828H311.404M232.081 708.828V710.289M311.404 708.828V710.289M311.404 710.289H232.081M311.404 710.289V711.75M232.081 710.289V711.75M232.081 711.75H311.404M232.081 711.75V713.211H311.404V711.75M232.081 702.978V701.617H311.404V702.978M232.081 702.978H311.404M232.081 702.978V704.439M311.404 702.978V704.439M311.404 704.439H232.081M311.404 704.439V705.9M232.081 704.439V705.9M232.081 705.9H311.404M315.043 738.226H221.47M315.043 738.226V739.687M315.043 738.226V736.766M221.47 738.226V739.687M221.47 738.226V736.766M221.47 739.687H315.043M221.47 739.687V741.148M315.043 739.687V741.148M315.043 744.077H221.47M315.043 744.077V745.538M315.043 744.077V742.616M221.47 744.077V745.538M221.47 744.077V742.616M221.47 745.538H315.043M221.47 745.538V746.999L315.043 746.999M315.043 745.538L315.043 746.999M315.043 746.999H222.233V751.182H321.889V731.207H222.233V735.398H315.043V746.999ZM221.47 736.766V735.404H315.043V736.766M221.47 736.766H315.043M315.043 741.148H221.47M315.043 741.148V742.616M221.47 741.148V742.616M221.47 742.616H315.043M641.045 138.109H637.348V134.423H641.045V138.109ZM645.041 133.821H641.343V130.135H645.041V133.821ZM674.235 100.887V104.196H667.368V97.3534H674.229V99.0077H675.36V100.887H674.235ZM675.36 99.0138V100.893H674.228V104.202H667.362V97.3595H674.228V99.0138H675.36ZM744.402 98.9834L743.186 101.781C742.645 101.598 742.092 101.45 741.532 101.337L727.872 97.6332L728.693 94.7078L742.681 98.5151C743.263 98.6399 743.838 98.7962 744.402 98.9834ZM751.007 116.548H747.966L746.045 104.895C746.04 104.825 746.026 104.755 746.002 104.688L748.788 103.405C748.868 103.674 748.931 103.949 748.976 104.226C748.982 104.271 748.982 104.316 748.976 104.36C748.976 104.36 748.976 104.39 748.976 104.403L751.007 116.548ZM746.044 99.7801L744.25 102.249C744.128 102.175 744.002 102.108 743.873 102.049L745.089 99.2692C745.423 99.4092 745.743 99.5802 746.044 99.7801ZM748.568 102.681L745.825 103.94C745.775 103.809 745.716 103.681 745.649 103.557L748.003 101.617C748.227 101.952 748.416 102.308 748.568 102.681ZM749.262 103.198L748.952 102.511L748.562 102.681L745.82 103.94L745.455 104.11L745.765 104.81L746.032 104.682L749.262 103.198ZM747.036 99.7193L746.695 100.206L744.901 102.663L744.731 102.894L744.123 102.45L744.269 102.243L746.063 99.774L746.428 99.2753L747.036 99.7193ZM745.278 98.88L745.108 99.2753L743.891 102.055L743.757 102.359L743.07 102.055L743.18 101.787L744.402 98.9895L744.591 98.5637L745.278 98.88ZM736.964 119.936H733.139V122.977H734.282L734.051 120.939H736.964V119.936ZM764.108 116.548H736.964V121.852H764.108V116.548ZM767.015 120.927L766.784 122.965H734.282L734.051 120.927H736.964V121.846H764.108V120.927H767.015ZM751.518 135.208H752.917V136.619H751.518V135.208ZM747.911 136.619H746.525V135.208H747.911V136.619ZM749.018 136.619V135.208H750.411V136.619H749.018ZM755.423 136.637H754.024V135.226H755.423V136.637ZM747.942 135.208H746.549V136.619H747.942V135.208ZM750.436 135.208H749.043V136.619H750.436V135.208ZM752.941 135.208H751.542V136.619H752.941V135.208ZM755.447 135.208H754.048V136.619H755.447V135.208ZM750.119 143.503C750.631 143.425 751.153 143.456 751.652 143.595L750.119 143.503ZM471.662 212.668H337.573C336.981 212.645 336.39 212.743 335.836 212.955C335.282 213.166 334.777 213.487 334.35 213.899C333.923 214.31 333.583 214.803 333.352 215.349C333.12 215.894 333 216.481 333 217.074C333 217.667 333.12 218.253 333.352 218.799C333.583 219.345 333.923 219.838 334.35 220.249C334.777 220.661 335.282 220.982 335.836 221.193C336.39 221.405 336.981 221.502 337.573 221.48H352.723C352.865 221.897 353.07 222.288 353.332 222.642L398.478 283.145L353.35 343.673C352.861 344.328 352.564 345.106 352.493 345.92C352.421 346.734 352.577 347.552 352.944 348.283C353.311 349.013 353.873 349.627 354.569 350.055C355.265 350.484 356.066 350.711 356.883 350.71C357.573 350.714 358.255 350.558 358.873 350.253C359.492 349.948 360.031 349.502 360.447 348.952L404 290.565L447.541 348.952C447.877 349.441 448.309 349.858 448.809 350.177C449.31 350.495 449.87 350.71 450.455 350.808C451.041 350.905 451.64 350.884 452.217 350.745C452.794 350.605 453.337 350.351 453.813 349.997C454.29 349.643 454.69 349.197 454.99 348.685C455.29 348.173 455.484 347.606 455.56 347.017C455.636 346.429 455.592 345.831 455.432 345.259C455.272 344.688 454.998 344.154 454.627 343.691L409.474 283.145L454.608 222.624C454.868 222.269 455.073 221.878 455.217 221.462H471.638C472.23 221.484 472.821 221.386 473.375 221.175C473.929 220.963 474.434 220.642 474.861 220.231C475.288 219.82 475.628 219.326 475.86 218.781C476.092 218.235 476.211 217.648 476.211 217.056C476.211 216.463 476.092 215.876 475.86 215.33C475.628 214.785 475.288 214.292 474.861 213.88C474.434 213.469 473.929 213.148 473.375 212.936C472.821 212.725 472.23 212.627 471.638 212.649L471.662 212.668ZM403.982 275.786L363.488 221.48H444.464L403.982 275.786ZM797.206 185.171V167.661H541.763V185.171H691.86V334.812H627.999V350.728H797.206V334.842H774.848V185.201L797.206 185.171ZM760.501 334.842H706.201V185.201H760.495L760.501 334.842ZM515.976 57.0969C515.524 58.4568 514.648 59.6357 513.476 60.4602C513.046 60.787 512.532 60.9855 511.994 61.0329C511.456 61.0802 510.915 60.9745 510.435 60.7278C509.929 60.4135 509.498 59.9918 509.174 59.4925C508.849 58.9933 508.638 58.4288 508.556 57.8389C508.271 56.3329 508.408 54.7777 508.951 53.3443C510.064 50.3034 512.533 48.6795 514.467 49.6952C514.666 49.7971 514.851 49.926 515.015 50.0783C515.737 50.7565 516.208 51.6588 516.353 52.6388C516.637 54.1314 516.507 55.6733 515.976 57.0969ZM527.732 54.2445C526.801 56.805 524.691 58.1856 523.091 57.322C521.492 56.4583 520.914 53.6728 521.875 51.1001C522.836 48.5275 524.916 47.1712 526.515 48.0592C528.115 48.9471 528.668 51.6962 527.732 54.2445ZM520.458 49.0201V48.8072C520.458 48.6551 520.458 48.5031 520.458 48.351C520.458 48.199 520.458 47.9375 520.409 47.7428C520.361 47.5482 520.409 47.311 520.361 47.1042C520.312 46.8974 520.312 46.6724 520.282 46.496C520.221 46.0642 520.16 45.6446 520.069 45.2188C520.038 45.012 519.99 44.7992 519.941 44.6106C519.856 44.1971 519.752 43.7774 519.637 43.3942C519.576 43.1935 519.521 42.9807 519.448 42.786C519.375 42.5914 519.321 42.3725 519.248 42.1778C519.108 41.7643 518.956 41.3629 518.798 40.9615C518.542 40.3533 518.275 39.7815 517.977 39.2098C517.879 39.5443 515.988 45.0485 504.207 50.5649C496.532 54.1654 497.961 58.3133 497.237 65.04C496.94 67.9527 496.202 70.8034 495.048 73.4939C494.932 73.7858 494.804 74.1021 494.664 74.3819C488.874 74.0968 483.124 73.2556 477.495 71.87C468.865 69.7778 458.696 65.934 451.343 58.9276C451.343 58.9276 452.881 48.3571 461.791 45.2432C466.523 43.5889 469.296 39.3801 471.078 35.8222C469.939 37.5554 468.551 39.1126 466.961 40.4445C460.8 45.2006 448.989 46.5569 448.946 56.3306C448.934 56.4181 448.893 56.4989 448.828 56.5597C448.764 56.6205 448.682 56.6576 448.593 56.6651C448.545 56.6701 448.497 56.6653 448.451 56.6511C448.404 56.6368 448.361 56.6134 448.324 56.5821C448.288 56.5509 448.257 56.5125 448.236 56.4693C448.214 56.426 448.201 56.3789 448.198 56.3306C448.235 48.3085 456.105 45.4682 462.15 42.3968C466.706 40.0796 469.406 36.923 472.161 32.7386C472.465 32.2825 472.769 31.8324 473.092 31.4006C474.54 28.5175 476.701 26.0515 479.368 24.236C477.056 23.8871 474.916 22.8035 473.267 21.1454C471.618 19.4872 470.545 17.3424 470.209 15.0279C470.13 14.5596 470.853 14.3528 470.926 14.8272C471.239 17.1077 472.316 19.2145 473.983 20.8023C475.649 22.3902 477.805 23.365 480.098 23.567C477.67 22.8503 475.547 21.3539 474.055 19.3092C472.563 17.2645 471.786 14.7853 471.844 12.2548C471.902 9.72426 472.792 7.28333 474.376 5.30926C475.96 3.33519 478.151 1.9379 480.609 1.33336C483.067 0.72882 485.655 0.950688 487.974 1.96467C490.294 2.97865 492.214 4.72829 493.44 6.94316C494.665 9.15803 495.126 11.7148 494.753 14.2183C494.38 16.7218 493.192 19.0326 491.374 20.7936C493.254 20.8163 495.128 21.0199 496.969 21.4018C510.125 24.0962 525.67 31.5952 520.458 49.0201ZM489.707 21.9431C500.308 18.2088 509.498 26.9608 509.498 26.9608C511.736 28.0673 513.797 29.5023 515.611 31.2181C512.643 21.3471 499.846 15.6483 488.85 18.9569C480.907 21.3532 476.516 28.4448 477.391 37.4521C477.872 42.3177 479.216 46.0034 480.803 50.2608C481.095 51.0575 481.412 51.8664 481.698 52.6936C480.27 54.305 479.487 56.3857 479.496 58.5383C479.535 60.2133 480.068 61.8393 481.027 63.2129C481.987 64.5865 483.33 65.6466 484.889 66.2604C486.448 66.8742 488.153 67.0144 489.791 66.6636C491.43 66.3127 492.928 65.4863 494.099 64.2879C495.27 63.0895 496.061 61.5723 496.373 59.9263C496.686 58.2803 496.506 56.5787 495.856 55.0345C495.206 53.4903 494.115 52.1721 492.72 51.2451C491.324 50.3181 489.686 49.8233 488.011 49.8229C486.683 49.8487 485.38 50.1884 484.209 50.8142L483.601 49.2268C482.111 45.1641 480.822 41.6548 480.378 37.1967C479.654 29.6186 483.242 24.2239 489.707 21.9431ZM186.606 741.155C179.62 740.385 171.439 735.989 165.19 732.735C160.322 730.205 155.893 727.163 151.245 724.308C147.998 722.45 144.62 720.832 141.138 719.467C151.656 719.334 162.222 718.896 172.415 718.876C177.619 718.958 182.815 719.32 187.981 719.958C195.319 730.105 202.232 742.868 186.606 741.155ZM104.601 717.302C70.8663 719.839 27.7353 720.303 23.027 691.676C19.4876 669.934 37.4173 662.709 54.9088 659.289H131.814C131.814 659.349 131.754 659.415 131.721 659.475C120.04 660.63 105.338 662.483 97.0769 667.039C73.3299 680.121 82.7198 711.75 104.601 717.302ZM172.535 657.064L169.493 657.011C166.345 657.29 163.151 657.463 159.964 657.602C160.017 657.343 160.077 657.084 160.137 656.825V656.726C162.248 656.221 164.347 655.736 166.319 655.139C166.751 655.012 167.182 654.873 167.601 654.733C168.544 654.415 169.473 654.069 170.39 653.671C170.715 654.209 171.054 654.747 171.386 655.278L172.302 656.732L172.535 657.064ZM143.82 491.985C143.674 493.459 143.455 494.86 143.156 496.215C142.267 500.644 140.786 504.575 139.125 508.965L138.727 510.027C138.581 510.412 138.428 510.811 138.282 511.209C137.926 511.026 137.56 510.862 137.186 510.718C135.142 509.936 132.927 509.707 130.765 510.054C130.031 509.304 129.167 508.694 128.215 508.254C124.018 506.262 118.732 509.25 116.096 513.022L86.7175 503.586H86.6776L86.1265 503.406C85.5406 499.618 85.9267 495.743 87.2485 492.144C88.5703 488.546 90.7846 485.342 93.6835 482.834L94.2546 482.336C94.3476 482.249 94.4406 482.176 94.5335 482.103C95.0471 481.683 95.565 481.284 96.0874 480.908C96.7913 480.403 97.5085 479.932 98.2257 479.493C98.4183 479.381 98.6042 479.261 98.7968 479.155C108.094 473.743 118.779 471.538 129.344 476.027C134.86 477.374 139.815 480.419 143.508 484.733C143.673 485.517 143.788 486.311 143.854 487.11C143.854 487.256 143.887 487.402 143.893 487.555C143.996 489.031 143.971 490.513 143.82 491.985ZM147.938 514.755C147.332 517.386 146.48 519.954 145.394 522.425L145.122 522.339V522.206C145.121 521.185 144.996 520.169 144.75 519.178C144.251 517.233 143.285 515.438 141.934 513.952C142.293 512.989 142.638 512.059 142.984 511.149C143.063 510.93 143.15 510.711 143.229 510.485C144.259 507.763 145.222 505.213 146.032 502.596C146.81 500.138 147.404 497.625 147.811 495.079C150.01 502.244 149.193 509.516 147.938 514.755ZM98.2258 479.513C97.5086 479.952 96.7914 480.423 96.0875 480.928C96.7515 480.443 97.4621 479.972 98.2258 479.513ZM130.791 510.06C129.172 510.326 127.622 510.911 126.231 511.783C124.84 512.654 123.636 513.793 122.69 515.134C121.972 516.149 121.414 517.269 121.036 518.454C119.066 517.615 117.043 516.908 114.98 516.336C115.239 516.336 114.449 515.326 114.821 515.499C115.134 514.615 115.57 513.779 116.116 513.015C118.772 509.244 124.038 506.269 128.235 508.247C129.191 508.691 130.057 509.305 130.791 510.06ZM170.41 653.671C169.493 654.056 168.563 654.415 167.62 654.734C167.202 654.873 166.77 655.012 166.339 655.139C164.347 655.736 162.268 656.221 160.156 656.726V656.825C160.097 657.084 160.037 657.343 159.984 657.602C159.509 660.005 158.902 662.379 158.164 664.714C157.885 665.545 157.374 669.469 156.57 669.921C154.744 670.957 153.091 669.037 151.258 668.891C147.539 668.586 144.617 670.279 140.215 669.436C136.449 668.719 137.246 668.579 134.105 669.25C132.551 669.582 132.239 671.72 129.616 670.452C125.997 668.692 129.357 664.117 130.42 662.118C130.884 661.248 131.323 660.365 131.748 659.462L133.66 659.276H131.841C132.631 657.642 133.381 655.955 134.125 654.302C134.749 652.907 135.373 651.506 136.018 650.125C131.568 650.543 124.184 651.221 121.475 649.381C120.545 648.757 120.146 647.827 120.651 646.493C125.233 642.92 130.778 642.8 136.21 640.928C137.186 640.589 138.07 640.264 138.926 639.998C140.725 639.364 142.638 639.122 144.538 639.287C145.465 639.391 146.385 639.55 147.293 639.766C150.049 638.584 152.858 637.548 155.594 636.233C157.281 635.423 158.915 634.699 160.615 634.021C162.926 640.768 166.505 647.329 170.41 653.671ZM151.085 517.299C150.813 519.032 150.461 520.785 150.009 522.532C149.968 522.704 149.865 522.856 149.719 522.957C149.573 523.059 149.395 523.103 149.219 523.082C149.042 523.06 148.88 522.975 148.763 522.842C148.645 522.708 148.581 522.536 148.582 522.359C148.575 522.297 148.575 522.235 148.582 522.173C149.08 520.217 149.471 518.235 149.751 516.236C150.813 508.633 150.136 501.308 147.798 495.033C147.931 494.189 148.044 493.326 148.13 492.429C148.13 492.33 148.13 492.224 148.13 492.124C151.49 499.342 152.506 508.161 151.085 517.299ZM131.582 466.325C115.684 461.677 97.1499 469.692 92.8534 483.591C93.1257 483.325 93.398 483.066 93.6835 482.827C93.9691 482.588 94.062 482.488 94.2546 482.329C94.3476 482.243 94.4406 482.17 94.5335 482.097C95.0471 481.676 95.565 481.278 96.0874 480.901C96.7515 480.417 97.4621 479.945 98.2257 479.487C98.4183 479.374 98.6042 479.254 98.7968 479.148C99.7929 478.55 100.789 478.019 101.712 477.548C101.712 477.548 114.993 465.203 130.347 470.469C137.432 472.899 142.12 477.847 143.515 484.726C143.679 485.511 143.795 486.305 143.86 487.104C143.86 487.25 143.893 487.396 143.9 487.549C143.999 489.016 143.972 490.489 143.82 491.951C143.674 493.426 143.455 494.827 143.156 496.181C142.267 500.611 140.786 504.542 139.125 508.931L138.727 509.994C138.581 510.379 138.428 510.778 138.282 511.176C137.926 510.993 137.56 510.829 137.186 510.685C134.619 509.7 131.797 509.6 129.167 510.4C126.537 511.2 124.248 512.854 122.663 515.101C121.132 517.277 120.349 519.892 120.431 522.551C120.514 525.211 121.458 527.772 123.122 529.849C124.275 531.299 125.74 532.469 127.409 533.274C129.077 534.078 130.905 534.497 132.757 534.498C133.223 534.498 133.689 534.472 134.152 534.418C137.136 534.083 139.896 532.669 141.911 530.442C143.927 528.215 145.059 525.329 145.095 522.326V522.193C145.094 521.172 144.97 520.155 144.724 519.165C144.225 517.219 143.258 515.425 141.908 513.939C142.267 512.976 142.612 512.046 142.957 511.136C143.037 510.917 143.123 510.698 143.203 510.472C144.232 507.749 145.195 505.199 146.005 502.583C146.783 500.125 147.378 497.612 147.785 495.066L147.606 494.515C147.672 494.674 147.732 494.833 147.792 494.999C147.924 494.156 148.037 493.293 148.124 492.396C148.124 492.297 148.124 492.19 148.124 492.091C149.319 479.513 143.004 469.679 131.582 466.325ZM147.818 495.019C147.818 495.019 147.818 495.053 147.818 495.072L147.639 494.521C147.699 494.694 147.758 494.853 147.818 495.019ZM317.208 697.42V717.169H237.932V717.401H232.739V713.211H311.41V701.61H232.739V697.42H317.208ZM322.407 717.176H237.932V730.915H322.407V717.176Z" stroke="#C03516" stroke-width="0.5" stroke-miterlimit="10"/>
</svg>
