<svg width="623" height="680" viewBox="0 0 623 680" fill="none" xmlns="http://www.w3.org/2000/svg">
<path d="M87.0017 133.7C77.0509 140.112 67.9515 152.005 61.1935 166.678C59.2028 165.049 57.3394 163.27 55.6194 161.357C55.1671 160.851 54.7281 160.346 54.2891 159.814L54.1029 159.601L53.9432 159.388C58.6792 147.282 62.3243 136.773 62.4706 134.524C62.5504 133.447 62.8165 131.039 63.189 128.059C64.7321 127.66 66.3019 127.181 67.8983 126.622C71.5289 125.365 75.045 123.798 78.4078 121.94C80.9507 126.085 83.8247 130.018 87.0017 133.7Z" fill="#19151A"/>
<path d="M54.1028 159.468L53.9299 159.268C53.799 159.127 53.6789 158.976 53.5707 158.816L53.9432 159.255L54.1028 159.468Z" fill="#19151A"/>
<path d="M67.9249 126.237C67.9176 126.321 67.9176 126.405 67.9249 126.489C66.3285 127.048 64.7587 127.527 63.2155 127.926C64.7454 127.514 66.3152 127.035 67.8983 126.489L67.9249 126.237Z" fill="#19151A"/>
<path d="M43.3272 130.254L43.2075 134.444C43.2075 134.444 42.6887 136.639 41.8772 140.112C41.1056 138.542 40.4005 137.052 39.7753 135.682C38.6844 133.287 37.833 131.238 37.2477 129.748C37.9793 129.855 39.017 129.988 40.334 130.081L41.5313 130.161H42.4625L43.3272 130.254Z" fill="#19151A"/>
<path d="M67.9249 126.237C67.9176 126.321 67.9176 126.405 67.9249 126.489C66.3285 127.048 64.7587 127.527 63.2155 127.926C64.7454 127.514 66.3152 127.035 67.8983 126.489L67.9249 126.237Z" fill="#19151A"/>
<path d="M72.8205 56.009C70.5722 54.4392 58.9984 57.8715 47.9302 65.9465C49.7406 61.1159 51.138 56.1404 52.1074 51.0735C53.1051 43.9164 51.8679 34.511 49.4467 30.9059L50.9766 33.4867C52.5198 35.9611 59.9962 40.3245 66.2487 40.5773C64.5459 41.4021 63.0293 44.3953 63.894 47.7078C66.3684 48.812 69.1089 51.1134 72.2218 52.8163L72.8205 56.009Z" fill="#19151A"/>
<path d="M58.4929 25.0523C58.4657 25.131 58.4086 25.196 58.334 25.2333C58.2595 25.2706 58.1733 25.2772 58.0938 25.2518L57.1892 25.0257C56.8805 24.9407 56.5783 24.834 56.2846 24.7064C55.952 24.5866 55.6328 24.4004 55.2869 24.2408C54.6794 23.9135 54.1009 23.5352 53.5575 23.11C53.3044 22.9129 53.0645 22.6996 52.8391 22.4714C52.7279 22.3515 52.669 22.1923 52.6752 22.0289C52.6815 21.8655 52.7524 21.7112 52.8723 21.6001C52.9923 21.4889 53.1515 21.43 53.3149 21.4362C53.4783 21.4425 53.6326 21.5134 53.7437 21.6333C53.7437 21.6333 53.9433 21.8861 54.329 22.2453C54.772 22.683 55.2578 23.0752 55.7791 23.416C56.0553 23.6083 56.3442 23.7816 56.6438 23.9348C56.9003 24.0785 57.1671 24.203 57.442 24.3073L58.2535 24.5999C58.3002 24.6119 58.3438 24.6335 58.3817 24.6633C58.4195 24.6932 58.4507 24.7306 58.4732 24.7731C58.4958 24.8157 58.5092 24.8626 58.5126 24.9106C58.516 24.9587 58.5093 25.0069 58.4929 25.0523Z" fill="#19151A"/>
<path d="M68.0179 16.3521C67.9574 16.5756 67.868 16.7902 67.7519 16.9906C67.7382 17.0171 67.719 17.0404 67.6957 17.059C67.6724 17.0776 67.6455 17.0911 67.6166 17.0986C67.5878 17.1061 67.5577 17.1075 67.5283 17.1026C67.4989 17.0978 67.4708 17.0868 67.4459 17.0704C67.4088 17.0502 67.3804 17.0171 67.3661 16.9773C67.2741 16.7662 67.1985 16.5482 67.1399 16.3255C67.1164 16.1966 67.0762 16.0714 67.0202 15.953C66.8686 16.119 66.6939 16.2624 66.5014 16.3787C66.1725 16.6325 65.7588 16.7505 65.3455 16.7084C64.9322 16.6663 64.5508 16.4674 64.2797 16.1525C64.1326 15.7654 64.1404 15.3364 64.3015 14.9549C64.4625 14.5733 64.7644 14.2685 65.1445 14.1038C65.4124 13.9414 65.7116 13.8372 66.0225 13.7978L65.9426 13.6116L65.8229 13.3987C65.7774 13.3223 65.763 13.2313 65.7829 13.1446C65.8027 13.0579 65.8551 12.9822 65.9293 12.9331C65.9899 12.9138 66.055 12.9138 66.1156 12.9331H66.3151C66.395 13.2258 66.4881 13.5185 66.5945 13.8245L66.7408 14.2235L67.3927 15.3277L68.0179 16.3521Z" fill="#19151A"/>
<path d="M71.9026 33.7927C71.0645 34.0321 69.9337 34.4046 68.7896 34.7904C66.435 35.6152 64.0138 36.5198 63.8541 36.5198C64.1861 35.1781 64.9418 33.9791 66.0093 33.1009C66.7441 32.7546 67.5304 32.53 68.3373 32.4357C69.4172 32.2732 70.5053 32.1711 71.5966 32.1298C71.084 28.5254 70.9902 24.8737 71.3172 21.2478L71.0113 21.4207L68.0179 16.3521C67.9574 16.5756 67.868 16.7902 67.7519 16.9906C67.7382 17.0171 67.719 17.0404 67.6957 17.059C67.6724 17.0776 67.6455 17.0911 67.6166 17.0986C67.5878 17.1061 67.5577 17.1075 67.5283 17.1026C67.4989 17.0978 67.4708 17.0868 67.4459 17.0704C67.4088 17.0502 67.3804 17.0171 67.3661 16.9773C67.2741 16.7662 67.1985 16.5482 67.1399 16.3255C67.1164 16.1966 67.0762 16.0714 67.0202 15.953C66.8686 16.119 66.6939 16.2624 66.5014 16.3787C66.1725 16.6325 65.7588 16.7505 65.3455 16.7084C64.9322 16.6663 64.5508 16.4674 64.2797 16.1525C64.1326 15.7654 64.1404 15.3364 64.3015 14.9549C64.4625 14.5733 64.7644 14.2685 65.1445 14.1038C65.4124 13.9414 65.7116 13.8372 66.0225 13.7978L65.9426 13.6116L65.8229 13.3987C65.7774 13.3223 65.763 13.2313 65.7829 13.1446C65.8027 13.0579 65.8551 12.9822 65.9293 12.9331C65.9899 12.9138 66.055 12.9138 66.1156 12.9331H66.3151C66.0102 11.8545 65.8449 10.7414 65.823 9.62075C63.8275 10.5786 62.577 11.3768 62.2178 11.4965C61.5926 11.6961 56.3644 10.9245 55.3534 11.2038C54.3424 11.4832 53.9433 13.0397 54.0231 14.2769C54.1029 15.5141 54.1029 16.2857 53.6639 16.7646C53.2249 17.2435 47.5976 21.3276 46.6132 22.0859C45.6287 22.8441 45.509 24.1878 46.387 25.691L51.0165 33.5C52.5198 35.9611 59.9962 40.3245 66.2487 40.5773C67.4285 41.0727 68.7148 41.2604 69.9869 41.1227C70.9382 41.002 71.849 40.6646 72.6493 40.1364C73.4497 39.6083 74.1181 38.9035 74.6031 38.0763C74.7643 37.6169 74.8196 37.127 74.7649 36.6432C74.7102 36.1594 74.5469 35.6942 74.2873 35.2824C74.0276 34.8705 73.6783 34.5226 73.2654 34.2647C72.8524 34.0067 72.3866 33.8454 71.9026 33.7927ZM58.0938 25.2518L57.1892 25.0257C56.8805 24.9407 56.5783 24.834 56.2846 24.7064C55.952 24.5866 55.6328 24.4004 55.2869 24.2408C54.6794 23.9135 54.1009 23.5352 53.5575 23.11C53.3044 22.9129 53.0645 22.6996 52.8391 22.4714C52.7279 22.3515 52.669 22.1923 52.6752 22.0289C52.6815 21.8655 52.7524 21.7112 52.8723 21.6001C52.9923 21.4889 53.1515 21.43 53.3149 21.4362C53.4783 21.4425 53.6326 21.5134 53.7437 21.6333C53.7437 21.6333 53.9433 21.8861 54.329 22.2453C54.772 22.683 55.2578 23.0752 55.7791 23.416C56.0553 23.6083 56.3442 23.7816 56.6438 23.9348C56.9003 24.0785 57.1671 24.203 57.442 24.3073L58.2535 24.5999C58.3374 24.6327 58.4051 24.6972 58.4424 24.7792C58.4796 24.8611 58.4835 24.9544 58.453 25.0392C58.4287 25.1119 58.379 25.1734 58.3131 25.2124C58.2471 25.2515 58.1693 25.2654 58.0938 25.2518Z" fill="#19151A"/>
<path d="M67.4061 15.3012C67.3182 15.5313 67.1821 15.7399 67.007 15.9132C66.8554 16.0792 66.6807 16.2226 66.4882 16.3389C66.1593 16.5927 65.7456 16.7107 65.3323 16.6686C64.919 16.6265 64.5376 16.4276 64.2666 16.1127C64.1195 15.7256 64.1273 15.2966 64.2883 14.915C64.4494 14.5335 64.7513 14.2287 65.1313 14.064C65.3993 13.9016 65.6984 13.7973 66.0093 13.758C66.2068 13.7175 66.4105 13.7175 66.608 13.758L66.7543 14.1571L67.4061 15.3012Z" fill="#19151A"/>
<path d="M68.0179 16.3521C67.9574 16.5756 67.868 16.7902 67.7519 16.9906C67.7382 17.0171 67.719 17.0404 67.6957 17.059C67.6724 17.0776 67.6455 17.0911 67.6166 17.0986C67.5878 17.1061 67.5577 17.1075 67.5283 17.1026C67.4989 17.0978 67.4708 17.0868 67.4459 17.0704C67.4088 17.0502 67.3804 17.0171 67.3661 16.9773C67.2741 16.7662 67.1985 16.5482 67.1399 16.3255C67.1164 16.1966 67.0762 16.0714 67.0202 15.953C67.0145 15.8866 67.0146 15.8198 67.0202 15.7534C66.9943 15.6465 66.954 15.5436 66.9005 15.4474L66.7675 15.1415C66.732 15.0337 66.6828 14.9308 66.6211 14.8355C66.5689 14.7371 66.5244 14.6348 66.4881 14.5295C66.3684 14.3566 66.2886 14.1703 66.1954 14.0107C66.1023 13.8511 66.1954 13.8644 66.089 13.7978L66.0092 13.6116L65.8229 13.3987C65.7774 13.3223 65.763 13.2313 65.7829 13.1446C65.8027 13.0579 65.8551 12.9822 65.9293 12.9331C65.9899 12.9138 66.055 12.9138 66.1156 12.9331H66.3151C66.395 13.2258 66.4881 13.5185 66.5945 13.8245L66.7408 14.2235L67.3927 15.3277L68.0179 16.3521Z" fill="#19151A"/>
<path d="M58.4929 25.0523C58.4657 25.131 58.4086 25.196 58.334 25.2333C58.2595 25.2706 58.1733 25.2772 58.0938 25.2518L57.1892 25.0257C56.8805 24.9407 56.5783 24.834 56.2846 24.7064C55.952 24.5866 55.6328 24.4004 55.2869 24.2408C54.6794 23.9135 54.1009 23.5352 53.5575 23.11C53.3044 22.9129 53.0645 22.6996 52.8391 22.4714C52.7279 22.3515 52.669 22.1923 52.6752 22.0289C52.6815 21.8655 52.7524 21.7112 52.8723 21.6001C52.9923 21.4889 53.1515 21.43 53.3149 21.4362C53.4783 21.4425 53.6326 21.5134 53.7437 21.6333C53.7437 21.6333 53.9433 21.8861 54.329 22.2453C54.772 22.683 55.2578 23.0752 55.7791 23.416C56.0553 23.6083 56.3442 23.7816 56.6438 23.9348C56.9003 24.0785 57.1671 24.203 57.442 24.3073L58.2535 24.5999C58.3002 24.6119 58.3438 24.6335 58.3817 24.6633C58.4195 24.6932 58.4507 24.7306 58.4732 24.7731C58.4958 24.8157 58.5092 24.8626 58.5126 24.9106C58.516 24.9587 58.5093 25.0069 58.4929 25.0523Z" fill="#19151A"/>
<path d="M108.22 53.3614C106.363 54.4461 104.251 55.0178 102.101 55.0178C99.9502 55.0178 97.8383 54.4461 95.9813 53.3614C95.807 53.2646 95.6382 53.158 95.4758 53.0421C95.2763 52.9224 95.09 52.7894 94.9038 52.6564C94.7175 52.5233 94.4381 52.3105 94.212 52.1109C93.9858 51.9114 93.8129 51.765 93.6267 51.5788C93.4404 51.3925 93.1078 51.06 92.8551 50.7806C92.6156 50.4879 92.3895 50.1953 92.1633 49.8893C91.9371 49.5833 91.8706 49.4636 91.7376 49.2374L91.6179 49.0379C90.0285 46.2972 89.573 43.044 90.3484 39.9722C91.1238 36.9004 93.0688 34.2531 95.7685 32.5951L95.8882 32.5153C96.5982 32.0932 97.3521 31.7498 98.1364 31.491L98.8681 31.2648C99.1874 31.1717 99.4934 31.1052 99.8126 31.0386L100.385 30.9588C103.165 30.5622 105.997 31.1436 108.396 32.6037C110.796 34.0639 112.613 36.312 113.539 38.9639C114.464 41.6157 114.44 44.5067 113.47 47.1425C112.499 49.7783 110.644 51.9954 108.22 53.4146V53.3614Z" fill="#19151A"/>
<path d="M100.411 30.8924L99.8393 30.9855C99.5201 31.0521 99.2141 31.1186 98.8948 31.2117L98.1631 31.4379C97.3788 31.6967 96.6249 32.0401 95.9149 32.4622L95.7952 32.542C93.0704 34.201 91.1077 36.8653 90.3311 39.9594C89.5544 43.0534 90.0263 46.3288 91.6446 49.0779L91.7643 49.2775C89.2443 51.5206 86.3056 53.2432 83.1172 54.346C79.0331 55.6763 75.4413 54.5987 72.2352 52.8294C69.0291 51.0601 66.3818 48.8384 63.9074 47.721C63.0427 44.4085 64.5593 41.4153 66.2621 40.5905C67.4418 41.0859 68.7281 41.2735 70.0003 41.1359C70.9515 41.0152 71.8624 40.6777 72.6627 40.1496C73.463 39.6214 74.1314 38.9166 74.6165 38.0895C74.7798 37.6322 74.8379 37.144 74.7867 36.6612C74.7355 36.1784 74.5761 35.7133 74.3205 35.3005C74.0649 34.8877 73.7196 34.5378 73.3102 34.2767C72.9009 34.0157 72.4379 33.8502 71.9558 33.7925C71.1177 34.032 69.987 34.4045 68.8429 34.7903C66.4882 35.6151 64.067 36.5197 63.9074 36.5197C64.2393 35.1779 64.9951 33.9789 66.0625 33.1008C66.7974 32.7545 67.5837 32.5298 68.3906 32.4356C69.4705 32.2731 70.5586 32.1709 71.6499 32.1296C71.1372 28.5252 71.0435 24.8736 71.3705 21.2476L71.0645 21.4205L68.0713 16.352L67.4061 15.3012L66.7543 14.1969L66.6079 13.7978C66.5015 13.4918 66.4084 13.1992 66.3286 12.9065C66.0214 11.8371 65.8515 10.7331 65.823 9.62075C65.517 1.59892 74.51 -0.316893 79.4056 1.79832C91.2189 7.01317 99.0145 16.4318 100.225 27.3937C100.365 28.5545 100.428 29.7233 100.411 30.8924Z" fill="#19151A"/>
<path d="M67.8184 103.315C68.653 102.364 69.4304 101.365 70.1465 100.322C69.2552 101.572 68.4836 102.583 67.8184 103.315ZM67.8849 126.476C66.3018 127.021 64.7321 127.5 63.2022 127.913C64.7454 127.514 66.3152 127.035 67.9115 126.476C67.9043 126.392 67.9043 126.307 67.9115 126.223L67.8849 126.476Z" fill="#19151A"/>
<path d="M84.341 84.5577C83.6759 94.2956 78.1816 118.574 78.1816 118.574L78.8468 121.567L78.4078 121.807C75.0449 123.665 71.5289 125.232 67.8983 126.489C67.891 126.405 67.891 126.321 67.8983 126.237V126.476C66.3152 127.021 64.7454 127.5 63.2155 127.913C63.5215 125.412 63.894 122.485 64.2931 119.585C65.2775 112.188 66.3019 104.951 66.3019 104.951L66.395 104.872L66.5014 104.765C66.5468 104.713 66.5957 104.664 66.6478 104.619L67.3794 103.847L67.6987 103.488C68.5333 102.537 69.3107 101.538 70.0268 100.495L70.4126 99.9362C70.5323 99.7499 70.652 99.5504 70.7984 99.3508L70.9846 99.0715C72.9869 95.8983 74.5656 92.477 75.6806 88.8945C78.2615 80.5933 78.0353 70.1104 74.3503 64.6827C73.3608 63.1328 71.8664 61.9721 70.1199 61.3968C63.761 59.4678 56.9098 59.8004 46.387 70.1104C45.8282 70.6425 45.2562 71.2279 44.6842 71.8265C33.1769 83.7994 35.944 95.3865 37.4472 98.8852C38.2982 100.469 39.4141 101.895 40.7464 103.102C41.7607 104.119 42.831 105.079 43.9525 105.976L44.1254 106.109L43.4603 125.172L43.274 130.254H41.4116L40.2143 130.174C38.884 130.081 37.8596 129.948 37.1279 129.842C36.3963 129.735 35.8908 129.642 35.8908 129.642C35.8908 129.642 25.634 107.013 26.7115 99.6967C27.7891 92.3799 36.8486 74.0215 47.9168 65.9598C58.9851 57.898 70.5323 54.4525 72.8071 56.0223C78.5142 59.96 85.0062 74.833 84.341 84.5577Z" fill="#19151A"/>
<path d="M67.8184 103.315C68.653 102.364 69.4304 101.365 70.1465 100.322C69.2552 101.572 68.4836 102.583 67.8184 103.315Z" fill="#19151A"/>
<path d="M230.091 200.468H120.778C114.813 200.22 108.987 198.585 103.764 195.692C97.6708 192.593 64.9582 170.749 63.5215 169.977C62.4367 169.118 61.6311 167.956 61.2067 166.638C67.9648 152.005 77.0642 140.032 87.015 133.66C114.606 129.669 129.825 145.952 138.033 155.038C144.245 158.257 177.477 172.638 181.215 173.05C184.953 173.463 191.778 169.804 199.427 170.31C207.076 170.815 218.956 175.126 229.359 178.624L230.929 179.13C231.831 186.24 231.548 193.451 230.091 200.468Z" fill="#19151A"/>
<path d="M309.91 200.468L230.091 200.468C231.547 193.441 231.825 186.222 230.916 179.103C241.412 182.309 257.349 184.425 260.276 183.919C263.203 183.414 263.602 178.425 266.927 176.602C270.253 174.78 274.657 177.015 277.57 179.516C280.483 182.017 284.301 186.247 286.962 187.91C289.623 189.573 294.611 187.498 300.092 188.735C305.573 189.972 305.839 191.981 308.407 194.389C309.501 194.366 310.577 194.661 311.508 195.237C312.438 195.813 313.181 196.646 313.648 197.635C314.593 199.71 313.728 200.468 309.91 200.468Z" fill="#19151A"/>
<path d="M75.8004 88.7215C74.6979 92.302 73.1327 95.7233 71.1443 98.8984L70.958 99.2044C70.8117 99.404 70.692 99.6035 70.5722 99.7898L70.1864 100.348C69.2951 101.599 68.4836 102.61 67.8584 103.342L67.5391 103.701L66.8074 104.472C66.7554 104.518 66.7065 104.567 66.6611 104.619L66.5547 104.725L66.4615 104.805C66.4615 104.805 65.4372 112.082 64.4528 119.439C64.0537 122.339 63.6812 125.265 63.3752 127.766C63.0027 130.746 62.7366 133.088 62.6568 134.232C62.5105 136.493 58.8654 146.99 54.1295 159.095L53.757 158.656C53.8652 158.816 53.9852 158.967 54.1162 159.109C49.7926 170.164 44.5379 182.536 40.201 191.223C38.6578 199.75 35.9972 200.309 31.4475 200.309C26.8978 200.309 17.9181 199.537 15.9227 199.417C13.9272 199.298 6.50399 200.309 3.6172 200.309C0.730403 200.309 0.890041 198.805 1.10289 197.701C1.31574 196.597 8.2068 194.256 9.53712 193.591C10.8674 192.925 18.2906 187.272 19.2884 187.059C20.2861 186.846 25.501 186.833 30.2635 185.941C31.1415 184.372 38.6844 153.189 41.8107 140.125C42.6621 136.653 43.141 134.458 43.141 134.458L43.2874 130.267L43.4736 125.186L44.1388 106.122L43.9658 105.989C42.8394 105.088 41.7646 104.124 40.7464 103.102C39.4304 101.849 38.3412 100.377 37.5271 98.7521C36.0238 95.2534 33.2567 83.7062 44.764 71.6934C45.336 71.0948 45.9081 70.5094 46.4668 69.9773C56.9897 59.6673 63.8408 59.3347 70.1997 61.2637C71.9423 61.8322 73.4361 62.983 74.4302 64.523C78.1551 69.9374 78.3812 80.4868 75.8004 88.7215Z" fill="#19151A"/>
<path d="M53.9432 159.255C53.8123 159.114 53.6922 158.962 53.584 158.803L53.9432 159.255Z" fill="#19151A"/>
<path d="M67.8184 103.315C68.653 102.364 69.4304 101.365 70.1465 100.322C69.2552 101.572 68.4836 102.583 67.8184 103.315Z" fill="#19151A"/>
<path d="M458.027 558.699C436.917 557.315 414.149 544.779 406.19 532.566C415.516 530.739 438.386 515.623 446.874 503.223C452.196 505.927 457.813 508.008 463.612 509.423C459.086 522.472 455.978 546.982 458.027 558.699Z" fill="#19151A"/>
<path d="M379.306 439.72C378.247 440.831 377.598 454.05 377.325 467.544C373.909 460.387 369.759 451.779 367.385 447.902C362.978 440.643 357.991 435.946 352.457 433.316L355.207 434.528C358.623 436.014 369.656 434.938 376.386 430.532C375.258 432.667 375.925 436.936 379.306 439.72Z" fill="#19151A"/>
<path d="M356.676 420.147C356.704 420.249 356.694 420.358 356.646 420.453C356.599 420.547 356.518 420.621 356.419 420.659L355.309 421.086C354.925 421.233 354.531 421.353 354.131 421.445C353.675 421.557 353.213 421.642 352.747 421.701C351.865 421.822 350.973 421.862 350.083 421.821C349.665 421.802 349.249 421.762 348.836 421.701C348.63 421.658 348.449 421.535 348.334 421.359C348.219 421.183 348.178 420.968 348.221 420.762C348.264 420.556 348.387 420.375 348.563 420.26C348.74 420.145 348.954 420.104 349.16 420.147C349.16 420.147 349.553 420.25 350.202 420.352C351 420.466 351.806 420.506 352.611 420.472C353.045 420.46 353.479 420.42 353.909 420.352C354.319 420.352 354.711 420.25 355.019 420.147L356.078 419.84C356.137 419.813 356.201 419.799 356.266 419.801C356.33 419.802 356.394 419.818 356.452 419.848C356.509 419.877 356.559 419.92 356.598 419.972C356.637 420.023 356.663 420.083 356.676 420.147Z" fill="#19151A"/>
<path d="M360.331 404.809C360.336 404.884 360.312 404.957 360.264 405.014C360.216 405.071 360.149 405.108 360.075 405.117H359.904C359.658 404.964 359.424 404.792 359.203 404.604C359.075 404.479 358.932 404.37 358.776 404.28C358.751 404.58 358.676 404.875 358.554 405.151C358.407 405.663 358.066 406.097 357.603 406.361C357.141 406.626 356.594 406.7 356.078 406.568C355.635 406.275 355.322 405.822 355.204 405.303C355.086 404.785 355.173 404.241 355.446 403.784C355.609 403.414 355.841 403.078 356.129 402.794L355.907 402.674L355.685 402.572C355.632 402.551 355.583 402.52 355.542 402.48C355.501 402.441 355.469 402.393 355.446 402.34C355.424 402.288 355.413 402.231 355.412 402.174C355.412 402.117 355.424 402.061 355.446 402.008C355.477 401.927 355.53 401.856 355.6 401.803H355.822C356.112 402.042 356.437 402.281 356.761 402.521L357.239 402.845L358.623 403.272L360.075 403.904C360.2 404.193 360.286 404.497 360.331 404.809Z" fill="#19151A"/>
<path d="M383.252 421.667C383.078 421.066 382.77 420.511 382.351 420.045C381.932 419.58 381.413 419.215 380.833 418.978C380.253 418.741 379.626 418.639 379.001 418.679C378.376 418.719 377.768 418.9 377.223 419.208C376.061 420.643 374.387 423.034 373.055 424.981C371.723 426.928 370.954 428.038 370.869 428.089C370.44 427.11 370.23 426.05 370.254 424.981C370.194 424.27 370.305 423.556 370.579 422.897C371.924 420.838 373.665 419.067 375.703 417.688C372.426 414.326 369.559 410.588 367.163 406.552L366.975 406.979L360.143 403.956C360.24 404.231 360.303 404.518 360.331 404.809C360.336 404.884 360.312 404.957 360.264 405.014C360.216 405.071 360.149 405.108 360.075 405.117H359.904C359.658 404.964 359.424 404.792 359.203 404.604C359.075 404.479 358.932 404.37 358.776 404.28C358.751 404.58 358.676 404.875 358.554 405.151C358.407 405.663 358.066 406.097 357.603 406.361C357.141 406.626 356.594 406.7 356.078 406.568C355.635 406.275 355.322 405.822 355.204 405.303C355.086 404.785 355.173 404.241 355.446 403.784C355.609 403.414 355.841 403.078 356.129 402.794L355.907 402.674L355.685 402.572C355.632 402.551 355.583 402.52 355.542 402.48C355.501 402.441 355.469 402.393 355.446 402.34C355.424 402.288 355.413 402.231 355.412 402.174C355.412 402.117 355.424 402.061 355.446 402.008C355.477 401.927 355.53 401.856 355.6 401.803H355.822C354.675 400.933 353.648 399.917 352.764 398.78C351.432 401.274 350.732 403.05 350.441 403.443C349.946 404.126 343.917 407.252 343.063 408.277C342.209 409.302 343.063 411.266 344.071 412.444C345.078 413.623 345.642 414.477 345.557 415.297C345.471 416.116 342.653 424.605 342.141 426.125C341.628 427.645 342.534 428.892 344.566 429.849L352.457 433.265L355.207 434.528C358.623 436.014 369.656 434.938 376.386 430.532C377.85 430.249 379.215 429.588 380.345 428.615C381.475 427.641 382.33 426.388 382.825 424.981C383.209 423.921 383.355 422.79 383.252 421.667ZM356.419 420.659L355.309 421.086C354.925 421.233 354.531 421.353 354.131 421.445C353.675 421.557 353.213 421.642 352.747 421.701C351.865 421.822 350.973 421.862 350.083 421.821C349.665 421.802 349.249 421.762 348.836 421.701C348.63 421.658 348.449 421.535 348.334 421.359C348.219 421.183 348.178 420.968 348.221 420.762C348.264 420.556 348.387 420.375 348.563 420.26C348.74 420.145 348.954 420.104 349.16 420.147C349.16 420.147 349.553 420.25 350.202 420.352C351 420.466 351.806 420.506 352.611 420.472C353.045 420.46 353.479 420.42 353.909 420.352C354.319 420.352 354.711 420.25 355.019 420.147L356.078 419.84C356.133 419.824 356.19 419.82 356.247 419.827C356.304 419.835 356.358 419.853 356.407 419.882C356.457 419.91 356.5 419.949 356.534 419.994C356.569 420.04 356.593 420.092 356.607 420.147C356.641 420.241 356.64 420.344 356.606 420.437C356.572 420.531 356.506 420.609 356.419 420.659Z" fill="#19151A"/>
<path d="M358.623 404.212C358.597 404.512 358.522 404.807 358.401 405.083C358.253 405.595 357.912 406.029 357.45 406.293C356.987 406.558 356.44 406.632 355.924 406.5C355.481 406.207 355.168 405.754 355.05 405.235C354.933 404.717 355.019 404.173 355.292 403.716C355.455 403.346 355.687 403.01 355.975 402.726C356.16 402.557 356.374 402.424 356.607 402.333L357.086 402.657L358.623 403.272C358.69 403.582 358.69 403.902 358.623 404.212Z" fill="#19151A"/>
<path d="M360.331 404.809C360.336 404.884 360.312 404.957 360.264 405.014C360.216 405.071 360.149 405.108 360.075 405.117H359.904C359.658 404.964 359.424 404.792 359.203 404.604C359.075 404.479 358.932 404.37 358.776 404.28L358.572 404.143C358.458 404.059 358.338 403.985 358.213 403.921L357.854 403.699C357.739 403.614 357.612 403.545 357.479 403.494L357.017 403.272C356.761 403.169 356.539 403.033 356.334 402.93L356.044 402.777L355.822 402.657L355.6 402.555C355.547 402.534 355.498 402.503 355.457 402.463C355.416 402.423 355.383 402.376 355.361 402.323C355.339 402.271 355.327 402.214 355.327 402.157C355.327 402.1 355.338 402.044 355.361 401.991C355.391 401.909 355.445 401.838 355.514 401.786H355.736C356.027 402.025 356.351 402.264 356.676 402.503L357.154 402.828L358.623 403.272L360.075 403.904C360.2 404.193 360.286 404.497 360.331 404.809Z" fill="#19151A"/>
<path d="M356.676 420.147C356.704 420.249 356.694 420.358 356.646 420.453C356.599 420.547 356.518 420.621 356.419 420.659L355.309 421.086C354.925 421.233 354.531 421.353 354.131 421.445C353.675 421.557 353.213 421.642 352.747 421.701C351.865 421.822 350.973 421.862 350.083 421.821C349.665 421.802 349.249 421.762 348.836 421.701C348.63 421.658 348.449 421.535 348.334 421.359C348.219 421.183 348.178 420.968 348.221 420.762C348.264 420.556 348.387 420.375 348.563 420.26C348.74 420.145 348.954 420.104 349.16 420.147C349.16 420.147 349.553 420.25 350.202 420.352C351 420.466 351.806 420.506 352.611 420.472C353.045 420.46 353.479 420.42 353.909 420.352C354.319 420.352 354.711 420.25 355.019 420.147L356.078 419.84C356.137 419.813 356.201 419.799 356.266 419.801C356.33 419.802 356.394 419.818 356.452 419.848C356.509 419.877 356.559 419.92 356.598 419.972C356.637 420.023 356.663 420.083 356.676 420.147Z" fill="#19151A"/>
<path d="M429.743 412.359C428.634 414.89 426.871 417.081 424.634 418.705C422.398 420.329 419.769 421.328 417.019 421.599H416.37C414.034 421.727 411.7 421.33 409.538 420.438L409.213 420.352C405.462 418.706 402.512 415.646 401.003 411.838C399.493 408.029 399.547 403.779 401.152 400.01V399.839C401.338 399.406 401.549 398.984 401.783 398.576L402.023 398.148C402.143 397.928 402.28 397.717 402.433 397.517C402.571 397.284 402.725 397.061 402.894 396.85C403.114 396.529 403.353 396.221 403.611 395.928C403.936 395.552 404.26 395.211 404.619 394.869C407.209 392.327 410.606 390.769 414.223 390.464C417.84 390.16 421.45 391.128 424.429 393.202C427.408 395.276 429.569 398.325 430.54 401.823C431.51 405.32 431.228 409.047 429.743 412.359Z" fill="#19151A"/>
<path d="M409.486 420.489C408.54 424.627 406.8 428.542 404.363 432.018L404.226 432.223C404.057 432.472 403.875 432.711 403.679 432.94C400.985 436.142 397.163 438.184 393.004 438.645C391.177 438.913 389.334 439.072 387.488 439.123C384.733 439.125 381.982 439.325 379.255 439.721C375.839 436.937 375.207 432.667 376.369 430.532C377.833 430.249 379.198 429.588 380.328 428.614C381.458 427.641 382.313 426.388 382.808 424.981C383.18 423.919 383.314 422.787 383.201 421.667C383.026 421.066 382.718 420.511 382.299 420.045C381.88 419.58 381.361 419.215 380.781 418.978C380.201 418.741 379.575 418.639 378.95 418.679C378.325 418.719 377.717 418.9 377.171 419.208C376.01 420.643 374.336 423.034 373.004 424.981C371.672 426.928 370.903 428.038 370.818 428.089C370.389 427.11 370.179 426.049 370.203 424.981C370.159 424.266 370.288 423.551 370.579 422.897C371.924 420.838 373.665 419.067 375.703 417.688C372.426 414.326 369.559 410.588 367.163 406.552L366.975 406.979L360.143 403.956L358.623 403.272L357.12 402.606L356.642 402.282C356.317 402.043 355.992 401.803 355.702 401.564C354.556 400.694 353.528 399.678 352.645 398.541C346.394 390.377 354.353 381.649 360.997 380.18C377.223 376.764 392.424 380.744 401.988 391.248C402.991 392.376 403.91 393.574 404.738 394.835C404.38 395.177 404.055 395.518 403.731 395.894C403.473 396.186 403.233 396.494 403.013 396.816C402.844 397.027 402.69 397.25 402.552 397.482C402.4 397.682 402.263 397.894 402.142 398.114L401.903 398.541C401.669 398.95 401.458 399.372 401.271 399.805V399.976C399.648 403.734 399.572 407.981 401.059 411.795C402.545 415.609 405.475 418.684 409.213 420.352L409.486 420.489Z" fill="#19151A"/>
<path d="M447.028 503.053L446.874 503.275C438.334 515.675 415.516 530.79 406.19 532.618L405.626 532.72C405.626 532.72 396.437 523.224 389.605 517.468C382.774 511.712 378.282 505.751 377.53 491.951C377.223 486.28 377.171 476.852 377.325 467.544C377.564 454.05 378.247 440.831 379.306 439.72C382.033 439.331 384.784 439.137 387.539 439.14C385.189 441.029 383.415 443.537 382.415 446.382C380.707 451.591 381.066 466.331 383.508 478.031C383.901 479.961 384.362 481.822 384.874 483.53C388.512 495.589 400.998 495.281 409.538 491.541C415.225 489.047 420.913 483.001 424.055 473.453C424.477 472.22 424.836 470.966 425.131 469.696C425.439 468.398 425.712 467.048 425.917 465.631C426.382 462.596 426.61 459.529 426.6 456.459L428.308 455.639C430.348 461.263 431.975 467.029 433.176 472.89C435.704 484.589 447.028 503.053 447.028 503.053Z" fill="#19151A"/>
<path d="M425.234 469.678C424.939 470.948 424.58 472.202 424.158 473.436C424.465 472.24 424.824 470.976 425.234 469.678Z" fill="#19151A"/>
<path d="M425.951 465.579C425.746 466.997 425.473 468.346 425.166 469.644C425.456 468.346 425.729 466.98 425.951 465.579Z" fill="#19151A"/>
<path d="M604.043 538.066C591.028 544.471 553.657 558.886 544.485 558.886H458.027C455.995 547.118 459.086 522.609 463.612 509.611C495.483 488.774 512.358 504.487 526.551 506.195C532.956 506.622 565.186 507.049 582.061 506.093C575.553 498.185 575.98 483.889 574.853 466.382C574.682 463.701 574.443 461.122 574.17 458.628C581.514 457.272 588.609 454.807 595.212 451.318C605.033 474.683 621.669 515.06 621.976 517.929C622.403 521.738 617.074 531.661 604.043 538.066Z" fill="#19151A"/>
<path d="M459.701 558.853C459.195 558.883 458.687 558.883 458.181 558.853H459.701Z" fill="#19151A"/>
<path d="M546.262 384.484C546.254 384.433 546.254 384.381 546.262 384.33V384.484Z" fill="#19151A"/>
<path d="M559.328 374.356C554.692 376.504 550.202 378.951 545.886 381.684C545.834 380.699 545.834 379.713 545.886 378.729C546.071 376.262 546.702 373.849 547.747 371.606C546.409 370.171 545.622 368.307 545.527 366.346C545.527 363.425 546.894 361 548.379 361C549.865 361 552.154 362.708 553.725 364.638C555.297 366.568 557.278 371.316 558.696 373.451L559.328 374.356Z" fill="#19151A"/>
<path d="M574.409 399.668C573.316 399.668 573.026 399.925 572.274 399.925C571.523 399.925 567.867 399.327 567.867 399.327L572.377 394.203C572.974 395.655 573.675 397.568 574.409 399.668Z" fill="#19151A"/>
<path d="M595.212 451.266C588.61 454.756 581.514 457.221 574.17 458.577C572.599 444.759 569.524 434.05 567.543 429.712C566.923 428.023 565.833 426.547 564.402 425.457C562.97 424.368 561.257 423.71 559.464 423.563C556.766 422.982 553.196 423.136 550.429 418.439C548.379 415.023 550.429 411.488 551.898 407.696C554.767 408.003 557.432 408.55 559.362 408.755C562.061 409.063 564.794 408.656 567.287 407.576C568.589 407.192 569.912 406.884 571.249 406.654C572.411 406.195 573.611 405.84 574.836 405.595L576.39 405.39C578.098 410.343 579.482 414.972 579.806 416.202C580.438 418.542 585.033 427.935 588.449 435.416C589.337 437.432 591.882 443.341 595.212 451.266Z" fill="#19151A"/>
<path d="M572.121 393.571C572.123 393.508 572.123 393.446 572.121 393.383C572.121 393.383 572.121 393.502 572.121 393.571Z" fill="#19151A"/>
<path d="M576.39 405.458L574.836 405.663C573.611 405.908 572.411 406.263 571.249 406.722C569.912 406.952 568.589 407.26 567.287 407.645C564.794 408.725 562.061 409.131 559.362 408.823C557.432 408.618 554.767 408.072 551.898 407.764C552.018 407.423 552.137 407.081 552.24 406.756C552.342 406.432 552.24 406.483 552.359 406.347C548.467 405.549 544.461 405.468 540.54 406.107C535.091 407.371 505.953 422.88 499.975 426.091C493.997 429.302 480.231 432.496 476.473 434.016C472.716 435.536 442.314 448.705 428.36 455.622L426.652 456.442C426.662 459.512 426.433 462.579 425.968 465.614C425.746 467.014 425.473 468.38 425.183 469.679C424.858 470.977 424.5 472.241 424.107 473.436C420.964 483.001 415.276 489.03 409.589 491.524C401.015 495.264 388.529 495.503 384.891 483.547C384.379 481.839 383.918 479.978 383.525 478.048C381.083 466.348 380.707 451.608 382.432 446.399C383.432 443.554 385.206 441.046 387.556 439.157C389.403 439.106 391.245 438.947 393.073 438.679C397.231 438.218 401.054 436.176 403.748 432.974C403.943 432.745 404.126 432.506 404.294 432.257L404.431 432.052C412.219 430.788 421.067 431.01 426.43 428.994C433.262 426.432 480.333 412.034 484.501 410.856C488.668 409.677 494.1 406.056 501.256 404.024C508.413 401.991 538.046 390.923 539.686 389.54C540.284 389.045 542.999 386.91 546.227 384.416C546.219 384.467 546.219 384.519 546.227 384.57C546.227 384.57 546.227 384.467 546.227 384.416C546.095 383.895 546.003 383.363 545.954 382.828C545.954 382.503 545.954 382.162 545.869 381.82C550.185 379.088 554.675 376.64 559.311 374.493H559.43C560.182 374.219 561.138 375.108 561.821 375.637C562.505 376.167 569.541 383.323 570.652 383.921C571.762 384.519 573.094 384.314 573.811 384.928C574.659 386.611 574.969 388.513 574.699 390.377C573.916 391.442 573.054 392.447 572.121 393.383C572.123 393.446 572.123 393.508 572.121 393.571C572.139 393.638 572.167 393.701 572.206 393.759L572.36 394.169L567.85 399.293C567.85 399.293 571.266 399.89 572.257 399.89C573.248 399.89 573.299 399.651 574.392 399.634C575.058 401.564 575.741 403.511 576.39 405.458Z" fill="#19151A"/>
<path d="M425.234 469.678C424.939 470.948 424.58 472.202 424.158 473.436C424.465 472.24 424.824 470.976 425.234 469.678Z" fill="#19151A"/>
<path d="M425.951 465.579C425.746 466.997 425.473 468.346 425.166 469.644C425.456 468.346 425.729 466.98 425.951 465.579Z" fill="#19151A"/>
<path d="M546.262 384.484C546.254 384.433 546.254 384.381 546.262 384.33V384.484Z" fill="#19151A"/>
<path d="M277.337 638.676C277.227 635.251 277.092 635.006 276.563 634.162C276.338 633.726 276.142 633.276 275.976 632.814C275.876 632.619 275.724 632.455 275.536 632.341C275.349 632.227 275.134 632.167 274.915 632.167C274.696 632.167 274.481 632.227 274.294 632.341C274.107 632.455 273.955 632.619 273.854 632.814C273.409 633.601 273.371 634.245 273.435 637.031C273.474 638.869 273.1 639.146 272.79 639.437C272.229 639.991 271.907 639.656 271.63 638.25C271.481 637.521 271.275 636.535 271.165 636.051C271.046 635.526 270.977 634.99 270.959 634.452C270.901 633.33 270.472 632.26 269.74 631.408L268.986 631.015C269.324 630.237 269.403 629.371 269.211 628.545C269.34 624.727 264.968 625.069 262.615 625.837C262.041 625.994 261.449 626.07 260.854 626.062C257.662 626.63 255.012 628.448 251.955 628.539C251.394 628.539 251.039 628.326 250.021 627.358C249.432 626.815 248.906 626.207 248.454 625.546C248.161 625.067 247.8 624.632 247.383 624.257C246.97 623.883 246.564 623.509 246.48 623.425C240.947 616.564 237.749 608.851 231.919 602.428C230.693 601.096 229.588 599.657 228.618 598.127C228.166 596.96 227.754 595.896 227.476 594.903C227.264 594.116 226.935 592.968 226.741 592.323C226.406 591.208 226.27 590.247 225.851 586.01C225.742 584.869 225.555 583.521 225.439 583.005C225.039 581.187 224.794 574.745 224.852 568.928C224.929 563.292 225.103 561.261 225.826 557.546C226.69 553.065 227.057 547.686 226.664 545.126C226.35 540.343 225.131 535.662 223.072 531.333C216.217 521.608 209.375 523.169 207.808 522.253L207.105 521.828C206.641 521.544 206.196 521.254 205.751 520.989L205.197 520.673C205.016 520.583 204.835 520.486 204.655 520.403C204.209 520.19 203.742 520.024 203.262 519.906C201.451 519.572 199.78 518.705 198.464 517.417C197.436 516.483 196.279 515.703 195.027 515.102C191.422 513.606 188.811 509.756 188.269 505.139C188.056 503.314 188.166 502.604 188.849 501.411C189.797 499.774 190.784 496.543 191.487 492.887C191.854 490.92 192.132 490.346 192.996 489.965C193.883 489.339 194.592 488.492 195.053 487.508C196.343 485.013 198.11 477.836 197.729 476.778C197.627 476.356 197.579 475.922 197.587 475.488C197.58 474.924 197.603 474.36 197.658 473.799C197.658 473.631 197.658 473.451 197.69 473.257C197.715 472.246 197.681 471.234 197.587 470.226C197.383 467.608 196.921 465.016 196.207 462.488C196.207 462.385 196.143 462.282 196.104 462.178C195.994 461.869 195.859 461.534 195.711 461.211C195.659 461.082 195.595 460.947 195.53 460.811C195.246 460.225 194.885 459.599 194.544 458.967C192.899 456.162 190.507 453.118 188.579 451.551C187.897 450.977 187.165 450.466 186.393 450.023C185.192 449.4 183.912 448.945 182.588 448.669C180.402 448.121 179.28 447.676 179.189 447.327C179.18 447.291 179.18 447.254 179.189 447.218C179.195 447.164 179.195 447.11 179.189 447.057C179.193 447.031 179.193 447.005 179.189 446.979C179.151 446.87 179.054 446.837 178.925 446.921C178.796 447.005 178.209 446.779 177.797 446.321C177.305 445.829 176.653 445.531 175.959 445.483C175.399 445.49 174.844 445.373 174.334 445.141C174.237 445.089 174.127 445.067 174.018 445.077C172.676 445.077 168.214 446.554 166.995 447.489C166.953 447.513 166.914 447.544 166.879 447.579C166.051 448.231 165.156 448.793 164.209 449.256C162.21 450.255 160.186 452.132 158.025 454.956L157.825 455.22C156.368 457.047 155.323 459.168 154.762 461.437C154.762 461.437 154.762 461.437 154.762 461.469L154.704 461.682C154.304 463.081 154.001 464.261 153.776 465.306C153.776 465.37 153.776 465.428 153.737 465.493C153.224 467.67 153.089 469.919 153.337 472.141C153.334 472.18 153.334 472.219 153.337 472.258C153.337 472.399 153.337 472.548 153.376 472.696C153.542 473.762 153.602 474.842 153.556 475.92C153.546 476.074 153.497 476.223 153.412 476.352C153.327 476.481 153.21 476.585 153.073 476.655C151.693 477.429 152.57 483.259 154.769 488.011C155.646 489.907 156.129 490.468 157.064 490.668C158.303 490.939 158.625 491.661 159.315 495.698C159.623 497.096 160.055 498.464 160.605 499.786C163.068 505.642 160.979 512.123 155.897 514.38C154.769 514.936 153.766 515.717 152.95 516.675C151.538 518.474 149.326 519.771 144.954 521.118H144.851L143.903 521.396C139.254 522.685 131.335 524.285 128.22 529.94C125.595 535.157 124.241 539.381 123.874 544.946C123.448 546.661 123.448 553.329 123.874 555.263C123.874 559.023 122.81 567.677 121.352 572.03C119.895 576.382 117.69 581.703 116.11 586.752C116.107 587.023 116.017 587.285 115.852 587.5C115.386 588.236 114.969 589 114.601 589.789C114.269 590.528 113.877 591.237 113.427 591.911C113.256 592.14 113.145 592.408 113.105 592.691C112.918 593.555 111.325 595.503 108.623 598.172C104.238 602.506 101.923 604.853 101.529 605.369C101.304 605.659 100.627 606.413 100.027 607.039C99.6344 607.428 99.2722 607.846 98.9436 608.29C95.3538 612.999 91.4682 617.475 87.3103 621.69C83.4412 625.559 81.4099 627.494 80.7715 628.068C80.1331 628.642 79.2883 629.428 78.5532 630.073C77.8775 630.708 77.1459 631.28 76.3671 631.782C75.996 631.976 75.6364 632.191 75.2902 632.427C74.802 632.64 74.2884 632.79 73.7619 632.872C73.2704 632.936 72.7931 633.082 72.3497 633.304C72.1885 633.575 71.3308 633.523 70.5634 633.194C68.9577 632.55 67.2102 632.214 62.7155 631.827C60.6971 631.647 59.775 631.64 59.4912 631.827C58.0261 632.062 56.5449 632.183 55.0611 632.188C50.5019 632.35 49.6701 632.459 49.6701 633.388C49.6701 633.388 49.7023 633.485 49.7023 633.491C49.7815 633.629 49.8767 633.756 49.9861 633.871H49.6959C49.6766 633.871 49.6578 633.877 49.6425 633.889C49.6272 633.901 49.6165 633.917 49.612 633.936C49.1348 634.923 49.0188 636.174 48.5222 637.109C48.2191 637.689 48.174 638.398 48.2127 642.455C48.2707 647.852 48.3223 647.697 46.4587 647.646C45.3044 647.646 44.2081 647.207 42.6218 646.22C41.7061 645.653 41.0354 645.621 39.8296 646.079C38.8236 646.466 38.772 646.691 39.462 647.156C40.1314 647.511 40.713 648.011 41.1644 648.619C41.5815 649.169 42.135 649.6 42.7701 649.87C43.6607 650.338 44.5221 650.859 45.3495 651.431C46.4651 652.198 46.8585 652.366 47.6323 652.366C49.1631 652.002 50.6705 651.545 52.1463 650.999C52.9579 650.552 53.9001 650.404 54.8096 650.58C55.7424 650.67 56.6632 650.858 57.5567 651.141C58.9173 651.611 59.9684 651.605 62.909 651.141C63.3624 651.042 63.825 650.993 64.289 650.992L65.5787 650.915C72.3948 649.909 77.4956 644.466 84.2795 641.029C84.2761 641.002 84.2761 640.973 84.2795 640.946C94.0233 634.407 103.522 626.185 113.408 620.562C114.111 620.056 114.773 619.495 115.387 618.885C116.226 618.092 117.257 617.17 117.683 616.828C118.892 615.793 120.042 614.69 121.127 613.526C121.417 613.223 122.01 612.649 122.455 612.237C124.435 610.463 128.046 606.162 128.413 605.143C128.53 604.834 128.697 604.576 128.794 604.576C130.294 601.677 131.547 598.657 132.541 595.548C134.617 589.467 137.867 582.302 139.247 577.459C140.627 572.617 142.117 567.548 142.471 566.897C142.471 566.858 142.51 566.839 142.536 566.839C142.987 567.774 143.464 569.044 143.967 569.979C146.547 574.783 146.437 581.103 148.017 585.823C148.23 586.468 148.378 587.339 148.965 591.827C149.126 593.078 149.365 594.529 149.5 595.051C149.812 597.051 149.689 599.094 149.139 601.042C148.721 602.252 148.133 603.396 147.392 604.44C147.15 604.736 146.955 605.067 146.811 605.42C146.53 606 146.2 606.554 145.825 607.078C145.283 607.89 144.715 608.799 144.535 609.096C144.348 609.433 144.133 609.752 143.89 610.05C141.817 613.93 140.072 617.977 138.673 622.148C138.531 622.593 138.389 623.038 138.26 623.476L138.067 624.121C137.657 625.547 137.357 627.002 137.171 628.474C137.132 628.842 137.1 629.203 137.08 629.551C137.08 629.744 137.08 629.938 137.08 630.125C137.087 630.249 137.087 630.374 137.08 630.499C137.056 630.753 136.995 631.003 136.9 631.24C136.435 632.102 135.814 632.87 135.068 633.504C134.894 633.71 134.682 633.917 134.501 634.149L134.443 634.213L134.327 634.355L134.585 635L134.12 634.607H134.062C126.969 632.936 128.046 633.646 124.815 633.156C122.004 629.287 113.756 628.094 113.698 635.368V635.406C113.989 635.746 114.32 636.05 114.685 636.309C115.288 636.685 115.938 636.98 116.619 637.186C115.974 637.908 116.574 638.837 117.045 639.636C117.76 640.281 120.649 641.855 122.468 643.473C122.468 643.473 127.84 649.922 130.961 652.727C134.789 656.018 138.875 658.996 143.181 661.633C146.082 663.567 149.141 665.254 152.325 666.675C153.584 667.225 154.904 667.619 156.258 667.849C157.253 667.947 158.253 667.973 159.251 667.926C159.251 667.926 162.63 663.651 164.351 661.026C166.073 658.402 168.975 652.205 169.214 651.702L186.883 651.057L186.921 651.025H187.186C196.936 649.238 203.023 646.511 212.109 641.642C212.309 641.513 212.509 641.384 212.709 641.268C211.419 641.107 210.575 639.978 210.13 637.941C210.085 637.102 210.014 636.167 209.93 635.213C209.859 634.432 209.781 633.633 209.698 632.853C209.549 631.511 209.356 630.234 209.143 629.229C208.595 626.72 207.931 625.572 207.679 622.935C206.615 616.441 203.004 610.837 202.179 604.427C201.917 602.931 201.944 601.399 202.256 599.913C203.178 593.897 204.835 588.306 205.332 582.36C205.391 581.59 205.497 580.823 205.648 580.065C205.688 579.845 205.749 579.629 205.829 579.42C206.044 578.833 206.157 578.214 206.164 577.588C206.122 576.857 206.364 576.139 206.841 575.583C206.881 575.541 206.929 575.508 206.983 575.486H207.138C207.209 575.501 207.274 575.537 207.325 575.589C207.608 575.873 207.647 576.318 207.931 583.108C208.067 586.526 208.392 589.934 208.904 593.316C209.775 600.204 210.065 601.506 210.136 602.757C210.12 603.859 210.317 604.954 210.717 605.981C213.399 611.895 217.404 616.673 221.782 621.503C227.676 625.798 233.512 631.905 239.535 635.69C240.072 636.084 240.581 636.515 241.057 636.98C241.657 637.547 241.953 637.908 241.934 638.082L244.417 639.669C246.828 641.803 250.066 644.924 251.233 645.292C252.935 646.44 255.179 646.433 256.392 646.994C257.391 647.452 259.1 646.865 259.616 646.749C259.665 646.737 259.716 646.737 259.764 646.749C259.784 646.706 259.808 646.665 259.835 646.627C260.132 646.266 261.125 646.246 262.021 646.575C262.795 646.852 264.794 646.511 265.194 646.033C265.736 645.389 267.528 645.06 271.41 644.905C274.893 644.776 275.338 644.712 276.015 644.299C277.175 643.615 277.459 642.39 277.337 638.676ZM58.4724 638.269C58.3361 638.753 58.2369 639.247 58.1757 639.746C57.7597 640.499 57.2288 641.182 56.6023 641.771C55.0611 643.415 55.0095 643.448 54.0229 643.448C52.3462 643.448 52.0883 642.545 52.4688 638.244L52.63 636.451L54.313 636.548C55.7836 636.611 57.2473 636.786 58.6916 637.07C58.6642 637.477 58.5907 637.879 58.4724 638.269ZM260.796 651.811C260.732 651.25 260.635 650.657 260.512 650.083C260.661 650.664 260.732 651.263 260.796 651.818V651.811ZM90.9215 638.83C90.1413 639.043 89.3868 639.269 88.6581 639.52L90.9215 638.83ZM68.6353 670.699C68.8868 670.886 69.2028 671.144 69.5252 671.434C70.0349 671.871 70.5807 672.264 71.1567 672.608C70.5807 672.256 70.0331 671.859 69.5188 671.421C69.2028 671.105 68.8868 670.854 68.6353 670.699ZM67.9389 670.312C67.9964 670.354 68.0625 670.383 68.1323 670.396C68.1982 670.41 68.26 670.438 68.3129 670.48C68.257 670.433 68.1907 670.4 68.1194 670.383C68.0518 670.364 67.9899 670.328 67.9389 670.28V670.312Z" fill="#19151A"/>
<path d="M260.88 652.972C260.88 653.146 260.796 653.991 260.686 654.861C260.525 656.112 260.242 656.931 259.281 658.898C258.649 660.2 257.914 661.449 257.082 662.632C256.696 663.077 256.361 663.564 256.082 664.083C254.431 666.52 250.923 669.035 248.744 670.983C248.395 671.074 248.061 671.213 247.751 671.396C246.416 672.092 244.681 672.131 243.295 672.337C237.394 673.208 230.933 674.839 226.941 676.651C224.231 677.93 221.299 678.674 218.307 678.844C215.598 679.069 214.902 679.069 208.885 678.844C206.667 678.753 202.753 678.586 200.192 678.463C197.632 678.341 193.531 678.186 191.081 678.121C188.587 678.09 186.098 677.885 183.633 677.509C177.661 676.535 176.539 676.503 170.091 677.109C161.901 677.876 156.626 678.005 141.523 677.793C129.271 677.618 127.685 677.638 120.308 678.044C113.621 678.405 110.738 678.463 102.4 678.386C93.1528 678.296 92.3402 678.257 90.7023 677.851C87.5737 677.036 84.3907 676.448 81.1778 676.09C79.5634 675.993 77.9703 675.672 76.4445 675.136C74.6099 674.451 72.8473 673.587 71.1825 672.556C70.6065 672.204 70.0589 671.807 69.5446 671.37C69.2286 671.086 68.8997 670.835 68.6611 670.648C68.5609 670.564 68.4529 670.491 68.3387 670.428C68.2829 670.381 68.2165 670.348 68.1452 670.332C68.0805 670.322 68.0188 670.297 67.9647 670.261C67.6855 670.065 67.4205 669.849 67.1715 669.616C66.9909 669.455 66.8104 669.28 66.6492 669.126L66.488 668.964C66.3044 668.803 66.159 668.602 66.0623 668.378C66.0151 668.173 65.9125 667.986 65.7657 667.836C65.7119 667.771 65.6664 667.699 65.6303 667.623L65.5207 667.397C65.4884 667.307 65.4433 667.217 65.3981 667.107L65.2498 666.746C65.2047 666.624 65.1531 666.495 65.108 666.359L64.9532 665.94C64.4846 664.677 64.1012 663.385 63.8053 662.071C63.8053 662.039 63.8053 662.013 63.8053 661.987C63.225 658.118 63.0251 655.668 64.9081 651.869C64.9081 651.805 65.1144 651.644 65.1273 651.586C65.4376 651.321 65.765 651.078 66.1075 650.857H65.6174C72.4335 649.851 77.5343 644.408 84.3182 640.971V641.016C84.4021 641.236 84.8857 641.062 87.1169 640.114C87.6199 639.901 88.1487 639.701 88.6904 639.52L90.9538 638.83C94.6746 637.811 98.8984 637.167 102.394 636.412C103.239 636.397 104.08 636.289 104.902 636.09C106.391 635.809 107.901 635.66 109.416 635.645C110.522 635.626 111.627 635.544 112.724 635.4L113.588 635.322C113.879 635.662 114.21 635.966 114.575 636.225C115.178 636.601 115.829 636.896 116.509 637.102C115.865 637.824 116.464 638.753 116.935 639.553C117.651 640.197 120.54 641.771 122.358 643.389C122.358 643.389 127.73 649.838 130.851 652.643C134.679 655.934 138.766 658.912 143.071 661.549C146.004 663.518 149.1 665.233 152.325 666.675C153.584 667.225 154.904 667.619 156.258 667.849C157.253 667.947 158.253 667.973 159.251 667.926C159.251 667.926 162.63 663.651 164.351 661.026C166.073 658.402 168.975 652.205 169.214 651.702L186.883 651.057L186.921 651.025H187.186C196.936 649.238 203.023 646.511 212.109 641.642C212.309 641.513 212.509 641.384 212.709 641.268C213.272 641.329 213.841 641.251 214.366 641.042C214.781 640.883 215.214 640.781 215.656 640.739C219.222 640.61 224.62 637.676 228.895 637.515C230.056 637.226 231.26 637.149 232.448 637.289C233.338 637.328 234.234 637.412 234.821 637.502C234.828 637.499 234.836 637.497 234.844 637.497C234.852 637.497 234.859 637.499 234.866 637.502L235.221 637.56C235.285 637.572 235.347 637.589 235.408 637.612C235.456 637.631 235.506 637.644 235.556 637.65C236.361 637.789 237.177 637.852 237.994 637.837C238.932 637.825 239.869 637.901 240.793 638.063C241.515 638.263 241.882 638.282 241.902 638.063L244.385 639.649C246.796 641.784 250.033 644.905 251.201 645.272C252.903 646.42 255.147 646.414 256.359 646.975C257.359 647.433 259.068 646.846 259.584 646.73C259.632 646.717 259.683 646.717 259.732 646.73C259.648 646.962 259.732 647.375 260.003 648.219L260.061 648.406C260.237 648.946 260.382 649.495 260.493 650.051C260.616 650.625 260.712 651.224 260.777 651.779C260.773 651.822 260.773 651.865 260.777 651.908C260.848 652.314 260.873 652.643 260.88 652.972Z" fill="#19151A"/>
<path d="M65.5658 650.87H66.0559C65.7134 651.091 65.386 651.334 65.0757 651.599C65.0757 651.657 64.8887 651.818 64.8565 651.882C62.9735 655.681 63.1734 658.15 63.7538 662C63.7538 662 63.7538 662.052 63.7538 662.084V661.987C63.1669 658.118 62.9735 655.668 64.85 651.869C65.0474 651.509 65.2877 651.173 65.5658 650.87Z" fill="#19151A"/>
<path d="M88.226 639.656L88.6581 639.52C88.1164 639.701 87.5876 639.901 87.0846 640.114C84.8534 641.062 84.3698 641.236 84.286 641.016C84.402 641.21 84.9308 641.016 87.0717 640.101C87.4458 639.946 87.8391 639.798 88.226 639.656Z" fill="#19151A"/>
<path d="M113.582 635.29L113.627 635.342L112.763 635.419C111.666 635.563 110.561 635.645 109.455 635.664C107.94 635.679 106.429 635.828 104.941 636.109C104.119 636.308 103.278 636.416 102.432 636.431C98.9371 637.212 94.694 637.837 90.9603 638.85C98.0537 636.767 105.289 635.284 113.421 635.316L113.582 635.29Z" fill="#19151A"/>
<path d="M169.226 651.669L186.921 651.025L186.883 651.057L169.214 651.702L169.226 651.669Z" fill="#19151A"/>
<path d="M232.468 637.283C233.264 637.318 234.058 637.393 234.847 637.508C234.26 637.418 233.364 637.334 232.474 637.296C231.286 637.156 230.082 637.232 228.921 637.521C224.645 637.695 219.248 640.63 215.682 640.746C215.24 640.788 214.806 640.89 214.392 641.049C213.866 641.258 213.297 641.335 212.735 641.274C213.296 641.324 213.861 641.242 214.386 641.036C214.801 640.881 215.235 640.782 215.675 640.739C219.242 640.61 224.639 637.676 228.914 637.515C230.075 637.226 231.279 637.148 232.468 637.283Z" fill="#19151A"/>
<path d="M235.434 637.625L235.589 637.67C235.538 637.663 235.488 637.65 235.44 637.631L235.434 637.625Z" fill="#19151A"/>
<path d="M241.96 638.108C241.96 638.301 241.573 638.282 240.851 638.108C239.927 637.946 238.99 637.87 238.052 637.882C237.235 637.897 236.419 637.834 235.614 637.695C236.418 637.827 237.231 637.888 238.046 637.876C238.983 637.859 239.921 637.932 240.844 638.095C241.534 638.269 241.895 638.289 241.96 638.108Z" fill="#19151A"/>
<path d="M260.016 648.258C259.739 647.394 259.661 647.001 259.745 646.769C260.016 646.839 259.784 647.381 260.016 648.258Z" fill="#19151A"/>
<path d="M212.064 641.197C202.353 635.058 197.6 640.765 192.848 646.491L186.921 651.05L186.883 651.083L169.214 651.727L167.176 651.798C163.526 645.202 160.082 645.221 156.149 645.956C145.928 648.258 142.026 640.836 138.428 637.437C137.067 636.27 135.352 635.761 134.243 634.794C134.198 634.735 134.101 634.639 134.062 634.581C134.164 634.451 134.271 634.326 134.385 634.207L134.443 634.142C134.643 633.942 134.849 633.73 135.004 633.549C135.762 632.915 136.386 632.137 136.842 631.26C136.944 631.025 137.005 630.774 137.022 630.518C137.029 630.394 137.029 630.269 137.022 630.144C137.022 629.957 137.022 629.764 137.022 629.57C137.022 629.222 137.074 628.861 137.113 628.493C137.299 627.022 137.599 625.566 138.009 624.141L138.202 623.496C138.331 623.057 138.473 622.612 138.615 622.167C138.834 621.522 139.073 620.82 139.318 620.149H139.499C139.499 620.149 155.356 626.952 163.713 628.783C170.069 630.126 176.566 630.687 183.059 630.454C183.059 630.454 198.277 629.286 201.759 628.893C203.862 628.661 206.796 627.571 208.511 626.881C208.724 627.597 208.943 628.338 209.156 629.286C209.369 630.234 209.562 631.55 209.717 632.878C209.801 633.659 209.878 634.458 209.949 635.238C210.027 636.206 210.091 637.173 210.143 637.998C210.491 639.682 211.136 640.733 212.077 641.152L212.064 641.197Z" fill="#19151A"/>
<path d="M198.754 545.913C198.916 546.242 188.327 550.343 174.688 550.208C164.48 550.111 150.855 546.242 150.855 546.242L146.341 520.764C145.573 520.983 144.767 521.202 143.942 521.409L147.243 547.093C142.826 554.238 144.483 560.029 142.458 566.574L142.736 567.219C142.961 567.683 143.477 568.934 143.98 569.876C145.702 573.1 146.224 576.969 146.856 580.619C152.518 580.664 158.161 581.077 164.216 580.503C172.599 579.703 181.376 580.503 189.565 580.148C194.956 579.91 205.164 579.929 205.164 579.929L205.706 580.032C205.751 579.802 205.813 579.576 205.893 579.355C206.11 578.769 206.223 578.149 206.228 577.524C206.228 576.473 206.68 575.493 207.105 575.409L207.886 565.181C208.169 562.067 207.318 559.719 206.88 557.74C206.28 553.368 203.701 548.944 202.275 546.867L207.15 521.718C206.622 521.331 204.848 520.428 204.706 520.267L198.754 545.913Z" fill="#19151A"/>
<path d="M166.899 447.579C166.071 448.231 165.176 448.793 164.229 449.255C162.23 450.255 160.205 452.125 158.045 454.956C154.375 460.005 152.841 467.273 153.395 472.696C153.563 473.762 153.622 474.842 153.569 475.92C154.678 476.526 155.427 478.306 157.484 483.291C156.194 462.617 161.882 471.632 165.261 460.031C173.541 468.105 192.306 461.888 193.222 471.825C194.279 476.649 193.692 480.209 193.46 485.619C193.892 482.324 195.008 475.804 197.233 475.546C197.361 475.533 197.491 475.533 197.619 475.546C197.606 474.976 197.628 474.405 197.684 473.837C197.935 471.303 197.194 465.557 196.233 462.552C195.195 459.328 191.416 453.879 188.598 451.59C186.573 449.952 185.503 449.436 182.614 448.707C180.247 448.114 179.125 447.643 179.202 447.276C179.28 446.908 179.151 446.824 178.944 446.953C178.738 447.082 178.235 446.811 177.822 446.354C177.328 445.862 176.673 445.565 175.978 445.515C175.378 445.515 174.914 445.18 173.927 445.045C172.941 444.909 167.93 446.689 166.905 447.624L166.899 447.579Z" fill="#19151A"/>
<path fill-rule="evenodd" clip-rule="evenodd" d="M186.928 448.533C186.347 452.306 181.395 454.666 175.862 453.815C170.329 452.963 166.312 449.223 166.892 445.431C167.472 441.64 172.425 439.325 177.958 440.176C183.491 441.027 187.508 444.767 186.928 448.533Z" fill="#19151A"/>
<path d="M53.9432 159.255L53.5707 158.816C53.6789 158.976 53.799 159.127 53.9299 159.268L54.1028 159.468L53.9432 159.255ZM53.9432 159.255C53.8123 159.114 53.6922 158.962 53.584 158.803L53.9432 159.255ZM67.8983 126.489C66.3152 127.035 64.7454 127.514 63.2155 127.926C64.7587 127.527 66.3285 127.048 67.9249 126.489C67.9176 126.405 67.9176 126.321 67.9249 126.237L67.8983 126.489ZM67.8983 126.489C71.5289 125.232 75.0449 123.665 78.4078 121.807L78.8468 121.567L78.1816 118.574C78.1816 118.574 83.6759 94.2956 84.341 84.5577C85.0062 74.833 78.5142 59.96 72.8071 56.0223C70.5323 54.4525 58.9851 57.898 47.9168 65.9598C36.8486 74.0215 27.7891 92.3799 26.7115 99.6967C25.634 107.013 35.8908 129.642 35.8908 129.642C35.8908 129.642 36.3963 129.735 37.1279 129.842C37.8596 129.948 38.884 130.081 40.2143 130.174L41.4116 130.254H43.274L43.4603 125.172L44.1254 106.109L43.9525 105.976C42.831 105.079 41.7607 104.119 40.7464 103.102M67.8983 126.489C67.891 126.405 67.891 126.321 67.8983 126.237V126.476C66.3152 127.021 64.7454 127.5 63.2155 127.913C63.5215 125.412 63.894 122.485 64.2931 119.585C65.2775 112.188 66.3019 104.951 66.3019 104.951L66.395 104.872L66.5014 104.765C66.5468 104.713 66.5957 104.664 66.6478 104.619L67.3794 103.847L67.6987 103.488C68.5333 102.537 69.3107 101.538 70.0268 100.495L70.4126 99.9362C70.5323 99.7499 70.652 99.5504 70.7984 99.3508L70.9846 99.0715C72.9869 95.8983 74.5656 92.477 75.6806 88.8945C78.2615 80.5933 78.0353 70.1104 74.3503 64.6827C73.3608 63.1328 71.8664 61.9721 70.1199 61.3968C63.761 59.4678 56.9098 59.8004 46.387 70.1104C45.8282 70.6425 45.2562 71.2279 44.6842 71.8265C33.1769 83.7994 35.944 95.3865 37.4472 98.8852C38.2982 100.469 39.4141 101.895 40.7464 103.102M66.2487 40.5773C59.9962 40.3245 52.5198 35.9611 50.9766 33.4867L49.4467 30.9059C51.8679 34.511 53.1051 43.9164 52.1074 51.0735C51.138 56.1404 49.7406 61.1159 47.9302 65.9465C58.9984 57.8715 70.5722 54.4392 72.8205 56.009L72.2218 52.8163C69.1089 51.1134 66.3684 48.812 63.894 47.7078C63.0293 44.3953 64.5459 41.4021 66.2487 40.5773ZM66.2487 40.5773C59.9962 40.3245 52.5198 35.9611 51.0165 33.5L46.387 25.691C45.509 24.1878 45.6287 22.8441 46.6132 22.0859C47.5976 21.3276 53.2249 17.2435 53.6639 16.7646C54.1029 16.2857 54.1029 15.5141 54.0231 14.2769C53.9433 13.0397 54.3424 11.4832 55.3534 11.2038C56.3644 10.9245 61.5926 11.6961 62.2178 11.4965C62.577 11.3768 63.8275 10.5786 65.823 9.62075M66.2487 40.5773C67.4285 41.0727 68.7148 41.2604 69.9869 41.1227C70.9382 41.002 71.849 40.6646 72.6493 40.1364C73.4497 39.6083 74.1181 38.9035 74.6031 38.0763C74.7643 37.6169 74.8196 37.127 74.7649 36.6432C74.7102 36.1594 74.5469 35.6942 74.2873 35.2824C74.0276 34.8705 73.6783 34.5226 73.2654 34.2647C72.8524 34.0067 72.3866 33.8454 71.9026 33.7927C71.0645 34.0321 69.9337 34.4046 68.7896 34.7904C66.435 35.6152 64.0138 36.5198 63.8541 36.5198C64.1861 35.1781 64.9418 33.9791 66.0093 33.1009C66.7441 32.7546 67.5304 32.53 68.3373 32.4357C69.4172 32.2732 70.5053 32.1711 71.5966 32.1298C71.084 28.5254 70.9902 24.8737 71.3172 21.2478L71.0113 21.4207L68.0179 16.3521M58.0938 25.2518C58.1733 25.2772 58.2595 25.2706 58.334 25.2333C58.4086 25.196 58.4657 25.131 58.4929 25.0523C58.5093 25.0069 58.516 24.9587 58.5126 24.9106C58.5092 24.8626 58.4958 24.8157 58.4732 24.7731C58.4507 24.7306 58.4195 24.6932 58.3817 24.6633C58.3438 24.6335 58.3002 24.6119 58.2535 24.5999M58.0938 25.2518L57.1892 25.0257C56.8805 24.9407 56.5783 24.834 56.2846 24.7064C55.952 24.5866 55.6328 24.4004 55.2869 24.2408C54.6794 23.9135 54.1009 23.5352 53.5575 23.11C53.3044 22.9129 53.0645 22.6996 52.8391 22.4714C52.7279 22.3515 52.669 22.1923 52.6752 22.0289C52.6815 21.8655 52.7524 21.7112 52.8723 21.6001C52.9923 21.4889 53.1515 21.43 53.3149 21.4362C53.4783 21.4425 53.6326 21.5134 53.7437 21.6333C53.7437 21.6333 53.9433 21.8861 54.329 22.2453C54.772 22.683 55.2578 23.0752 55.7791 23.416C56.0553 23.6083 56.3442 23.7816 56.6438 23.9348C56.9003 24.0785 57.1671 24.203 57.442 24.3073L58.2535 24.5999M58.0938 25.2518C58.1693 25.2654 58.2471 25.2515 58.3131 25.2124C58.379 25.1734 58.4287 25.1119 58.453 25.0392C58.4835 24.9544 58.4796 24.8611 58.4424 24.7792C58.4051 24.6972 58.3374 24.6327 58.2535 24.5999M68.0179 16.3521C67.9574 16.5756 67.868 16.7902 67.7519 16.9906C67.7382 17.0171 67.719 17.0404 67.6957 17.059C67.6724 17.0776 67.6455 17.0911 67.6166 17.0986C67.5878 17.1061 67.5577 17.1075 67.5283 17.1026C67.4989 17.0978 67.4708 17.0868 67.4459 17.0704C67.4088 17.0502 67.3804 17.0171 67.3661 16.9773C67.2741 16.7662 67.1985 16.5482 67.1399 16.3255C67.1164 16.1966 67.0762 16.0714 67.0202 15.953M68.0179 16.3521L67.3927 15.3277L66.7408 14.2235L66.5945 13.8245C66.4881 13.5185 66.395 13.2258 66.3151 12.9331M67.0202 15.953C66.8686 16.119 66.6939 16.2624 66.5014 16.3787C66.1725 16.6325 65.7588 16.7505 65.3455 16.7084C64.9322 16.6663 64.5508 16.4674 64.2797 16.1525C64.1326 15.7654 64.1404 15.3364 64.3015 14.9549C64.4625 14.5733 64.7644 14.2685 65.1445 14.1038C65.4124 13.9414 65.7116 13.8372 66.0225 13.7978L65.9426 13.6116L65.8229 13.3987M67.0202 15.953C67.0145 15.8866 67.0146 15.8198 67.0202 15.7534C66.9943 15.6465 66.954 15.5436 66.9005 15.4474L66.7675 15.1415C66.732 15.0337 66.6828 14.9308 66.6211 14.8355C66.5689 14.7371 66.5244 14.6348 66.4881 14.5295C66.3684 14.3566 66.2886 14.1703 66.1954 14.0107C66.1023 13.8511 66.1954 13.8644 66.089 13.7978L66.0092 13.6116L65.8229 13.3987M65.8229 13.3987C65.7774 13.3223 65.763 13.2313 65.7829 13.1446C65.8027 13.0579 65.8551 12.9822 65.9293 12.9331C65.9899 12.9138 66.055 12.9138 66.1156 12.9331H66.3151M66.3151 12.9331C66.0102 11.8545 65.8449 10.7414 65.823 9.62075M65.823 9.62075C65.8515 10.7331 66.0214 11.8371 66.3286 12.9065C66.4084 13.1992 66.5015 13.4918 66.6079 13.7978L66.7543 14.1969L67.4061 15.3012M65.823 9.62075C65.517 1.59892 74.51 -0.316893 79.4056 1.79832C91.2189 7.01317 99.0145 16.4318 100.225 27.3937C100.365 28.5545 100.428 29.7233 100.411 30.8924L99.8393 30.9855C99.5201 31.0521 99.2141 31.1186 98.8948 31.2117L98.1631 31.4379C97.3788 31.6967 96.6249 32.0401 95.9149 32.4622L95.7952 32.542C93.0704 34.201 91.1077 36.8653 90.3311 39.9594C89.5544 43.0534 90.0263 46.3288 91.6446 49.0779L91.7643 49.2775C89.2443 51.5206 86.3056 53.2432 83.1172 54.346C79.0331 55.6763 75.4413 54.5987 72.2352 52.8294C69.0291 51.0601 66.3818 48.8384 63.9074 47.721C63.0427 44.4085 64.5593 41.4153 66.2621 40.5905C67.4418 41.0859 68.7281 41.2735 70.0003 41.1359C70.9515 41.0152 71.8624 40.6777 72.6627 40.1496C73.463 39.6214 74.1314 38.9166 74.6165 38.0895C74.7798 37.6322 74.8379 37.144 74.7867 36.6612C74.7355 36.1784 74.5761 35.7133 74.3205 35.3005C74.0649 34.8877 73.7196 34.5378 73.3102 34.2767C72.9009 34.0157 72.4379 33.8502 71.9558 33.7925C71.1177 34.032 69.987 34.4045 68.8429 34.7903C66.4882 35.6151 64.067 36.5197 63.9074 36.5197C64.2393 35.1779 64.9951 33.9789 66.0625 33.1008C66.7974 32.7545 67.5837 32.5298 68.3906 32.4356C69.4705 32.2731 70.5586 32.1709 71.6499 32.1296C71.1372 28.5252 71.0435 24.8736 71.3705 21.2476L71.0645 21.4205L68.0713 16.352L67.4061 15.3012M67.4061 15.3012C67.3182 15.5313 67.1821 15.7399 67.007 15.9132C66.8554 16.0792 66.6807 16.2226 66.4882 16.3389C66.1593 16.5927 65.7456 16.7107 65.3323 16.6686C64.919 16.6265 64.5376 16.4276 64.2666 16.1127C64.1195 15.7256 64.1273 15.2966 64.2883 14.915C64.4494 14.5335 64.7513 14.2287 65.1313 14.064C65.3993 13.9016 65.6984 13.7973 66.0093 13.758C66.2068 13.7175 66.4105 13.7175 66.608 13.758L66.7543 14.1571L67.4061 15.3012ZM40.7464 103.102C41.7646 104.124 42.8394 105.088 43.9658 105.989L44.1388 106.122L43.4736 125.186L43.2874 130.267L43.141 134.458C43.141 134.458 42.6621 136.653 41.8107 140.125C38.6844 153.189 31.1415 184.372 30.2635 185.941C25.501 186.833 20.2861 186.846 19.2884 187.059C18.2906 187.272 10.8674 192.925 9.53712 193.591C8.2068 194.256 1.31574 196.597 1.10289 197.701C0.890041 198.805 0.730403 200.309 3.6172 200.309C6.50399 200.309 13.9272 199.298 15.9227 199.417C17.9181 199.537 26.8978 200.309 31.4475 200.309C35.9972 200.309 38.6578 199.75 40.201 191.223C44.5379 182.536 49.7926 170.164 54.1162 159.109C53.9852 158.967 53.8652 158.816 53.757 158.656L54.1295 159.095C58.8654 146.99 62.5105 136.493 62.6568 134.232C62.7366 133.088 63.0027 130.746 63.3752 127.766C63.6812 125.265 64.0537 122.339 64.4528 119.439C65.4372 112.082 66.4615 104.805 66.4615 104.805L66.5547 104.725L66.6611 104.619C66.7065 104.567 66.7554 104.518 66.8074 104.472L67.5391 103.701L67.8584 103.342C68.4836 102.61 69.2951 101.599 70.1864 100.348L70.5722 99.7898C70.692 99.6035 70.8117 99.404 70.958 99.2044L71.1443 98.8984C73.1327 95.7233 74.6979 92.302 75.8004 88.7215C78.3812 80.4868 78.1551 69.9374 74.4302 64.523C73.4361 62.983 71.9423 61.8322 70.1997 61.2637C63.8408 59.3347 56.9897 59.6673 46.4668 69.9773C45.9081 70.5094 45.336 71.0948 44.764 71.6934C33.2567 83.7062 36.0238 95.2534 37.5271 98.7521C38.3412 100.377 39.4304 101.849 40.7464 103.102ZM230.091 200.468H120.778C114.813 200.22 108.987 198.585 103.764 195.692C97.6708 192.593 64.9582 170.749 63.5215 169.977C62.4367 169.118 61.6311 167.956 61.2067 166.638C67.9648 152.005 77.0642 140.032 87.015 133.66C114.606 129.669 129.825 145.952 138.033 155.038C144.245 158.257 177.477 172.638 181.215 173.05C184.953 173.463 191.778 169.804 199.427 170.31C207.076 170.815 218.956 175.126 229.359 178.624L230.929 179.13C231.831 186.24 231.548 193.451 230.091 200.468ZM230.091 200.468L309.91 200.468C313.728 200.468 314.593 199.71 313.648 197.635C313.181 196.646 312.438 195.813 311.508 195.237C310.577 194.661 309.501 194.366 308.407 194.389C305.839 191.981 305.573 189.972 300.092 188.735C294.611 187.498 289.623 189.573 286.962 187.91C284.301 186.247 280.483 182.017 277.57 179.516C274.657 177.015 270.253 174.78 266.927 176.602C263.602 178.425 263.203 183.414 260.276 183.919C257.349 184.425 241.412 182.309 230.916 179.103C231.825 186.222 231.547 193.441 230.091 200.468ZM379.306 439.72C378.247 440.831 377.598 454.05 377.325 467.544M379.306 439.72C375.925 436.936 375.258 432.667 376.386 430.532M379.306 439.72C378.247 440.831 377.564 454.05 377.325 467.544M379.306 439.72C382.033 439.331 384.784 439.137 387.539 439.14C385.189 441.029 383.415 443.537 382.415 446.382C380.707 451.591 381.066 466.331 383.508 478.031C383.901 479.961 384.362 481.822 384.874 483.53C388.512 495.589 400.998 495.281 409.538 491.541C415.225 489.047 420.913 483.001 424.055 473.453C424.477 472.22 424.836 470.966 425.131 469.696C425.439 468.398 425.712 467.048 425.917 465.631C426.382 462.596 426.61 459.529 426.6 456.459L428.308 455.639C430.348 461.263 431.975 467.029 433.176 472.89C435.704 484.589 447.028 503.053 447.028 503.053L446.874 503.275C438.334 515.675 415.516 530.79 406.19 532.618L405.626 532.72C405.626 532.72 396.437 523.224 389.605 517.468C382.774 511.712 378.282 505.751 377.53 491.951C377.223 486.28 377.171 476.852 377.325 467.544M377.325 467.544C373.909 460.387 369.759 451.779 367.385 447.902C362.978 440.643 357.991 435.946 352.457 433.316L355.207 434.528M355.207 434.528C358.623 436.014 369.656 434.938 376.386 430.532M355.207 434.528L352.457 433.265L344.566 429.849C342.534 428.892 341.628 427.645 342.141 426.125C342.653 424.605 345.471 416.116 345.557 415.297C345.642 414.477 345.078 413.623 344.071 412.444C343.063 411.266 342.209 409.302 343.063 408.277C343.917 407.252 349.946 404.126 350.441 403.443C350.732 403.05 351.432 401.274 352.764 398.78C353.648 399.917 354.675 400.933 355.822 401.803M376.386 430.532C377.85 430.249 379.215 429.588 380.345 428.615C381.475 427.641 382.33 426.388 382.825 424.981C383.209 423.921 383.355 422.79 383.252 421.667C383.078 421.066 382.77 420.511 382.351 420.045C381.932 419.58 381.413 419.215 380.833 418.978C380.253 418.741 379.626 418.639 379.001 418.679C378.376 418.719 377.768 418.9 377.223 419.208C376.061 420.643 374.387 423.034 373.055 424.981C371.723 426.928 370.954 428.038 370.869 428.089C370.44 427.11 370.23 426.05 370.254 424.981C370.194 424.27 370.305 423.556 370.579 422.897M356.419 420.659C356.518 420.621 356.599 420.547 356.646 420.453C356.694 420.358 356.704 420.249 356.676 420.147C356.663 420.083 356.637 420.023 356.598 419.972C356.559 419.92 356.509 419.877 356.452 419.848C356.394 419.818 356.33 419.802 356.266 419.801C356.201 419.799 356.137 419.813 356.078 419.84M356.419 420.659L355.309 421.086C354.925 421.233 354.531 421.353 354.131 421.445C353.675 421.557 353.213 421.642 352.747 421.701C351.865 421.822 350.973 421.862 350.083 421.821C349.665 421.802 349.249 421.762 348.836 421.701C348.63 421.658 348.449 421.535 348.334 421.359C348.219 421.183 348.178 420.968 348.221 420.762C348.264 420.556 348.387 420.375 348.563 420.26C348.74 420.145 348.954 420.104 349.16 420.147C349.16 420.147 349.553 420.25 350.202 420.352C351 420.466 351.806 420.506 352.611 420.472C353.045 420.46 353.479 420.42 353.909 420.352C354.319 420.352 354.711 420.25 355.019 420.147L356.078 419.84M356.419 420.659C356.506 420.609 356.572 420.531 356.606 420.437C356.64 420.344 356.641 420.241 356.607 420.147C356.593 420.092 356.569 420.04 356.534 419.994C356.5 419.949 356.457 419.91 356.407 419.882C356.358 419.853 356.304 419.835 356.247 419.827C356.19 419.82 356.133 419.824 356.078 419.84M360.331 404.809C360.336 404.884 360.312 404.957 360.264 405.014C360.216 405.071 360.149 405.108 360.075 405.117H359.904C359.658 404.964 359.424 404.792 359.203 404.604C359.075 404.479 358.932 404.37 358.776 404.28M360.331 404.809C360.286 404.497 360.2 404.193 360.075 403.904L358.623 403.272M360.331 404.809C360.303 404.518 360.24 404.231 360.143 403.956M358.776 404.28C358.751 404.58 358.676 404.875 358.554 405.151C358.407 405.663 358.066 406.097 357.603 406.361C357.141 406.626 356.594 406.7 356.078 406.568C355.635 406.275 355.322 405.822 355.204 405.303C355.086 404.785 355.173 404.241 355.446 403.784C355.609 403.414 355.841 403.078 356.129 402.794L355.907 402.674L355.685 402.572C355.632 402.551 355.583 402.52 355.542 402.48C355.501 402.441 355.469 402.393 355.446 402.34C355.424 402.288 355.413 402.231 355.412 402.174C355.412 402.117 355.424 402.061 355.446 402.008C355.477 401.927 355.53 401.856 355.6 401.803H355.822M358.776 404.28L358.572 404.143C358.458 404.059 358.338 403.985 358.213 403.921L357.854 403.699C357.739 403.614 357.612 403.545 357.479 403.494L357.017 403.272C356.761 403.169 356.539 403.033 356.334 402.93L356.044 402.777L355.822 402.657L355.6 402.555C355.547 402.534 355.498 402.503 355.457 402.463C355.416 402.423 355.383 402.376 355.361 402.323C355.339 402.271 355.327 402.214 355.327 402.157C355.327 402.1 355.338 402.044 355.361 401.991C355.391 401.909 355.445 401.838 355.514 401.786H355.736C356.027 402.025 356.351 402.264 356.676 402.503L357.154 402.828L358.623 403.272M355.822 401.803C356.112 402.042 356.437 402.281 356.761 402.521L357.239 402.845L358.623 403.272M358.623 403.272L357.086 402.657L356.607 402.333C356.374 402.424 356.16 402.557 355.975 402.726C355.687 403.01 355.455 403.346 355.292 403.716C355.019 404.173 354.933 404.717 355.05 405.235C355.168 405.754 355.481 406.207 355.924 406.5C356.44 406.632 356.987 406.558 357.45 406.293C357.912 406.029 358.253 405.595 358.401 405.083C358.522 404.807 358.597 404.512 358.623 404.212C358.69 403.902 358.69 403.582 358.623 403.272ZM358.623 403.272L360.143 403.956M358.623 403.272L357.12 402.606L356.642 402.282C356.317 402.043 355.992 401.803 355.702 401.564C354.556 400.694 353.528 399.678 352.645 398.541C346.394 390.377 354.353 381.649 360.997 380.18C377.223 376.764 392.424 380.744 401.988 391.248C402.991 392.376 403.91 393.574 404.738 394.835C404.38 395.177 404.055 395.518 403.731 395.894C403.473 396.186 403.233 396.494 403.013 396.816C402.844 397.027 402.69 397.25 402.552 397.482C402.4 397.682 402.263 397.894 402.142 398.114L401.903 398.541C401.669 398.95 401.458 399.372 401.271 399.805V399.976C399.648 403.734 399.572 407.981 401.059 411.795C402.545 415.609 405.475 418.684 409.213 420.352M370.579 422.897C371.924 420.838 373.665 419.067 375.703 417.688C372.426 414.326 369.559 410.588 367.163 406.552L366.975 406.979L360.143 403.956M370.579 422.897C370.288 423.551 370.159 424.266 370.203 424.981C370.179 426.049 370.389 427.11 370.818 428.089C370.903 428.038 371.672 426.928 373.004 424.981C374.336 423.034 376.01 420.643 377.171 419.208C377.717 418.9 378.325 418.719 378.95 418.679C379.575 418.639 380.201 418.741 380.781 418.978C381.361 419.215 381.88 419.58 382.299 420.045C382.718 420.511 383.026 421.066 383.201 421.667C383.314 422.787 383.18 423.919 382.808 424.981C382.313 426.388 381.458 427.641 380.328 428.614C379.198 429.588 377.833 430.249 376.369 430.532C375.207 432.667 375.839 436.937 379.255 439.721C381.982 439.325 384.733 439.125 387.488 439.123C389.334 439.072 391.177 438.913 393.004 438.645C397.163 438.184 400.985 436.142 403.679 432.94C403.875 432.711 404.057 432.472 404.226 432.223L404.363 432.018C406.8 428.542 408.54 424.627 409.486 420.489L409.213 420.352M409.213 420.352L409.538 420.438C411.7 421.33 414.034 421.727 416.37 421.599H417.019C419.769 421.328 422.398 420.329 424.634 418.705C426.871 417.081 428.634 414.89 429.743 412.359C431.228 409.047 431.51 405.32 430.54 401.823C429.569 398.325 427.408 395.276 424.429 393.202C421.45 391.128 417.84 390.16 414.223 390.464C410.606 390.769 407.209 392.327 404.619 394.869C404.26 395.211 403.936 395.552 403.611 395.928C403.353 396.221 403.114 396.529 402.894 396.85C402.725 397.061 402.571 397.284 402.433 397.517C402.28 397.717 402.143 397.928 402.023 398.148L401.783 398.576C401.549 398.984 401.338 399.406 401.152 399.839V400.01C399.547 403.779 399.493 408.029 401.003 411.838C402.512 415.646 405.462 418.706 409.213 420.352ZM572.121 393.571C572.123 393.508 572.123 393.446 572.121 393.383M572.121 393.571C572.121 393.502 572.121 393.383 572.121 393.383M572.121 393.571C572.139 393.638 572.167 393.701 572.206 393.759L572.36 394.169L567.85 399.293C567.85 399.293 571.266 399.89 572.257 399.89C573.248 399.89 573.299 399.651 574.392 399.634C575.058 401.564 575.741 403.511 576.39 405.458L574.836 405.663C573.611 405.908 572.411 406.263 571.249 406.722C569.912 406.952 568.589 407.26 567.287 407.645C564.794 408.725 562.061 409.131 559.362 408.823C557.432 408.618 554.767 408.072 551.898 407.764C552.018 407.423 552.137 407.081 552.24 406.756C552.342 406.432 552.24 406.483 552.359 406.347C548.467 405.549 544.461 405.468 540.54 406.107C535.091 407.371 505.953 422.88 499.975 426.091C493.997 429.302 480.231 432.496 476.473 434.016C472.716 435.536 442.314 448.705 428.36 455.622L426.652 456.442C426.662 459.512 426.433 462.579 425.968 465.614C425.746 467.014 425.473 468.38 425.183 469.679C424.858 470.977 424.5 472.241 424.107 473.436C420.964 483.001 415.276 489.03 409.589 491.524C401.015 495.264 388.529 495.503 384.891 483.547C384.379 481.839 383.918 479.978 383.525 478.048C381.083 466.348 380.707 451.608 382.432 446.399C383.432 443.554 385.206 441.046 387.556 439.157C389.403 439.106 391.245 438.947 393.073 438.679C397.231 438.218 401.054 436.176 403.748 432.974C403.943 432.745 404.126 432.506 404.294 432.257L404.431 432.052C412.219 430.788 421.067 431.01 426.43 428.994C433.262 426.432 480.333 412.034 484.501 410.856C488.668 409.677 494.1 406.056 501.256 404.024C508.413 401.991 538.046 390.923 539.686 389.54C540.284 389.045 542.999 386.91 546.227 384.416M572.121 393.383C573.054 392.447 573.916 391.442 574.699 390.377C574.969 388.513 574.659 386.611 573.811 384.928C573.094 384.314 571.762 384.519 570.652 383.921C569.541 383.323 562.505 376.167 561.821 375.637C561.138 375.108 560.182 374.219 559.43 374.493H559.311C554.675 376.64 550.185 379.088 545.869 381.82C545.954 382.162 545.954 382.503 545.954 382.828C546.003 383.363 546.095 383.895 546.227 384.416M546.227 384.416C546.219 384.467 546.219 384.519 546.227 384.57C546.227 384.57 546.227 384.467 546.227 384.416ZM152.325 666.675C149.141 665.254 146.082 663.567 143.181 661.633C138.875 658.996 134.789 656.018 130.961 652.727C127.84 649.922 122.468 643.473 122.468 643.473C120.649 641.855 117.76 640.281 117.045 639.636C116.574 638.837 115.974 637.908 116.619 637.186C115.938 636.98 115.288 636.685 114.685 636.309C114.32 636.05 113.989 635.746 113.698 635.406V635.368C113.756 628.094 122.004 629.287 124.815 633.156C128.046 633.646 126.969 632.936 134.062 634.607H134.12L134.585 635L134.327 634.355L134.443 634.213L134.501 634.149C134.682 633.917 134.894 633.71 135.068 633.504C135.814 632.87 136.435 632.102 136.9 631.24C136.995 631.003 137.056 630.753 137.08 630.499C137.087 630.374 137.087 630.249 137.08 630.125C137.08 629.938 137.08 629.744 137.08 629.551C137.1 629.203 137.132 628.842 137.171 628.474C137.357 627.002 137.657 625.547 138.067 624.121L138.26 623.476C138.389 623.038 138.531 622.593 138.673 622.148C140.072 617.977 141.817 613.93 143.89 610.05C144.133 609.752 144.348 609.433 144.535 609.096C144.715 608.799 145.283 607.89 145.825 607.078C146.2 606.554 146.53 606 146.811 605.42C146.955 605.067 147.15 604.736 147.392 604.44C148.133 603.396 148.721 602.252 149.139 601.042C149.689 599.094 149.812 597.051 149.5 595.051C149.365 594.529 149.126 593.078 148.965 591.827C148.378 587.339 148.23 586.468 148.017 585.823C146.437 581.103 146.547 574.783 143.967 569.979C143.464 569.044 142.987 567.774 142.536 566.839C142.51 566.839 142.471 566.858 142.471 566.897C142.117 567.548 140.627 572.617 139.247 577.459C137.867 582.302 134.617 589.467 132.541 595.548C131.547 598.657 130.294 601.677 128.794 604.576C128.697 604.576 128.53 604.834 128.413 605.143C128.046 606.162 124.435 610.463 122.455 612.237C122.01 612.649 121.417 613.223 121.127 613.526C120.042 614.69 118.892 615.793 117.683 616.828C117.257 617.17 116.226 618.092 115.387 618.885C114.773 619.495 114.111 620.056 113.408 620.562C103.522 626.185 94.0233 634.407 84.2795 640.946C84.2761 640.973 84.2761 641.002 84.2795 641.029C77.4956 644.466 72.3948 649.909 65.5787 650.915L64.289 650.992C63.825 650.993 63.3624 651.042 62.909 651.141C59.9684 651.605 58.9173 651.611 57.5567 651.141C56.6632 650.858 55.7424 650.67 54.8096 650.58C53.9001 650.404 52.9579 650.552 52.1463 650.999C50.6705 651.545 49.1631 652.002 47.6323 652.366C46.8585 652.366 46.4651 652.198 45.3495 651.431C44.5221 650.859 43.6607 650.338 42.7701 649.87C42.135 649.6 41.5815 649.169 41.1644 648.619C40.713 648.011 40.1314 647.511 39.462 647.156C38.772 646.691 38.8236 646.466 39.8296 646.079C41.0354 645.621 41.7061 645.653 42.6218 646.22C44.2081 647.207 45.3044 647.646 46.4587 647.646C48.3223 647.697 48.2707 647.852 48.2127 642.455C48.174 638.398 48.2191 637.689 48.5222 637.109C49.0188 636.174 49.1348 634.923 49.612 633.936C49.6165 633.917 49.6272 633.901 49.6425 633.889C49.6578 633.877 49.6766 633.871 49.6959 633.871H49.9861C49.8767 633.756 49.7815 633.629 49.7023 633.491C49.7023 633.485 49.6701 633.388 49.6701 633.388C49.6701 632.459 50.5019 632.35 55.0611 632.188C56.5449 632.183 58.0261 632.062 59.4912 631.827C59.775 631.64 60.6971 631.647 62.7155 631.827C67.2102 632.214 68.9577 632.55 70.5634 633.194C71.3308 633.523 72.1885 633.575 72.3497 633.304C72.7931 633.082 73.2704 632.936 73.7619 632.872C74.2884 632.79 74.802 632.64 75.2902 632.427C75.6364 632.191 75.996 631.976 76.3671 631.782C77.1459 631.28 77.8775 630.708 78.5532 630.073C79.2883 629.428 80.1331 628.642 80.7715 628.068C81.4099 627.494 83.4412 625.559 87.3103 621.69C91.4682 617.475 95.3538 612.999 98.9436 608.29C99.2722 607.846 99.6344 607.428 100.027 607.039C100.627 606.413 101.304 605.659 101.529 605.369C101.923 604.853 104.238 602.506 108.623 598.172C111.325 595.503 112.918 593.555 113.105 592.691C113.145 592.408 113.256 592.14 113.427 591.911C113.877 591.237 114.269 590.528 114.601 589.789C114.969 589 115.386 588.236 115.852 587.5C116.017 587.285 116.107 587.023 116.11 586.752C117.69 581.703 119.895 576.382 121.352 572.03C122.81 567.677 123.874 559.023 123.874 555.263C123.448 553.329 123.448 546.661 123.874 544.946C124.241 539.381 125.595 535.157 128.22 529.94C131.335 524.285 139.254 522.685 143.903 521.396L144.851 521.118H144.954C149.326 519.771 151.538 518.474 152.95 516.675C153.766 515.717 154.769 514.936 155.897 514.38C160.979 512.123 163.068 505.642 160.605 499.786C160.055 498.464 159.623 497.096 159.315 495.698C158.625 491.661 158.303 490.939 157.064 490.668C156.129 490.468 155.646 489.907 154.769 488.011C152.57 483.259 151.693 477.429 153.073 476.655C153.21 476.585 153.327 476.481 153.412 476.352C153.497 476.223 153.546 476.074 153.556 475.92C153.602 474.842 153.542 473.762 153.376 472.696C153.337 472.548 153.337 472.399 153.337 472.258C153.334 472.219 153.334 472.18 153.337 472.141C153.089 469.919 153.224 467.67 153.737 465.493C153.776 465.428 153.776 465.37 153.776 465.306C154.001 464.261 154.304 463.081 154.704 461.682L154.762 461.469C154.762 461.437 154.762 461.437 154.762 461.437C155.323 459.168 156.368 457.047 157.825 455.22L158.025 454.956C160.186 452.132 162.21 450.255 164.209 449.256C165.156 448.793 166.051 448.231 166.879 447.579C166.914 447.544 166.953 447.513 166.995 447.489C168.214 446.554 172.676 445.077 174.018 445.077C174.127 445.067 174.237 445.089 174.334 445.141C174.844 445.373 175.399 445.49 175.959 445.483C176.653 445.531 177.305 445.829 177.797 446.321C178.209 446.779 178.796 447.005 178.925 446.921C179.054 446.837 179.151 446.87 179.189 446.979C179.193 447.005 179.193 447.031 179.189 447.057C179.195 447.11 179.195 447.164 179.189 447.218C179.18 447.254 179.18 447.291 179.189 447.327C179.28 447.676 180.402 448.121 182.588 448.669C183.912 448.945 185.192 449.4 186.393 450.023C187.165 450.466 187.897 450.977 188.579 451.551C190.507 453.118 192.899 456.162 194.544 458.967C194.885 459.599 195.246 460.225 195.53 460.811C195.595 460.947 195.659 461.082 195.711 461.211C195.859 461.534 195.994 461.869 196.104 462.178C196.143 462.282 196.207 462.385 196.207 462.488C196.921 465.016 197.383 467.608 197.587 470.226C197.681 471.234 197.715 472.246 197.69 473.257C197.658 473.451 197.658 473.631 197.658 473.799C197.603 474.36 197.58 474.924 197.587 475.488C197.579 475.922 197.627 476.356 197.729 476.778C198.11 477.836 196.343 485.013 195.053 487.508C194.592 488.492 193.883 489.339 192.996 489.965C192.132 490.346 191.854 490.92 191.487 492.887C190.784 496.543 189.797 499.774 188.849 501.411C188.166 502.604 188.056 503.314 188.269 505.139C188.811 509.756 191.422 513.606 195.027 515.102C196.279 515.703 197.436 516.483 198.464 517.417C199.78 518.705 201.451 519.572 203.262 519.906C203.742 520.024 204.209 520.19 204.655 520.403C204.835 520.486 205.016 520.583 205.197 520.673L205.751 520.989C206.196 521.254 206.641 521.544 207.105 521.828L207.808 522.253C209.375 523.169 216.217 521.608 223.072 531.333C225.131 535.662 226.35 540.343 226.664 545.126C227.057 547.686 226.69 553.065 225.826 557.546C225.103 561.261 224.929 563.292 224.852 568.928C224.794 574.745 225.039 581.187 225.439 583.005C225.555 583.521 225.742 584.869 225.851 586.01C226.27 590.247 226.406 591.208 226.741 592.323C226.935 592.968 227.264 594.116 227.476 594.903C227.754 595.896 228.166 596.96 228.618 598.127C229.588 599.657 230.693 601.096 231.919 602.428C237.749 608.851 240.947 616.564 246.48 623.425C246.564 623.509 246.97 623.883 247.383 624.257C247.8 624.632 248.161 625.067 248.454 625.546C248.906 626.207 249.432 626.815 250.021 627.358C251.039 628.326 251.394 628.539 251.955 628.539C255.012 628.448 257.662 626.63 260.854 626.062C261.449 626.07 262.041 625.994 262.615 625.837C264.968 625.069 269.34 624.727 269.211 628.545C269.403 629.371 269.324 630.237 268.986 631.015L269.74 631.408C270.472 632.26 270.901 633.33 270.959 634.452C270.977 634.99 271.046 635.526 271.165 636.051C271.275 636.535 271.481 637.521 271.63 638.25C271.907 639.656 272.229 639.991 272.79 639.437C273.1 639.146 273.474 638.869 273.435 637.031C273.371 634.245 273.409 633.601 273.854 632.814C273.955 632.619 274.107 632.455 274.294 632.341C274.481 632.227 274.696 632.167 274.915 632.167C275.134 632.167 275.349 632.227 275.536 632.341C275.724 632.455 275.876 632.619 275.976 632.814C276.142 633.276 276.338 633.726 276.563 634.162C277.092 635.006 277.227 635.251 277.337 638.676C277.459 642.39 277.175 643.615 276.015 644.299C275.338 644.712 274.893 644.776 271.41 644.905C267.528 645.06 265.736 645.389 265.194 646.033C264.794 646.511 262.795 646.852 262.021 646.575C261.125 646.246 260.132 646.266 259.835 646.627C259.808 646.665 259.784 646.706 259.764 646.749C259.716 646.737 259.665 646.737 259.616 646.749C259.1 646.865 257.391 647.452 256.392 646.994C255.179 646.433 252.935 646.44 251.233 645.292C250.066 644.924 246.828 641.803 244.417 639.669L241.934 638.082C241.953 637.908 241.657 637.547 241.057 636.98C240.581 636.515 240.072 636.084 239.535 635.69C233.512 631.905 227.676 625.798 221.782 621.503C217.404 616.673 213.399 611.895 210.717 605.981C210.317 604.954 210.12 603.859 210.136 602.757C210.065 601.506 209.775 600.204 208.904 593.316C208.392 589.934 208.067 586.526 207.931 583.108C207.647 576.318 207.608 575.873 207.325 575.589C207.274 575.537 207.209 575.501 207.138 575.486H206.983C206.929 575.508 206.881 575.541 206.841 575.583C206.364 576.139 206.122 576.857 206.164 577.588C206.157 578.214 206.044 578.833 205.829 579.42C205.749 579.629 205.688 579.845 205.648 580.065C205.497 580.823 205.391 581.59 205.332 582.36C204.835 588.306 203.178 593.897 202.256 599.913C201.944 601.399 201.917 602.931 202.179 604.427C203.004 610.837 206.615 616.441 207.679 622.935C207.931 625.572 208.595 626.72 209.143 629.229C209.356 630.234 209.549 631.511 209.698 632.853C209.781 633.633 209.859 634.432 209.93 635.213C210.014 636.167 210.085 637.102 210.13 637.941C210.575 639.978 211.419 641.107 212.709 641.268M152.325 666.675C153.584 667.225 154.904 667.619 156.258 667.849C157.253 667.947 158.253 667.973 159.251 667.926C159.251 667.926 162.63 663.651 164.351 661.026C166.073 658.402 168.975 652.205 169.214 651.702M152.325 666.675C149.1 665.233 146.004 663.518 143.071 661.549C138.766 658.912 134.679 655.934 130.851 652.643C127.73 649.838 122.358 643.389 122.358 643.389C120.54 641.771 117.651 640.197 116.935 639.553C116.464 638.753 115.865 637.824 116.509 637.102C115.829 636.896 115.178 636.601 114.575 636.225C114.21 635.966 113.879 635.662 113.588 635.322L112.724 635.4C111.627 635.544 110.522 635.626 109.416 635.645C107.901 635.66 106.391 635.809 104.902 636.09C104.08 636.289 103.239 636.397 102.394 636.412C98.8984 637.167 94.6746 637.811 90.9538 638.83L88.6904 639.52C88.1487 639.701 87.6199 639.901 87.1169 640.114C84.8857 641.062 84.4021 641.236 84.3182 641.016V640.971C77.5343 644.408 72.4335 649.851 65.6174 650.857H66.1075C65.765 651.078 65.4376 651.321 65.1273 651.586C65.1144 651.644 64.9081 651.805 64.9081 651.869C63.0251 655.668 63.225 658.118 63.8053 661.987C63.8053 662.013 63.8053 662.039 63.8053 662.071C64.1012 663.385 64.4846 664.677 64.9532 665.94L65.108 666.359C65.1531 666.495 65.2047 666.624 65.2498 666.746L65.3981 667.107C65.4433 667.217 65.4884 667.307 65.5207 667.397L65.6303 667.623C65.6664 667.699 65.7119 667.771 65.7657 667.836C65.9125 667.986 66.0151 668.173 66.0623 668.378C66.159 668.602 66.3044 668.803 66.488 668.964L66.6492 669.126C66.8104 669.28 66.9909 669.455 67.1715 669.616C67.4205 669.849 67.6855 670.065 67.9647 670.261C68.0188 670.297 68.0805 670.322 68.1452 670.332C68.2165 670.348 68.2829 670.381 68.3387 670.428C68.4529 670.491 68.5609 670.564 68.6611 670.648C68.8997 670.835 69.2286 671.086 69.5446 671.37C70.0589 671.807 70.6065 672.204 71.1825 672.556C72.8473 673.587 74.6099 674.451 76.4445 675.136C77.9703 675.672 79.5634 675.993 81.1778 676.09C84.3907 676.448 87.5737 677.036 90.7023 677.851C92.3402 678.257 93.1528 678.296 102.4 678.386C110.738 678.463 113.621 678.405 120.308 678.044C127.685 677.638 129.271 677.618 141.523 677.793C156.626 678.005 161.901 677.876 170.091 677.109C176.539 676.503 177.661 676.535 183.633 677.509C186.098 677.885 188.587 678.09 191.081 678.121C193.531 678.186 197.632 678.341 200.192 678.463C202.753 678.586 206.667 678.753 208.885 678.844C214.902 679.069 215.598 679.069 218.307 678.844C221.299 678.674 224.231 677.93 226.941 676.651C230.933 674.839 237.394 673.208 243.295 672.337C244.681 672.131 246.416 672.092 247.751 671.396C248.061 671.213 248.395 671.074 248.744 670.983C250.923 669.035 254.431 666.52 256.082 664.083C256.361 663.564 256.696 663.077 257.082 662.632C257.914 661.449 258.649 660.2 259.281 658.898C260.242 656.931 260.525 656.112 260.686 654.861C260.796 653.991 260.88 653.146 260.88 652.972C260.873 652.643 260.848 652.314 260.777 651.908C260.773 651.865 260.773 651.822 260.777 651.779C260.712 651.224 260.616 650.625 260.493 650.051C260.382 649.495 260.237 648.946 260.061 648.406L260.003 648.219C259.732 647.375 259.648 646.962 259.732 646.73C259.683 646.717 259.632 646.717 259.584 646.73C259.068 646.846 257.359 647.433 256.359 646.975C255.147 646.414 252.903 646.42 251.201 645.272C250.033 644.905 246.796 641.784 244.385 639.649L241.902 638.063C241.882 638.282 241.515 638.263 240.793 638.063C239.869 637.901 238.932 637.825 237.994 637.837C237.177 637.852 236.361 637.789 235.556 637.65C235.506 637.644 235.456 637.631 235.408 637.612C235.347 637.589 235.285 637.572 235.221 637.56L234.866 637.502C234.859 637.499 234.852 637.497 234.844 637.497C234.836 637.497 234.828 637.499 234.821 637.502C234.234 637.412 233.338 637.328 232.448 637.289C231.26 637.149 230.056 637.226 228.895 637.515C224.62 637.676 219.222 640.61 215.656 640.739C215.214 640.781 214.781 640.883 214.366 641.042C213.841 641.251 213.272 641.329 212.709 641.268M169.214 651.702L186.883 651.057L186.921 651.025M169.214 651.702L169.226 651.669L186.921 651.025M186.921 651.025H187.186C196.936 649.238 203.023 646.511 212.109 641.642C212.309 641.513 212.509 641.384 212.709 641.268M88.6581 639.52C89.3868 639.269 90.1413 639.043 90.9215 638.83L88.6581 639.52ZM88.6581 639.52L88.226 639.656C87.8391 639.798 87.4458 639.946 87.0717 640.101C84.9308 641.016 84.402 641.21 84.286 641.016C84.3698 641.236 84.8534 641.062 87.0846 640.114C87.5876 639.901 88.1164 639.701 88.6581 639.52ZM87.0017 133.7C77.0509 140.112 67.9515 152.005 61.1935 166.678C59.2028 165.049 57.3394 163.27 55.6194 161.357C55.1671 160.851 54.7281 160.346 54.2891 159.814L54.1029 159.601L53.9432 159.388C58.6792 147.282 62.3243 136.773 62.4706 134.524C62.5504 133.447 62.8165 131.039 63.189 128.059C64.7321 127.66 66.3019 127.181 67.8983 126.622C71.5289 125.365 75.045 123.798 78.4078 121.94C80.9507 126.085 83.8247 130.018 87.0017 133.7ZM43.3272 130.254L43.2075 134.444C43.2075 134.444 42.6887 136.639 41.8772 140.112C41.1056 138.542 40.4005 137.052 39.7753 135.682C38.6844 133.287 37.833 131.238 37.2477 129.748C37.9793 129.855 39.017 129.988 40.334 130.081L41.5313 130.161H42.4625L43.3272 130.254ZM108.22 53.3614C106.363 54.4461 104.251 55.0178 102.101 55.0178C99.9502 55.0178 97.8383 54.4461 95.9813 53.3614C95.807 53.2646 95.6382 53.158 95.4758 53.0421C95.2763 52.9224 95.09 52.7894 94.9038 52.6564C94.7175 52.5233 94.4381 52.3105 94.212 52.1109C93.9858 51.9114 93.8129 51.765 93.6267 51.5788C93.4404 51.3925 93.1078 51.06 92.8551 50.7806C92.6156 50.4879 92.3895 50.1953 92.1633 49.8893C91.9371 49.5833 91.8706 49.4636 91.7376 49.2374L91.6179 49.0379C90.0285 46.2972 89.573 43.044 90.3484 39.9722C91.1238 36.9004 93.0688 34.2531 95.7685 32.5951L95.8882 32.5153C96.5982 32.0932 97.3521 31.7498 98.1364 31.491L98.8681 31.2648C99.1874 31.1717 99.4934 31.1052 99.8126 31.0386L100.385 30.9588C103.165 30.5622 105.997 31.1436 108.396 32.6037C110.796 34.0639 112.613 36.312 113.539 38.9639C114.464 41.6157 114.44 44.5067 113.47 47.1425C112.499 49.7783 110.644 51.9954 108.22 53.4146V53.3614ZM67.8184 103.315C68.653 102.364 69.4304 101.365 70.1465 100.322C69.2552 101.572 68.4836 102.583 67.8184 103.315ZM67.8849 126.476C66.3018 127.021 64.7321 127.5 63.2022 127.913C64.7454 127.514 66.3152 127.035 67.9115 126.476C67.9043 126.392 67.9043 126.307 67.9115 126.223L67.8849 126.476ZM458.027 558.699C436.917 557.315 414.149 544.779 406.19 532.566C415.516 530.739 438.386 515.623 446.874 503.223C452.196 505.927 457.813 508.008 463.612 509.423C459.086 522.472 455.978 546.982 458.027 558.699ZM425.234 469.678C424.939 470.948 424.58 472.202 424.158 473.436C424.465 472.24 424.824 470.976 425.234 469.678ZM425.951 465.579C425.746 466.997 425.473 468.346 425.166 469.644C425.456 468.346 425.729 466.98 425.951 465.579ZM604.043 538.066C591.028 544.471 553.657 558.886 544.485 558.886H458.027C455.995 547.118 459.086 522.609 463.612 509.611C495.483 488.774 512.358 504.487 526.551 506.195C532.956 506.622 565.186 507.049 582.061 506.093C575.553 498.185 575.98 483.889 574.853 466.382C574.682 463.701 574.443 461.122 574.17 458.628C581.514 457.272 588.609 454.807 595.212 451.318C605.033 474.683 621.669 515.06 621.976 517.929C622.403 521.738 617.074 531.661 604.043 538.066ZM459.701 558.853C459.195 558.883 458.687 558.883 458.181 558.853H459.701ZM546.262 384.484C546.254 384.433 546.254 384.381 546.262 384.33V384.484ZM559.328 374.356C554.692 376.504 550.202 378.951 545.886 381.684C545.834 380.699 545.834 379.713 545.886 378.729C546.071 376.262 546.702 373.849 547.747 371.606C546.409 370.171 545.622 368.307 545.527 366.346C545.527 363.425 546.894 361 548.379 361C549.865 361 552.154 362.708 553.725 364.638C555.297 366.568 557.278 371.316 558.696 373.451L559.328 374.356ZM574.409 399.668C573.316 399.668 573.026 399.925 572.274 399.925C571.523 399.925 567.867 399.327 567.867 399.327L572.377 394.203C572.974 395.655 573.675 397.568 574.409 399.668ZM595.212 451.266C588.61 454.756 581.514 457.221 574.17 458.577C572.599 444.759 569.524 434.05 567.543 429.712C566.923 428.023 565.833 426.547 564.402 425.457C562.97 424.368 561.257 423.71 559.464 423.563C556.766 422.982 553.196 423.136 550.429 418.439C548.379 415.023 550.429 411.488 551.898 407.696C554.767 408.003 557.432 408.55 559.362 408.755C562.061 409.063 564.794 408.656 567.287 407.576C568.589 407.192 569.912 406.884 571.249 406.654C572.411 406.195 573.611 405.84 574.836 405.595L576.39 405.39C578.098 410.343 579.482 414.972 579.806 416.202C580.438 418.542 585.033 427.935 588.449 435.416C589.337 437.432 591.882 443.341 595.212 451.266ZM58.4724 638.269C58.3361 638.753 58.2369 639.247 58.1757 639.746C57.7597 640.499 57.2288 641.182 56.6023 641.771C55.0611 643.415 55.0095 643.448 54.0229 643.448C52.3462 643.448 52.0883 642.545 52.4688 638.244L52.63 636.451L54.313 636.548C55.7836 636.611 57.2473 636.786 58.6916 637.07C58.6642 637.477 58.5907 637.879 58.4724 638.269ZM260.796 651.811C260.732 651.25 260.635 650.657 260.512 650.083C260.661 650.664 260.732 651.263 260.796 651.818V651.811ZM68.6353 670.699C68.8868 670.886 69.2028 671.144 69.5252 671.434C70.0349 671.871 70.5807 672.264 71.1567 672.608C70.5807 672.256 70.0331 671.859 69.5188 671.421C69.2028 671.105 68.8868 670.854 68.6353 670.699ZM67.9389 670.312C67.9964 670.354 68.0625 670.383 68.1323 670.396C68.1982 670.41 68.26 670.438 68.3129 670.48C68.257 670.433 68.1907 670.4 68.1194 670.383C68.0518 670.364 67.9899 670.328 67.9389 670.28V670.312ZM65.5658 650.87H66.0559C65.7134 651.091 65.386 651.334 65.0757 651.599C65.0757 651.657 64.8887 651.818 64.8565 651.882C62.9735 655.681 63.1734 658.15 63.7538 662C63.7538 662 63.7538 662.052 63.7538 662.084V661.987C63.1669 658.118 62.9735 655.668 64.85 651.869C65.0474 651.509 65.2877 651.173 65.5658 650.87ZM113.582 635.29L113.627 635.342L112.763 635.419C111.666 635.563 110.561 635.645 109.455 635.664C107.94 635.679 106.429 635.828 104.941 636.109C104.119 636.308 103.278 636.416 102.432 636.431C98.9371 637.212 94.694 637.837 90.9603 638.85C98.0537 636.767 105.289 635.284 113.421 635.316L113.582 635.29ZM232.468 637.283C233.264 637.318 234.058 637.393 234.847 637.508C234.26 637.418 233.364 637.334 232.474 637.296C231.286 637.156 230.082 637.232 228.921 637.521C224.645 637.695 219.248 640.63 215.682 640.746C215.24 640.788 214.806 640.89 214.392 641.049C213.866 641.258 213.297 641.335 212.735 641.274C213.296 641.324 213.861 641.242 214.386 641.036C214.801 640.881 215.235 640.782 215.675 640.739C219.242 640.61 224.639 637.676 228.914 637.515C230.075 637.226 231.279 637.148 232.468 637.283ZM235.434 637.625L235.589 637.67C235.538 637.663 235.488 637.65 235.44 637.631L235.434 637.625ZM241.96 638.108C241.96 638.301 241.573 638.282 240.851 638.108C239.927 637.946 238.99 637.87 238.052 637.882C237.235 637.897 236.419 637.834 235.614 637.695C236.418 637.827 237.231 637.888 238.046 637.876C238.983 637.859 239.921 637.932 240.844 638.095C241.534 638.269 241.895 638.289 241.96 638.108ZM260.016 648.258C259.739 647.394 259.661 647.001 259.745 646.769C260.016 646.839 259.784 647.381 260.016 648.258ZM212.064 641.197C202.353 635.058 197.6 640.765 192.848 646.491L186.921 651.05L186.883 651.083L169.214 651.727L167.176 651.798C163.526 645.202 160.082 645.221 156.149 645.956C145.928 648.258 142.026 640.836 138.428 637.437C137.067 636.27 135.352 635.761 134.243 634.794C134.198 634.735 134.101 634.639 134.062 634.581C134.164 634.451 134.271 634.326 134.385 634.207L134.443 634.142C134.643 633.942 134.849 633.73 135.004 633.549C135.762 632.915 136.386 632.137 136.842 631.26C136.944 631.025 137.005 630.774 137.022 630.518C137.029 630.394 137.029 630.269 137.022 630.144C137.022 629.957 137.022 629.764 137.022 629.57C137.022 629.222 137.074 628.861 137.113 628.493C137.299 627.022 137.599 625.566 138.009 624.141L138.202 623.496C138.331 623.057 138.473 622.612 138.615 622.167C138.834 621.522 139.073 620.82 139.318 620.149H139.499C139.499 620.149 155.356 626.952 163.713 628.783C170.069 630.126 176.566 630.687 183.059 630.454C183.059 630.454 198.277 629.286 201.759 628.893C203.862 628.661 206.796 627.571 208.511 626.881C208.724 627.597 208.943 628.338 209.156 629.286C209.369 630.234 209.562 631.55 209.717 632.878C209.801 633.659 209.878 634.458 209.949 635.238C210.027 636.206 210.091 637.173 210.143 637.998C210.491 639.682 211.136 640.733 212.077 641.152L212.064 641.197ZM198.754 545.913C198.916 546.242 188.327 550.343 174.688 550.208C164.48 550.111 150.855 546.242 150.855 546.242L146.341 520.764C145.573 520.983 144.767 521.202 143.942 521.409L147.243 547.093C142.826 554.238 144.483 560.029 142.458 566.574L142.736 567.219C142.961 567.683 143.477 568.934 143.98 569.876C145.702 573.1 146.224 576.969 146.856 580.619C152.518 580.664 158.161 581.077 164.216 580.503C172.599 579.703 181.376 580.503 189.565 580.148C194.956 579.91 205.164 579.929 205.164 579.929L205.706 580.032C205.751 579.802 205.813 579.576 205.893 579.355C206.11 578.769 206.223 578.149 206.228 577.524C206.228 576.473 206.68 575.493 207.105 575.409L207.886 565.181C208.169 562.067 207.318 559.719 206.88 557.74C206.28 553.368 203.701 548.944 202.275 546.867L207.15 521.718C206.622 521.331 204.848 520.428 204.706 520.267L198.754 545.913ZM166.899 447.579C166.071 448.231 165.176 448.793 164.229 449.255C162.23 450.255 160.205 452.125 158.045 454.956C154.375 460.005 152.841 467.273 153.395 472.696C153.563 473.762 153.622 474.842 153.569 475.92C154.678 476.526 155.427 478.306 157.484 483.291C156.194 462.617 161.882 471.632 165.261 460.031C173.541 468.105 192.306 461.888 193.222 471.825C194.279 476.649 193.692 480.209 193.46 485.619C193.892 482.324 195.008 475.804 197.233 475.546C197.361 475.533 197.491 475.533 197.619 475.546C197.606 474.976 197.628 474.405 197.684 473.837C197.935 471.303 197.194 465.557 196.233 462.552C195.195 459.328 191.416 453.879 188.598 451.59C186.573 449.952 185.503 449.436 182.614 448.707C180.247 448.114 179.125 447.643 179.202 447.276C179.28 446.908 179.151 446.824 178.944 446.953C178.738 447.082 178.235 446.811 177.822 446.354C177.328 445.862 176.673 445.565 175.978 445.515C175.378 445.515 174.914 445.18 173.927 445.045C172.941 444.909 167.93 446.689 166.905 447.624L166.899 447.579ZM186.928 448.533C186.347 452.306 181.395 454.666 175.862 453.815C170.329 452.963 166.312 449.223 166.892 445.431C167.472 441.64 172.425 439.325 177.958 440.176C183.491 441.027 187.508 444.767 186.928 448.533Z" stroke="#C03516" stroke-width="0.5" stroke-miterlimit="10"/>
</svg>
